{
.appVersion = "3133";
.formatVersion = 3;
DisplayStrings = (
"”",
"“",
"\"",
""
);
axes = (
{
name = Weight;
tag = wght;
}
);
classes = (
{
automatic = 1;
code = "A B C D E F G H I J K L M N O P Q R S T U V W X Y Z";
name = Uppercase;
}
);
customParameters = (
{
name = vendorID;
value = RASA;
},
{
name = panose;
value = (
0,
0,
8,
0,
0,
0,
0,
0,
0,
0
);
},
{
name = unicodeRanges;
value = (
0,
1,
13,
67
);
},
{
name = codePageRanges;
value = (
"1252",
"1256"
);
},
{
name = fsType;
value = (
);
},
{
name = glyphOrder;
value = (
.notdef,
space,
exclam,
quotedbl,
numbersign,
dollar,
percent,
ampersand,
quotesingle,
parenleft,
parenright,
asterisk,
plus,
comma,
hyphenminus,
period,
slash,
zero,
one,
two,
three,
four,
five,
six,
seven,
eight,
nine,
colon,
semicolon,
less,
equal,
greater,
question,
at,
A,
B,
C,
D,
E,
F,
G,
H,
I,
J,
K,
L,
M,
N,
O,
P,
Q,
R,
S,
T,
U,
V,
W,
X,
Y,
Z,
bracketleft,
backslash,
bracketright,
asciicircum,
underscore,
grave,
a,
b,
c,
d,
e,
f,
g,
h,
i,
j,
k,
l,
m,
n,
o,
p,
q,
r,
s,
t,
u,
v,
w,
x,
y,
z,
braceleft,
bar,
braceright,
asciitilde,
nbspace,
exclamdown,
cent,
sterling,
currency,
yen,
brokenbar,
section,
dieresis,
copyright,
guillemetleft,
registered,
macron,
degree,
plusminus,
acute,
mu,
paragraph,
periodcentered,
ordmasculine,
guillemetright,
circumflexmod,
ringmod,
tildemod,
quoteleft,
quoteright,
quotesinglbase,
quotedblleft,
quotedblright,
quotedblbase,
bullet,
ellipsis,
perthousand,
guilsinglleft,
guilsinglright,
fraction,
"hamza-arab",
"alef-arab",
"alef-arab.fina",
"alefhamzaabove-arab",
"alefhamzaabove-arab.fina",
"alefhamzabelow-arab",
"alefhamzabelow-arab.fina",
"alefmaddaabove-arab",
"alefmaddaabove-arab.fina",
"beh-arab",
"beh-arab.fina",
"beh-arab.medi",
"beh-arab.init",
"teh-arab",
"teh-arab.fina",
"teh-arab.medi",
"teh-arab.init",
"theh-arab",
"theh-arab.fina",
"theh-arab.medi",
"theh-arab.init",
"jeem-arab",
"jeem-arab.fina",
"jeem-arab.medi",
"jeem-arab.init",
"hah-arab",
"hah-arab.fina",
"hah-arab.medi",
"hah-arab.init",

glyphs = (
{
glyphname = exclam;
lastChange = "2023-01-06 21:19:04 +0000";
layers = (
{
layerId = m01;
shapes = (
{
closed = 1;
nodes = (
(173,203,l),
(179,669,l),
(101,669,l),
(107,203,l)
);
},
{
closed = 1;
nodes = (
(93,14,o),
(113,-6,o),
(140,-6,cs),
(167,-6,o),
(188,14,o),
(188,41,cs),
(188,68,o),
(167,89,o),
(140,89,cs),
(113,89,o),
(93,68,o),
(93,41,cs)
);
}
);
width = 281;
},
{
hints = (
{
horizontal = 1;
place = (-12, 160);
place = (-12, 160);
type = Stem;
},
{
horizontal = 1;
place = (763, -20);
target = down;
type = TopGhost;
},
{
place = (95, 160);
place = (95, 160);
type = Stem;
},
{
place = (105.5, 137.5);
place = (105.5, 137.5);
type = Stem;
}
);
layerId = "EED8C670-EB0D-45AD-8912-54AB4C6FD6BA";
shapes = (
{
closed = 1;
nodes = (
(219,-12,o),
(255,24,o),
(255,68,cs),
(255,112,o),
(219,148,o),
(175,148,cs),
(130,148,o),
(95,113,o),
(95,68,cs),
(95,23,o),
(130,-12,o),
(175,-12,cs)
);
},
{
closed = 1;
nodes = (
(240,197,l),
(246,763,l),
(102,763,l),
(109,197,l)
);
}
);
width = 350;
},
{
hints = (
{
horizontal = 1;
origin = (1,2);
target = (1,8);
type = Stem;
},
{
horizontal = 1;
origin = (0,3);
target = down;
type = TopGhost;
},
{
place = (100, 128);
place = (100, 128);
type = Stem;
},
{
origin = (1,11);
target = (1,5);
type = Stem;
}
);
layerId = "B06945F2-A2F9-4CD6-84EB-56F06A9D6A7E";
shapes = (
{
closed = 1;
nodes = (
(106,203,l),
(222,203,l),
(234,678,l),
(94,678,l)
);
},
{
closed = 1;
nodes = (
(90,20,o),
(123,-12,o),
(164,-12,cs),
(203,-12,o),
(237,20,o),
(237,62,cs),
(237,102,o),
(203,133,o),
(164,133,cs),
(123,133,o),
(90,102,o),
(90,62,cs)
);
}
);
width = 327;
}
);
note = exclam;
unicode = 33;
},
{
glyphname = quotedbl;
lastChange = "2023-01-12 15:08:54 +0000";
layers = (
{
hints = (
{
horizontal = 1;
origin = (1,7);
target = (1,4);
type = Stem;
},
{
origin = (0,0);
target = (0,7);
type = Stem;
}
);
layerId = m01;
shapes = (
{
closed = 1;
nodes = (
(192,764,l),
(182,689,o),
(172,631,o),
(162,591,c),
(196,591,l),
(211,636,o),
(224,694,o),
(234,764,c)
);
},
{
closed = 1;
nodes = (
(84,591,l),
(98,637,o),
(111,695,o),
(122,764,c),
(80,764,l),
(69,689,o),
(59,631,o),
(50,591,c)
);
}
);
width = 289;
},
{
hints = (
{
horizontal = 1;
origin = (0,9);
target = (0,5);
type = Stem;
},
{
origin = (1,8);
target = (1,4);
type = Stem;
},
{
origin = (0,9);
target = (0,4);
type = Stem;
}
);
layerId = "EED8C670-EB0D-45AD-8912-54AB4C6FD6BA";
shapes = (
{
closed = 1;
nodes = (
(133,680,l),
(143,705,o),
(167,763,o),
(172,821,cs),
(174,844,l),
(97,844,l),
(96,820,ls),
(94,763,o),
(76,705,o),
(70,680,c)
);
},
{
closed = 1;
nodes = (
(251,680,l),
(260,705,o),
(287,763,o),
(290,821,cs),
(291,844,l),
(214,844,l),
(214,770,o),
(196,714,o),
(187,680,c)
);
}
);
width = 366;
},
{
hints = (
{
horizontal = 1;
origin = (0,9);
target = (0,5);
type = Stem;
},
{
place = (87.5, 67.5);
place = (87.5, 67.5);
type = Stem;
},
{
place = (178, 68);
place = (178, 68);
type = Stem;
}
);
layerId = "B06945F2-A2F9-4CD6-84EB-56F06A9D6A7E";
shapes = (
{
closed = 1;
nodes = (
(116,587,l),
(126,613,o),
(149,674,o),
(154,730,cs),
(156,754,l),
(88,754,l),
(87,730,ls),
(84,672,o),
(66,613,o),
(60,587,c)
);
},
{
closed = 1;
nodes = (
(207,587,l),
(217,613,o),
(240,674,o),
(245,730,cs),
(247,754,l),
(179,754,l),
(177,730,ls),
(175,672,o),
(157,613,o),
(151,587,c)
);
}
);
width = 257;
}
);
note = quotedbl;
unicode = 34;
},
{
glyphname = numbersign;
lastChange = "2023-01-06 21:19:04 +0000";
layers = (
{
layerId = m01;
shapes = (
{
closed = 1;
nodes = (
(373,9,l),
(403,198,l),
(512,198,l),
(522,257,l),
(412,257,l),
(442,429,l),
(550,429,l),
(560,490,l),
(451,490,l),
(481,677,l),
(422,677,l),
(392,490,l),
(216,490,l),
(248,677,l),
(187,677,l),
(157,490,l),
(48,490,l),
(36,429,l),
(147,429,l),
(118,257,l),
(10,257,l),
(0,198,l),
(108,198,l),
(78,9,l),
(137,9,l),
(168,198,l),
(343,198,l),
(313,9,l)
);
},
{
closed = 1;
nodes = (
(179,257,l),
(206,429,l),
(382,429,l),
(353,257,l)
);
}
);
width = 620;
},
{
hints = (
{
horizontal = 1;
origin = (0,23);
target = up;
type = BottomGhost;
},
{
horizontal = 1;
origin = (0,21);
target = (0,20);
type = Stem;
},
{
horizontal = 1;
origin = (0,16);
target = (0,17);
type = Stem;
},
{
horizontal = 1;
origin = (0,14);
target = down;
type = TopGhost;
},
{
origin = (0,21);
target = (0,7);
type = Stem;
}
);
layerId = "EED8C670-EB0D-45AD-8912-54AB4C6FD6BA";
shapes = (
{
closed = 1;
nodes = (
(502,0,l),
(535,197,l),
(651,197,l),
(674,327,l),
(556,327,l),
(576,440,l),
(693,440,l),
(715,571,l),
(597,571,l),
(630,767,l),
(496,767,l),
(463,571,l),
(346,571,l),
(380,767,l),
(244,767,l),
(212,571,l),
(96,571,l),
(70,440,l),
(190,440,l),
(170,327,l),
(54,327,l),
(32,197,l),
(148,197,l),
(116,0,l),
(250,0,l),
(283,197,l),
(400,197,l),
(367,0,l)
);
},
{
closed = 1;
nodes = (
(422,327,l),
(305,327,l),
(324,440,l),
(441,440,l)
);
}
);
width = 746;
},
{
layerId = "B06945F2-A2F9-4CD6-84EB-56F06A9D6A7E";
shapes = (
{
closed = 1;
nodes = (
(342,0,l),
(434,0,l),
(465,188,l),
(573,188,l),
(588,279,l),
(479,279,l),
(503,420,l),
(612,420,l),
(627,512,l),
(517,512,l),
(548,700,l),
(456,700,l),
(426,512,l),
(283,512,l),
(314,700,l),
(222,700,l),
(191,512,l),
(83,512,l),
(65,420,l),
(176,420,l),
(153,279,l),
(44,279,l),
(29,188,l),
(138,188,l),
(107,0,l),
(199,0,l),
(229,188,l),
(372,188,l)
);
},
{
closed = 1;
nodes = (
(245,279,l),
(268,420,l),
(411,420,l),
(387,279,l)
);
}
);
width = 655;
}
);
note = numbersign;
unicode = 35;
},
{
glyphname = dollar;
lastChange = "2023-01-06 21:19:04 +0000";
layers = (
{
layerId = m01;
shapes = (
{
closed = 1;
nodes = (
(258,-72,l),
(259,2,l),
(386,11,o),
(463,80,o),
(466,188,cs),
(466,276,o),
(410,336,o),
(285,368,cs),
(260,375,l),
(261,607,l),
(333,597,o),
(372,558,o),
(379,489,c),
(456,489,l),
(452,594,o),
(379,666,o),
(262,677,c),
(262,751,l),
(216,751,l),
(215,677,l),
(96,666,o),
(16,594,o),
(16,493,cs),
(16,408,o),
(75,355,o),
(183,324,cs),
(213,314,l),
(212,72,l),
(129,81,o),
(84,122,o),
(76,193,c),
(0,193,l),
(5,78,o),
(84,10,o),
(211,2,c),
(211,-72,l)
);
},
{
closed = 1;
nodes = (
(103,561,o),
(141,598,o),
(214,608,c),
(214,387,l),
(134,411,o),
(98,442,o),
(98,498,c)
);
},
{
closed = 1;
nodes = (
(260,301,l),
(348,274,o),
(384,245,o),
(384,188,cs),
(384,123,o),
(336,79,o),
(259,72,c)
);
}
);
width = 526;
},
{
hints = (
{
horizontal = 1;
origin = (0,37);
target = (0,19);
type = Stem;
},
{
place = (245, 2000);
place = (245, 2000);
type = Stem;
},
{
origin = (2,3);
target = (0,4);
type = Stem;
},
{
origin = (1,0);
target = (0,8);
type = Stem;
},
{
place = (411, 2000);
place = (411, 2000);
type = Stem;
},
{
origin = (0,23);
target = (1,3);
type = Stem;
},
{
place = (249.5, 105.5);
place = (249.5, 105.5);
type = Stem;
},
{
place = (246.5, 106);
place = (246.5, 106);
type = Stem;
},
{
place = (38.5, 134);
place = (38.5, 134);
type = Stem;
}
);
layerId = "EED8C670-EB0D-45AD-8912-54AB4C6FD6BA";
shapes = (
{
closed = 1;
nodes = (
(350,-98,l),
(351,-25,l),
(474,-9,o),
(553,69,o),
(554,176,cs),
(554,275,o),
(489,341,o),
(355,374,cs),
(354,374,l),
(354,535,l),
(401,517,o),
(407,487,o),
(411,430,c),
(546,430,l),
(545,461,ls),
(541,566,o),
(467,644,o),
(355,663,c),
(355,736,l),
(250,736,l),
(249,663,l),
(133,645,o),
(55,566,o),
(55,464,cs),
(55,361,o),
(123,311,o),
(247,274,c),
(246,101,l),
(203,113,o),
(177,142,o),
(174,184,cs),
(171,210,l),
(38,210,l),
(39,180,ls),
(44,67,o),
(121,-10,o),
(245,-26,c),
(245,-98,l)
);
},
{
closed = 1;
nodes = (
(248,406,l),
(200,426,o),
(196,447,o),
(196,468,cs),
(196,499,o),
(216,524,o),
(248,536,c)
);
},
{
closed = 1;
nodes = (
(353,242,l),
(409,219,o),
(414,199,o),
(414,176,cs),
(414,140,o),
(392,113,o),
(352,101,c)
);
}
);
width = 592;
},
{
hints = (
{
horizontal = 1;
origin = (0,39);
target = (0,19);
type = Stem;
},
{
origin = (0,23);
target = (2,2);
type = Stem;
},
{
place = (249, 2000);
place = (249, 2000);
type = Stem;
},
{
origin = (1,3);
target = (0,4);
type = Stem;
},
{
place = (252, 2000);
place = (252, 2000);
type = Stem;
},
{
origin = (0,12);
target = (0,13);
type = Stem;
},
{
place = (253.5, 73.5);
place = (253.5, 73.5);
type = Stem;
},
{
place = (250.5, 73);
place = (250.5, 73);
type = Stem;
},
{
place = (49.5, 99.5);
place = (49.5, 99.5);
type = Stem;
}
);
layerId = "B06945F2-A2F9-4CD6-84EB-56F06A9D6A7E";
shapes = (
{
closed = 1;
nodes = (
(322,-95,l),
(323,-24,l),
(442,-12,o),
(519,61,o),
(519,165,cs),
(519,260,o),
(458,319,o),
(338,350,cs),
(325,353,l),
(326,546,l),
(385,534,o),
(406,496,o),
(410,436,c),
(511,436,l),
(511,451,ls),
(507,554,o),
(435,628,o),
(327,642,c),
(327,713,l),
(254,713,l),
(253,642,l),
(142,628,o),
(65,554,o),
(65,455,cs),
(65,412,o),
(79,376,o),
(107,347,cs),
(144,310,o),
(182,296,o),
(251,275,c),
(250,71,l),
(179,83,o),
(154,122,o),
(149,185,c),
(49,185,l),
(50,170,ls),
(54,60,o),
(129,-13,o),
(249,-24,c),
(249,-95,l)
);
},
{
closed = 1;
nodes = (
(324,253,l),
(399,226,o),
(414,201,o),
(414,165,cs),
(414,116,o),
(380,81,o),
(323,71,c)
);
},
{
closed = 1;
nodes = (
(185,398,o),
(172,424,o),
(172,459,cs),
(172,503,o),
(203,537,o),
(252,547,c),
(252,374,l)
);
}
);
width = 568;
}
);
note = dollar;
unicode = 36;
},
{
glyphname = percent;
lastChange = "2023-01-06 21:19:04 +0000";
layers = (
{
hints = (
{
horizontal = 1;
origin = (3,2);
target = (4,8);
type = Stem;
},
{
horizontal = 1;
origin = (4,2);
target = (3,8);
type = Stem;
},
{
horizontal = 1;
origin = (0,11);
target = (1,8);
type = Stem;
},
{
horizontal = 1;
origin = (1,2);
target = (0,5);
type = Stem;
},
{
origin = (0,8);
target = (1,11);
type = Stem;
},
{
origin = (1,5);
target = (0,2);
type = Stem;
},
{
origin = (3,11);
target = (4,11);
type = Stem;
},
{
origin = (4,5);
target = (3,5);
type = Stem;
}
);
layerId = m01;
shapes = (
{
closed = 1;
nodes = (
(220,389,o),
(260,451,o),
(260,547,cs),
(260,640,o),
(220,702,o),
(145,702,cs),
(70,702,o),
(31,640,o),
(31,547,cs),
(31,451,o),
(70,389,o),
(145,389,cs)
);
},
{
closed = 1;
nodes = (
(81,603,o),
(98,652,o),
(145,652,cs),
(193,652,o),
(210,603,o),
(210,546,cs),
(210,490,o),
(193,439,o),
(145,439,cs),
(98,439,o),
(81,490,o),
(81,546,cs)
);
},
{
closed = 1;
nodes = (
(185,-50,l),
(257,-50,l),
(452,719,l),
(379,719,l)
);
},
{
closed = 1;
nodes = (
(398,18,o),
(437,-43,o),
(512,-43,cs),
(588,-43,o),
(627,18,o),
(627,115,cs),
(627,208,o),
(588,269,o),
(512,269,cs),
(437,269,o),
(398,208,o),
(398,115,cs)
);
},
{
closed = 1;
nodes = (
(449,171,o),
(465,219,o),
(512,219,cs),
(560,219,o),
(577,171,o),
(577,115,cs),
(577,56,o),
(560,7,o),
(512,7,cs),
(465,7,o),
(449,56,o),
(449,115,cs)
);
}
);
width = 687;
},
{
hints = (
{
horizontal = 1;
origin = (1,11);
target = (2,11);
type = Stem;
},
{
horizontal = 1;
origin = (2,5);
target = (1,5);
type = Stem;
},
{
horizontal = 1;
origin = (3,11);
target = (4,11);
type = Stem;
},
{
horizontal = 1;
origin = (4,5);
target = (3,5);
type = Stem;
},
{
origin = (0,3);
target = (4,2);
type = Stem;
},
{
origin = (4,8);
target = (3,2);
type = Stem;
},
{
origin = (1,8);
target = (2,2);
type = Stem;
},
{
origin = (2,8);
target = (1,2);
type = Stem;
}
);
layerId = "EED8C670-EB0D-45AD-8912-54AB4C6FD6BA";
shapes = (
{
closed = 1;
nodes = (
(233,-126,l),
(620,792,l),
(469,792,l),
(83,-126,l)
);
},
{
closed = 1;
nodes = (
(604,-98,o),
(639,-55,o),
(639,32,cs),
(639,119,o),
(604,162,o),
(534,162,cs),
(464,162,o),
(429,119,o),
(429,32,cs),
(429,-55,o),
(464,-98,o),
(534,-98,cs)
);
},
{
closed = 1;
nodes = (
(512,-45,o),
(501,-19,o),
(501,32,cs),
(501,83,o),
(512,108,o),
(534,108,cs),
(557,108,o),
(569,83,o),
(569,32,cs),
(569,-19,o),
(557,-45,o),
(534,-45,cs)
);
},
{
closed = 1;
nodes = (
(258,529,o),
(293,572,o),
(293,658,cs),
(293,745,o),
(258,788,o),
(188,788,cs),
(118,788,o),
(83,745,o),
(83,658,cs),
(83,572,o),
(118,529,o),
(188,529,cs)
);
},
{
closed = 1;
nodes = (
(165,583,o),
(154,608,o),
(154,658,cs),
(154,709,o),
(165,734,o),
(188,734,cs),
(210,734,o),
(221,709,o),
(221,658,cs),
(221,608,o),
(210,583,o),
(188,583,cs)
);
}
);
width = 719;
},
{
hints = (
{
horizontal = 1;
origin = (4,2);
target = (0,11);
type = Stem;
},
{
horizontal = 1;
origin = (0,5);
target = (4,8);
type = Stem;
},
{
horizontal = 1;
origin = (1,2);
target = (2,8);
type = Stem;
},
{
horizontal = 1;
origin = (2,2);
target = (1,8);
type = Stem;
},
{
origin = (1,11);
target = (2,11);
type = Stem;
},
{
origin = (2,5);
target = (1,5);
type = Stem;
},
{
origin = (4,11);
target = (0,2);
type = Stem;
},
{
origin = (0,8);
target = (4,5);
type = Stem;
}
);
layerId = "B06945F2-A2F9-4CD6-84EB-56F06A9D6A7E";
shapes = (
{
closed = 1;
nodes = (
(477,-63,o),
(468,-42,o),
(468,0,cs),
(468,41,o),
(477,62,o),
(495,62,cs),
(514,62,o),
(523,41,o),
(523,0,cs),
(523,-42,o),
(514,-63,o),
(495,-63,cs)
);
},
{
closed = 1;
nodes = (
(86,403,o),
(115,368,o),
(172,368,cs),
(229,368,o),
(258,403,o),
(258,474,cs),
(258,545,o),
(229,580,o),
(172,580,cs),
(115,580,o),
(86,545,o),
(86,474,cs)
);
},
{
closed = 1;
nodes = (
(144,515,o),
(153,536,o),
(172,536,cs),
(190,536,o),
(199,515,o),
(199,474,cs),
(199,433,o),
(190,412,o),
(172,412,cs),
(153,412,o),
(144,433,o),
(144,474,cs)
);
},
{
closed = 1;
nodes = (
(186,-112,l),
(294,-112,l),
(477,588,l),
(368,588,l)
);
},
{
closed = 1;
nodes = (
(409,-71,o),
(438,-107,o),
(495,-107,cs),
(552,-107,o),
(581,-71,o),
(581,0,cs),
(581,71,o),
(552,106,o),
(495,106,cs),
(438,106,o),
(409,71,o),
(409,0,cs)
);
}
);
width = 641;
}
);
note = percent;
unicode = 37;
},
{
glyphname = ampersand;
lastChange = "2023-01-06 21:19:04 +0000";
layers = (
{
hints = (
{
horizontal = 1;
origin = (0,34);
target = (1,6);
type = Stem;
},
{
horizontal = 1;
origin = (2,2);
target = (0,22);
type = Stem;
},
{
horizontal = 1;
origin = (0,6);
target = up;
type = BottomGhost;
},
{
origin = (0,31);
target = (1,9);
type = Stem;
},
{
origin = (2,5);
target = (0,19);
type = Stem;
},
{
origin = (0,12);
target = (0,11);
type = Stem;
},
{
origin = (0,25);
target = (2,15);
type = Stem;
}
);
layerId = m01;
shapes = (
{
closed = 1;
nodes = (
(275,-10,o),
(344,10,o),
(391,57,cs),
(393,59,o),
(395,61,o),
(396,64,c),
(450,0,l),
(537,0,l),
(447,107,l),
(482,159,o),
(503,220,o),
(509,291,c),
(440,292,l),
(435,243,o),
(420,200,o),
(397,163,c),
(238,358,l),
(331,425,o),
(378,464,o),
(378,549,cs),
(378,634,o),
(315,703,o),
(223,703,cs),
(127,703,o),
(54,628,o),
(54,539,cs),
(54,476,o),
(85,433,o),
(140,368,c),
(37,303,o),
(0,252,o),
(0,183,cs),
(3,74,o),
(79,-10,o),
(211,-10,cs)
);
},
{
closed = 1;
nodes = (
(81,232,o),
(106,262,o),
(183,319,c),
(349,117,l),
(316,80,o),
(272,60,o),
(216,58,c),
(137,61,o),
(81,111,o),
(81,183,cs)
);
},
{
closed = 1;
nodes = (
(124,590,o),
(168,633,o),
(223,633,cs),
(283,633,o),
(311,599,o),
(311,556,cs),
(311,517,o),
(286,471,o),
(241,436,cs),
(198,405,l),
(169,442,o),
(150,470,o),
(140,487,cs),
(129,504,o),
(124,521,o),
(124,538,cs)
);
}
);
width = 597;
},
{
hints = (
{
horizontal = 1;
origin = (0,31);
target = (1,9);
type = Stem;
},
{
horizontal = 1;
origin = (2,5);
target = (0,19);
type = Stem;
},
{
horizontal = 1;
origin = (0,3);
target = up;
type = BottomGhost;
},
{
horizontal = 1;
origin = (0,3);
target = (0,5);
type = Stem;
},
{
horizontal = 1;
origin = (1,6);
target = down;
type = TopGhost;
},
{
origin = (0,28);
target = (1,2);
type = Stem;
},
{
origin = (2,8);
target = (0,9);
type = Stem;
},
{
origin = (0,9);
target = (0,8);
type = Stem;
},
{
origin = (0,22);
target = (2,2);
type = Stem;
}
);
layerId = "EED8C670-EB0D-45AD-8912-54AB4C6FD6BA";
shapes = (
{
closed = 1;
nodes = (
(358,-9,o),
(424,11,o),
(472,48,c),
(512,0,l),
(686,0,l),
(566,137,l),
(606,204,o),
(614,256,o),
(623,344,c),
(488,346,l),
(484,303,o),
(482,282,o),
(468,247,c),
(361,372,l),
(449,433,o),
(488,484,o),
(488,561,cs),
(488,663,o),
(408,742,o),
(299,742,cs),
(186,742,o),
(97,657,o),
(97,552,cs),
(97,494,o),
(125,447,o),
(168,394,c),
(80,335,o),
(42,282,o),
(42,207,cs),
(44,83,o),
(140,-9,o),
(288,-9,cs)
);
},
{
closed = 1;
nodes = (
(233,121,o),
(189,158,o),
(189,208,cs),
(189,237,o),
(198,254,o),
(254,296,c),
(381,147,l),
(357,129,o),
(327,120,o),
(292,120,cs)
);
},
{
closed = 1;
nodes = (
(242,516,o),
(233,533,o),
(233,551,cs),
(233,584,o),
(263,613,o),
(299,613,cs),
(339,613,o),
(355,595,o),
(355,569,cs),
(355,530,o),
(327,499,o),
(280,467,c)
);
}
);
width = 683;
},
{
hints = (
{
horizontal = 1;
origin = (0,31);
target = (1,9);
type = Stem;
},
{
horizontal = 1;
origin = (1,6);
target = down;
type = TopGhost;
},
{
horizontal = 1;
origin = (2,5);
target = (0,19);
type = Stem;
},
{
horizontal = 1;
origin = (0,3);
target = up;
type = BottomGhost;
},
{
horizontal = 1;
origin = (0,5);
target = down;
type = TopGhost;
},
{
origin = (0,28);
target = (1,2);
type = Stem;
},
{
origin = (2,8);
target = (0,16);
type = Stem;
},
{
origin = (0,22);
target = (2,2);
type = Stem;
},
{
origin = (0,9);
target = (0,8);
type = Stem;
}
);
layerId = "B06945F2-A2F9-4CD6-84EB-56F06A9D6A7E";
shapes = (
{
closed = 1;
nodes = (
(350,-10,o),
(417,14,o),
(461,56,c),
(507,0,l),
(636,0,l),
(532,123,l),
(567,178,o),
(586,243,o),
(591,322,c),
(491,324,l),
(485,276,o),
(481,246,o),
(460,207,c),
(326,371,l),
(417,439,o),
(459,480,o),
(459,564,cs),
(459,661,o),
(385,734,o),
(288,734,cs),
(185,734,o),
(103,653,o),
(103,554,cs),
(103,495,o),
(133,446,o),
(181,387,c),
(84,322,o),
(49,271,o),
(49,198,cs),
(50,79,o),
(139,-10,o),
(276,-10,cs)
);
},
{
closed = 1;
nodes = (
(212,91,o),
(162,136,o),
(162,198,cs),
(162,238,o),
(178,260,o),
(245,312,c),
(393,133,l),
(363,105,o),
(326,91,o),
(281,90,cs)
);
},
{
closed = 1;
nodes = (
(218,506,o),
(205,527,o),
(205,553,cs),
(205,597,o),
(242,633,o),
(288,633,cs),
(321,633,o),
(359,615,o),
(359,572,cs),
(359,535,o),
(336,494,o),
(296,465,cs),
(266,442,l)
);
}
);
width = 640;
}
);
note = ampersand;
unicode = 38;
},
{
glyphname = quotesingle;
lastChange = "2023-01-06 21:19:04 +0000";
layers = (
{
hints = (
{
horizontal = 1;
origin = (0,9);
target = (0,5);
type = Stem;
},
{
place = (112.5, 62.5);
place = (112.5, 62.5);
type = Stem;
}
);
layerId = m01;
shapes = (
{
closed = 1;
nodes = (
(131,490,l),
(151,549,o),
(168,623,o),
(172,670,c),
(178,705,l),
(115,705,l),
(110,668,l),
(107,614,o),
(94,541,o),
(81,490,c)
);
}
);
width = 264;
},
{
hints = (
{
horizontal = 1;
origin = (0,9);
target = (0,5);
type = Stem;
},
{
place = (94.5, 101);
place = (94.5, 101);
type = Stem;
}
);
layerId = "EED8C670-EB0D-45AD-8912-54AB4C6FD6BA";
shapes = (
{
closed = 1;
nodes = (
(143,641,l),
(156,671,o),
(189,743,o),
(194,815,cs),
(197,844,l),
(95,844,l),
(94,815,ls),
(92,745,o),
(68,671,o),
(60,641,c)
);
}
);
width = 250;
},
{
hints = (
{
horizontal = 1;
origin = (0,9);
target = (0,5);
type = Stem;
},
{
place = (94.5, 67.5);
place = (94.5, 67.5);
type = Stem;
}
);
layerId = "B06945F2-A2F9-4CD6-84EB-56F06A9D6A7E";
shapes = (
{
closed = 1;
nodes = (
(123,545,l),
(133,571,o),
(156,632,o),
(161,688,cs),
(163,711,l),
(95,711,l),
(94,687,ls),
(91,630,o),
(73,571,o),
(67,545,c)
);
}
);
width = 219;
}
);
note = quotesingle;
unicode = 39;
},
{
glyphname = parenleft;
lastChange = "2023-01-06 21:19:04 +0000";
layers = (
{
layerId = m01;
shapes = (
{
closed = 1;
nodes = (
(186,-77,l),
(115,54,o),
(80,192,o),
(80,337,cs),
(80,482,o),
(115,621,o),
(186,752,c),
(110,752,l),
(37,623,o),
(0,485,o),
(0,337,cs),
(0,192,o),
(35,51,o),
(110,-77,c)
);
}
);
width = 246;
},
{
hints = (
{
horizontal = 1;
origin = (0,15);
target = (0,9);
type = Stem;
},
{
origin = (0,12);
target = (0,4);
type = Stem;
}
);
layerId = "EED8C670-EB0D-45AD-8912-54AB4C6FD6BA";
shapes = (
{
closed = 1;
nodes = (
(359,-71,l),
(332,-24,ls),
(268,89,o),
(231,230,o),
(231,364,cs),
(231,500,o),
(268,642,o),
(332,753,cs),
(359,800,l),
(221,800,l),
(140,664,o),
(99,533,o),
(99,364,cs),
(99,196,o),
(140,65,o),
(221,-71,c)
);
}
);
width = 396;
},
{
layerId = "B06945F2-A2F9-4CD6-84EB-56F06A9D6A7E";
shapes = (
{
closed = 1;
nodes = (
(332,-157,l),
(257,-24,o),
(214,109,o),
(214,273,cs),
(214,440,o),
(257,573,o),
(332,704,c),
(219,704,l),
(142,572,o),
(102,436,o),
(102,273,cs),
(102,112,o),
(142,-25,o),
(219,-157,c)
);
}
);
width = 379;
}
);
note = parenleft;
unicode = 40;
},
{
glyphname = parenright;
lastChange = "2023-01-06 21:19:04 +0000";
layers = (
{
layerId = m01;
shapes = (
{
closed = 1;
nodes = (
(76,-77,l),
(149,52,o),
(186,190,o),
(186,338,cs),
(186,485,o),
(151,625,o),
(76,752,c),
(0,752,l),
(71,621,o),
(107,483,o),
(107,338,cs),
(107,193,o),
(71,55,o),
(0,-77,c)
);
}
);
width = 246;
},
{
hints = (
{
horizontal = 1;
origin = (0,0);
target = (0,8);
type = Stem;
},
{
origin = (0,12);
target = (0,4);
type = Stem;
}
);
layerId = "EED8C670-EB0D-45AD-8912-54AB4C6FD6BA";
shapes = (
{
closed = 1;
nodes = (
(37,-71,l),
(175,-71,l),
(256,65,o),
(297,196,o),
(297,364,cs),
(297,533,o),
(256,664,o),
(175,800,c),
(37,800,l),
(64,753,ls),
(128,642,o),
(165,500,o),
(165,364,cs),
(165,230,o),
(128,89,o),
(64,-24,cs)
);
}
);
width = 395;
},
{
hints = (
{
horizontal = 1;
origin = (0,14);
target = (0,7);
type = Stem;
},
{
origin = (0,11);
target = (0,3);
type = Stem;
}
);
layerId = "B06945F2-A2F9-4CD6-84EB-56F06A9D6A7E";
shapes = (
{
closed = 1;
nodes = (
(160,-157,l),
(237,-25,o),
(277,112,o),
(277,273,cs),
(277,436,o),
(237,572,o),
(160,704,c),
(47,704,l),
(61,681,ls),
(127,564,o),
(165,416,o),
(165,273,cs),
(165,109,o),
(122,-24,o),
(47,-157,c)
);
}
);
width = 379;
}
);
note = parenright;
unicode = 41;
},
{
glyphname = asterisk;
lastChange = "2023-01-06 21:19:04 +0000";
layers = (
{
hints = (
{
horizontal = 1;
origin = (0,9);
target = down;
type = TopGhost;
},
{
place = (233.5, 46.5);
place = (233.5, 46.5);
type = Stem;
}
);
layerId = m01;
shapes = (
{
closed = 1;
nodes = (
(282,302,l),
(278,452,l),
(407,374,l),
(433,417,l),
(300,489,l),
(433,561,l),
(407,606,l),
(278,527,l),
(282,678,l),
(232,678,l),
(235,527,l),
(106,606,l),
(81,561,l),
(213,489,l),
(81,417,l),
(106,374,l),
(235,452,l),
(232,302,l)
);
}
);
width = 513;
},
{
hints = (
{
horizontal = 1;
origin = (0,9);
target = down;
type = TopGhost;
},
{
place = (236, 2000);
place = (236, 2000);
type = Stem;
}
);
layerId = "EED8C670-EB0D-45AD-8912-54AB4C6FD6BA";
shapes = (
{
closed = 1;
nodes = (
(333,401,l),
(330,505,l),
(420,451,l),
(470,536,l),
(377,586,l),
(470,636,l),
(420,722,l),
(330,667,l),
(333,772,l),
(235,772,l),
(237,667,l),
(146,722,l),
(98,636,l),
(190,586,l),
(98,536,l),
(146,451,l),
(237,505,l),
(235,401,l)
);
}
);
width = 569;
},
{
hints = (
{
horizontal = 1;
origin = (0,10);
target = down;
type = TopGhost;
},
{
place = (189.5, 59.5);
place = (189.5, 59.5);
type = Stem;
},
{
origin = (0,0);
target = (0,1);
type = Stem;
}
);
layerId = "B06945F2-A2F9-4CD6-84EB-56F06A9D6A7E";
shapes = (
{
closed = 1;
nodes = (
(190,412,l),
(248,412,l),
(250,499,l),
(322,454,l),
(351,506,l),
(282,548,l),
(351,590,l),
(322,641,l),
(248,597,l),
(248,684,l),
(190,684,l),
(190,597,l),
(116,641,l),
(87,590,l),
(157,548,l),
(87,506,l),
(116,454,l),
(189,499,l)
);
}
);
width = 437;
}
);
note = asterisk;
unicode = 42;
},
{
glyphname = plus;
lastChange = "2023-01-06 21:19:04 +0000";
layers = (
{
hints = (
{
horizontal = 1;
origin = (0,9);
target = (0,8);
type = Stem;
},
{
origin = (0,11);
target = (0,0);
type = Stem;
},
{
origin = (0,7);
target = (0,4);
type = Stem;
}
);
layerId = m01;
shapes = (
{
closed = 1;
nodes = (
(305,124,l),
(305,292,l),
(470,292,l),
(470,353,l),
(306,353,l),
(306,516,l),
(245,516,l),
(245,353,l),
(79,353,l),
(79,292,l),
(244,292,l),
(244,125,l)
);
}
);
width = 548;
},
{
hints = (
{
horizontal = 1;
origin = (0,9);
target = (0,8);
type = Stem;
},
{
origin = (0,11);
target = (0,0);
type = Stem;
},
{
origin = (0,7);
target = (0,4);
type = Stem;
}
);
layerId = "EED8C670-EB0D-45AD-8912-54AB4C6FD6BA";
shapes = (
{
closed = 1;
nodes = (
(369,130,l),
(369,298,l),
(534,298,l),
(534,424,l),
(370,424,l),
(370,587,l),
(244,587,l),
(244,424,l),
(78,424,l),
(78,298,l),
(243,298,l),
(243,132,l)
);
}
);
width = 612;
},
{
hints = (
{
horizontal = 1;
origin = (0,10);
target = (0,9);
type = Stem;
},
{
origin = (0,0);
target = (0,1);
type = Stem;
}
);
layerId = "B06945F2-A2F9-4CD6-84EB-56F06A9D6A7E";
shapes = (
{
closed = 1;
nodes = (
(236,130,l),
(325,130,l),
(325,285,l),
(478,285,l),
(478,372,l),
(325,372,l),
(325,519,l),
(236,519,l),
(236,372,l),
(79,372,l),
(79,285,l),
(236,285,l)
);
}
);
width = 557;
}
);
note = plus;
unicode = 43;
},
{
glyphname = comma;
lastChange = "2023-01-06 21:19:04 +0000";
layers = (
{
layerId = m01;
shapes = (
{
closed = 1;
nodes = (
(50,-132,l),
(70,-73,o),
(87,0,o),
(101,88,cs),
(107,123,l),
(44,123,l),
(39,86,ls),
(26,-8,o),
(13,-81,o),
(0,-132,c)
);
}
);
width = 167;
},
{
hints = (
{
horizontal = 1;
origin = (0,9);
target = (0,5);
type = Stem;
},
{
place = (110.5, 105);
place = (110.5, 105);
type = Stem;
}
);
layerId = "EED8C670-EB0D-45AD-8912-54AB4C6FD6BA";
shapes = (
{
closed = 1;
nodes = (
(162,-85,l),
(190,-42,o),
(213,36,o),
(215,92,cs),
(216,119,l),
(111,119,l),
(110,92,ls),
(108,28,o),
(90,-50,o),
(70,-85,c)
);
}
);
width = 308;
},
{
hints = (
{
horizontal = 1;
origin = (0,9);
target = (0,5);
type = Stem;
},
{
place = (77.5, 67.5);
place = (77.5, 67.5);
type = Stem;
}
);
layerId = "B06945F2-A2F9-4CD6-84EB-56F06A9D6A7E";
shapes = (
{
closed = 1;
nodes = (
(106,-99,l),
(116,-73,o),
(139,-12,o),
(144,44,cs),
(146,68,l),
(78,68,l),
(77,44,ls),
(74,-14,o),
(56,-73,o),
(50,-99,c)
);
}
);
width = 201;
}
);
note = comma;
unicode = 44;
},
{
glyphname = period;
kernLeft = .;
lastChange = "2023-01-06 21:19:04 +0000";
layers = (
{
hints = (
{
horizontal = 1;
origin = (0,11);
target = (0,5);
type = Stem;
},
{
origin = (0,8);
target = (0,2);
type = Stem;
}
);
layerId = m01;
shapes = (
{
closed = 1;
nodes = (
(157,-10,o),
(186,19,o),
(187,56,cs),
(187,92,o),
(157,121,o),
(121,121,cs),
(84,121,o),
(55,92,o),
(55,56,cs),
(58,19,o),
(84,-10,o),
(121,-10,cs)
);
}
);
width = 242;
},
{
hints = (
{
horizontal = 1;
origin = (0,11);
target = up;
type = BottomGhost;
},
{
horizontal = 1;
origin = (0,11);
target = (0,5);
type = Stem;
},
{
origin = (0,8);
target = (0,2);
type = Stem;
}
);
layerId = "EED8C670-EB0D-45AD-8912-54AB4C6FD6BA";
shapes = (
{
closed = 1;
nodes = (
(211,-12,o),
(253,27,o),
(255,77,cs),
(255,126,o),
(211,165,o),
(164,165,cs),
(117,165,o),
(75,127,o),
(75,79,cs),
(76,28,o),
(115,-12,o),
(164,-12,cs)
);
}
);
width = 330;
},
{
hints = (
{
horizontal = 1;
origin = (0,11);
target = (0,5);
type = Stem;
},
{
origin = (0,8);
target = (0,2);
type = Stem;
}
);
layerId = "B06945F2-A2F9-4CD6-84EB-56F06A9D6A7E";
shapes = (
{
closed = 1;
nodes = (
(145,-10,o),
(171,17,o),
(171,50,cs),
(171,81,o),
(143,106,o),
(113,106,cs),
(81,106,o),
(55,81,o),
(55,50,cs),
(56,17,o),
(78,-10,o),
(113,-10,cs)
);
}
);
width = 226;
}
);
note = period;
unicode = 46;
},
{
glyphname = slash;
lastChange = "2023-01-06 21:19:04 +0000";
layers = (
{
hints = (
{
horizontal = 1;
origin = (0,3);
target = (0,2);
type = Stem;
},
{
origin = (0,3);
target = (0,1);
type = Stem;
}
);
layerId = m01;
shapes = (
{
closed = 1;
nodes = (
(108,-51,l),
(302,718,l),
(229,718,l),
(36,-51,l)
);
}
);
width = 339;
},
{
hints = (
{
horizontal = 1;
origin = (0,3);
target = (0,2);
type = Stem;
},
{
origin = (0,3);
target = (0,1);
type = Stem;
}
);
layerId = "EED8C670-EB0D-45AD-8912-54AB4C6FD6BA";
shapes = (
{
closed = 1;
nodes = (
(198,-61,l),
(585,857,l),
(434,857,l),
(48,-61,l)
);
}
);
width = 634;
},
{
hints = (
{
horizontal = 1;
origin = (0,1);
target = up;
type = BottomGhost;
},
{
horizontal = 1;
origin = (0,0);
target = down;
type = TopGhost;
},
{
origin = (0,1);
target = (0,3);
type = Stem;
}
);
layerId = "B06945F2-A2F9-4CD6-84EB-56F06A9D6A7E";
shapes = (
{
closed = 1;
nodes = (
(222,689,l),
(40,-11,l),
(148,-11,l),
(331,689,l)
);
}
);
width = 372;
}
);
note = slash;
unicode = 47;
},
{
glyphname = zero;
lastChange = "2023-01-06 21:19:04 +0000";
layers = (
{
hints = (
{
horizontal = 1;
origin = (0,11);
target = (1,17);
type = Stem;
},
{
horizontal = 1;
origin = (1,5);
target = (0,5);
type = Stem;
},
{
origin = (0,8);
target = (1,23);
type = Stem;
},
{
origin = (1,11);
target = (0,2);
type = Stem;
}
);
layerId = m01;
shapes = (
{
closed = 1;
nodes = (
(480,-12,o),
(567,126,o),
(567,339,cs),
(567,550,o),
(480,684,o),
(313,684,cs),
(148,684,o),
(60,550,o),
(60,339,cs),
(60,126,o),
(148,-12,o),
(313,-12,cs)
);
},
{
closed = 1;
nodes = (
(146,438,o),
(165,525,o),
(214,575,cs),
(239,600,o),
(272,612,o),
(313,612,cs),
(397,612,o),
(444,558,o),
(465,475,cs),
(475,434,o),
(480,388,o),
(480,339,cs),
(480,242,o),
(461,152,o),
(413,100,cs),
(388,74,o),
(355,61,o),
(313,61,cs),
(230,61,o),
(182,118,o),
(162,203,cs),
(151,245,o),
(146,290,o),
(146,339,cs)
);
}
);
width = 627;
},
{
hints = (
{
horizontal = 1;
origin = (0,11);
target = (1,11);
type = Stem;
},
{
horizontal = 1;
origin = (1,5);
target = (0,5);
type = Stem;
},
{
origin = (0,8);
target = (1,2);
type = Stem;
},
{
origin = (1,8);
target = (0,2);
type = Stem;
}
);
layerId = "EED8C670-EB0D-45AD-8912-54AB4C6FD6BA";
shapes = (
{
closed = 1;
nodes = (
(508,-11,o),
(617,130,o),
(617,373,cs),
(617,613,o),
(507,750,o),
(331,750,cs),
(155,750,o),
(45,613,o),
(45,373,cs),
(45,130,o),
(154,-11,o),
(331,-11,cs)
);
},
{
closed = 1;
nodes = (
(213,127,o),
(196,281,o),
(196,373,cs),
(196,521,o),
(237,613,o),
(331,613,cs),
(425,613,o),
(465,521,o),
(465,373,cs),
(465,281,o),
(448,127,o),
(331,127,cs)
);
}
);
width = 662;
},
{
layerId = "B06945F2-A2F9-4CD6-84EB-56F06A9D6A7E";
shapes = (
{
closed = 1;
nodes = (
(462,-13,o),
(557,111,o),
(557,329,cs),
(557,542,o),
(462,665,o),
(306,665,cs),
(150,665,o),
(55,542,o),
(55,329,cs),
(55,111,o),
(150,-13,o),
(306,-13,cs)
);
},
{
closed = 1;
nodes = (
(165,476,o),
(209,568,o),
(306,568,cs),
(402,568,o),
(446,477,o),
(446,329,cs),
(446,238,o),
(428,85,o),
(306,85,cs),
(183,85,o),
(165,238,o),
(165,329,cs)
);
}
);
width = 612;
}
);
note = zero;
unicode = 48;
},
{
glyphname = one;
lastChange = "2023-01-06 21:19:04 +0000";
layers = (
{
hints = (
{
horizontal = 1;
origin = (0,6);
target = up;
type = BottomGhost;
},
{
place = (175.5, 85.5);
place = (175.5, 85.5);
type = Stem;
}
);
layerId = m01;
shapes = (
{
closed = 1;
nodes = (
(261,0,l),
(261,680,l),
(203,680,l),
(32,593,l),
(57,517,l),
(176,596,l),
(175,0,l)
);
}
);
width = 324;
},
{
layerId = "EED8C670-EB0D-45AD-8912-54AB4C6FD6BA";
shapes = (
{
closed = 1;
nodes = (
(322,-1,l),
(322,744,l),
(223,744,l),
(21,641,l),
(67,498,l),
(172,567,l),
(171,-1,l)
);
}
);
width = 373;
},
{
layerId = "B06945F2-A2F9-4CD6-84EB-56F06A9D6A7E";
shapes = (
{
closed = 1;
nodes = (
(169,-3,l),
(281,-3,l),
(281,675,l),
(206,675,l),
(29,585,l),
(63,481,l),
(169,552,l)
);
}
);
width = 341;
}
);
note = one;
unicode = 49;
},
{
glyphname = two;
lastChange = "2023-01-06 21:19:04 +0000";
layers = (
{
hints = (
{
horizontal = 1;
place = (0, 2000);
place = (0, 2000);
type = Stem;
},
{
horizontal = 1;
origin = (0,15);
target = (0,8);
type = Stem;
},
{
origin = (0,21);
target = (0,5);
type = Stem;
}
);
layerId = m01;
shapes = (
{
closed = 1;
nodes = (
(473,0,l),
(473,69,l),
(146,70,l),
(382,275,o),
(461,355,o),
(461,492,cs),
(461,608,o),
(381,686,o),
(249,686,cs),
(165,686,o),
(99,666,o),
(38,635,c),
(55,574,l),
(126,607,o),
(180,617,o),
(232,617,cs),
(275,617,o),
(324,603,o),
(353,564,cs),
(368,544,o),
(375,516,o),
(375,481,cs),
(375,430,o),
(350,374,o),
(301,315,cs),
(252,255,o),
(164,172,o),
(38,67,c),
(38,0,l)
);
}
);
width = 523;
},
{
layerId = "EED8C670-EB0D-45AD-8912-54AB4C6FD6BA";
shapes = (
{
closed = 1;
nodes = (
(548,-1,l),
(548,133,l),
(273,134,l),
(458,301,o),
(536,381,o),
(536,524,cs),
(536,659,o),
(441,751,o),
(292,751,cs),
(194,751,o),
(134,730,o),
(42,684,c),
(76,559,l),
(159,599,o),
(200,616,o),
(275,616,cs),
(308,616,o),
(385,606,o),
(385,513,cs),
(385,421,o),
(304,330,o),
(48,114,c),
(48,-1,l)
);
}
);
width = 583;
},
{
layerId = "B06945F2-A2F9-4CD6-84EB-56F06A9D6A7E";
shapes = (
{
closed = 1;
nodes = (
(42,-3,l),
(483,-3,l),
(483,92,l),
(198,93,l),
(412,285,o),
(472,350,o),
(472,477,cs),
(472,595,o),
(389,675,o),
(256,675,cs),
(174,675,o),
(116,657,o),
(39,620,c),
(63,532,l),
(131,565,o),
(174,580,o),
(240,580,cs),
(269,580,o),
(360,572,o),
(360,466,cs),
(360,378,o),
(296,297,o),
(42,82,c)
);
}
);
width = 528;
}
);
note = two;
unicode = 50;
},
{
glyphname = three;
lastChange = "2023-01-06 21:19:04 +0000";
layers = (
{
hints = (
{
horizontal = 1;
origin = (0,46);
target = (0,39);
type = Stem;
},
{
horizontal = 1;
origin = (0,42);
target = down;
type = TopGhost;
},
{
horizontal = 1;
origin = (0,29);
target = (0,28);
type = Stem;
},
{
horizontal = 1;
origin = (0,18);
target = (0,11);
type = Stem;
},
{
origin = (0,24);
target = (0,8);
type = Stem;
},
{
origin = (0,33);
target = (0,2);
type = Stem;
}
);
layerId = m01;
shapes = (
{
closed = 1;
nodes = (
(402,-12,o),
(489,53,o),
(489,176,cs),
(489,263,o),
(430,334,o),
(315,350,c),
(404,361,o),
(468,415,o),
(468,506,cs),
(468,625,o),
(382,684,o),
(254,684,cs),
(185,684,o),
(112,671,o),
(44,636,c),
(63,574,l),
(117,602,o),
(176,616,o),
(239,616,cs),
(322,616,o),
(359,585,o),
(372,547,cs),
(379,528,o),
(382,510,o),
(382,495,cs),
(382,426,o),
(322,369,o),
(225,369,cs),
(145,369,l),
(145,303,l),
(229,303,ls),
(343,302,o),
(400,261,o),
(400,182,cs),
(400,153,o),
(391,108,o),
(346,79,cs),
(323,64,o),
(288,57,o),
(240,57,cs),
(171,57,o),
(103,72,o),
(36,102,c),
(36,36,l),
(93,4,o),
(164,-12,o),
(250,-12,cs)
);
}
);
width = 549;
},
{
layerId = "EED8C670-EB0D-45AD-8912-54AB4C6FD6BA";
shapes = (
{
closed = 1;
nodes = (
(451,-11,o),
(552,67,o),
(552,210,cs),
(552,288,o),
(513,350,o),
(448,385,c),
(500,419,o),
(531,473,o),
(531,539,cs),
(531,668,o),
(440,750,o),
(285,750,cs),
(182,750,o),
(119,729,o),
(35,686,c),
(73,561,l),
(151,599,o),
(193,617,o),
(270,617,cs),
(344,617,o),
(380,588,o),
(380,529,cs),
(380,474,o),
(328,435,o),
(256,435,cs),
(143,435,l),
(143,304,l),
(260,304,ls),
(347,304,o),
(398,278,o),
(398,216,cs),
(398,153,o),
(357,123,o),
(271,123,cs),
(178,123,o),
(124,146,o),
(34,187,c),
(34,51,l),
(99,12,o),
(170,-11,o),
(281,-11,cs)
);
}
);
width = 597;
},
{
layerId = "B06945F2-A2F9-4CD6-84EB-56F06A9D6A7E";
shapes = (
{
closed = 1;
nodes = (
(398,-13,o),
(489,51,o),
(489,177,cs),
(489,253,o),
(445,312,o),
(372,339,c),
(432,365,o),
(469,415,o),
(469,484,cs),
(469,596,o),
(391,665,o),
(255,665,cs),
(171,665,o),
(110,647,o),
(41,613,c),
(68,526,l),
(129,556,o),
(174,572,o),
(241,572,cs),
(339,572,o),
(360,519,o),
(360,474,cs),
(360,414,o),
(304,371,o),
(228,371,cs),
(139,371,l),
(139,280,l),
(232,280,ls),
(325,280,o),
(376,248,o),
(376,183,cs),
(376,115,o),
(332,81,o),
(242,81,cs),
(165,81,o),
(110,98,o),
(37,131,c),
(37,38,l),
(91,6,o),
(160,-13,o),
(251,-13,cs)
);
}
);
width = 544;
}
);
note = three;
unicode = 51;
},
{
glyphname = four;
lastChange = "2023-01-06 21:19:04 +0000";
layers = (
{
hints = (
{
horizontal = 1;
origin = (0,10);
target = up;
type = BottomGhost;
},
{
horizontal = 1;
origin = (0,8);
target = (1,0);
type = Stem;
},
{
origin = (0,10);
target = (0,0);
type = Stem;
},
{
place = (357, 84);
place = (357, 84);
type = Stem;
}
);
layerId = m01;
shapes = (
{
closed = 1;
nodes = (
(441,0,l),
(441,174,l),
(530,174,l),
(530,245,l),
(441,245,l),
(441,677,l),
(339,677,l),
(37,243,l),
(37,174,l),
(356,174,l),
(356,0,l)
);
},
{
closed = 1;
nodes = (
(125,245,l),
(358,582,l),
(356,245,l)
);
}
);
width = 567;
},
{
hints = (
{
horizontal = 1;
origin = (0,10);
target = up;
type = BottomGhost;
},
{
horizontal = 1;
origin = (0,8);
target = (1,1);
type = Stem;
},
{
origin = (0,10);
target = (0,0);
type = Stem;
},
{
place = (348.5, 150.5);
place = (348.5, 150.5);
type = Stem;
}
);
layerId = "EED8C670-EB0D-45AD-8912-54AB4C6FD6BA";
shapes = (
{
closed = 1;
nodes = (
(499,-1,l),
(499,173,l),
(587,173,l),
(587,309,l),
(499,309,l),
(499,741,l),
(346,741,l),
(29,284,l),
(29,173,l),
(348,173,l),
(348,-1,l)
);
},
{
closed = 1;
nodes = (
(348,309,l),
(211,309,l),
(349,508,l)
);
}
);
width = 615;
},
{
layerId = "B06945F2-A2F9-4CD6-84EB-56F06A9D6A7E";
shapes = (
{
closed = 1;
nodes = (
(339,-3,l),
(451,-3,l),
(451,163,l),
(536,163,l),
(536,262,l),
(451,262,l),
(451,675,l),
(330,675,l),
(34,249,l),
(34,163,l),
(339,163,l)
);
},
{
closed = 1;
nodes = (
(162,262,l),
(340,520,l),
(339,262,l)
);
}
);
width = 570;
}
);
note = four;
unicode = 52;
},
{
glyphname = five;
lastChange = "2023-01-06 21:19:04 +0000";
layers = (
{
hints = (
{
horizontal = 1;
origin = (0,23);
target = (0,16);
type = Stem;
},
{
horizontal = 1;
origin = (0,19);
target = down;
type = TopGhost;
},
{
horizontal = 1;
origin = (0,10);
target = (0,5);
type = Stem;
},
{
horizontal = 1;
origin = (0,6);
target = (0,9);
type = Stem;
},
{
place = (83.5, 75.5);
place = (83.5, 75.5);
type = Stem;
},
{
origin = (0,13);
target = (0,2);
type = Stem;
}
);
layerId = m01;
shapes = (
{
closed = 1;
nodes = (
(401,-12,o),
(494,73,o),
(494,196,cs),
(494,355,o),
(372,422,o),
(153,427,c),
(165,605,l),
(428,605,l),
(454,674,l),
(90,674,l),
(77,359,l),
(302,356,o),
(408,310,o),
(408,195,cs),
(408,114,o),
(351,57,o),
(250,57,cs),
(191,57,o),
(116,68,o),
(45,107,c),
(45,39,l),
(104,5,o),
(174,-12,o),
(254,-12,cs)
);
}
);
width = 544;
},
{
hints = (
{
horizontal = 1;
origin = (0,25);
target = (0,17);
type = Stem;
},
{
horizontal = 1;
origin = (0,10);
target = (0,5);
type = Stem;
},
{
horizontal = 1;
origin = (0,6);
target = (0,9);
type = Stem;
},
{
place = (74.5, 141);
place = (74.5, 141);
type = Stem;
},
{
origin = (0,14);
target = (0,2);
type = Stem;
}
);
layerId = "EED8C670-EB0D-45AD-8912-54AB4C6FD6BA";
shapes = (
{
closed = 1;
nodes = (
(442,-11,o),
(550,89,o),
(550,230,cs),
(550,382,o),
(450,478,o),
(212,492,c),
(219,606,l),
(474,606,l),
(525,741,l),
(83,741,l),
(66,360,l),
(100,360,ls),
(363,356,o),
(399,292,o),
(399,229,cs),
(399,162,o),
(353,123,o),
(274,123,cs),
(225,123,o),
(152,131,o),
(85,169,cs),
(36,197,l),
(36,53,l),
(114,11,o),
(181,-11,o),
(278,-11,cs)
);
}
);
width = 585;
},
{
layerId = "B06945F2-A2F9-4CD6-84EB-56F06A9D6A7E";
shapes = (
{
closed = 1;
nodes = (
(398,-13,o),
(496,71,o),
(496,198,cs),
(496,339,o),
(400,421,o),
(176,431,c),
(185,570,l),
(429,570,l),
(466,665,l),
(86,665,l),
(71,337,l),
(291,334,o),
(385,298,o),
(385,198,cs),
(385,125,o),
(335,82,o),
(251,82,cs),
(203,82,o),
(131,90,o),
(64,128,cs),
(42,140,l),
(42,42,l),
(108,6,o),
(173,-13,o),
(255,-13,cs)
);
}
);
width = 541;
}
);
note = five;
unicode = 53;
},
{
glyphname = six;
lastChange = "2023-01-06 21:19:04 +0000";
layers = (
{
hints = (
{
horizontal = 1;
origin = (0,30);
target = (1,11);
type = Stem;
},
{
horizontal = 1;
origin = (1,2);
target = (0,5);
type = Stem;
},
{
horizontal = 1;
origin = (0,11);
target = (0,18);
type = Stem;
},
{
origin = (0,24);
target = (0,8);
type = Stem;
},
{
origin = (1,8);
target = (0,2);
type = Stem;
},
{
origin = (0,24);
target = (1,17);
type = Stem;
}
);
layerId = m01;
shapes = (
{
closed = 1;
nodes = (
(430,-12,o),
(524,81,o),
(524,221,cs),
(524,370,o),
(440,453,o),
(312,453,cs),
(247,453,o),
(191,423,o),
(144,364,c),
(150,464,o),
(197,616,o),
(350,616,cs),
(397,616,o),
(447,608,o),
(500,592,c),
(504,655,l),
(460,670,o),
(417,684,o),
(349,684,cs),
(234,684,o),
(145,632,o),
(97,520,cs),
(72,463,o),
(60,390,o),
(60,301,cs),
(60,194,o),
(85,93,o),
(154,33,cs),
(189,3,o),
(237,-12,o),
(299,-12,cs)
);
},
{
closed = 1;
nodes = (
(189,355,o),
(238,384,o),
(293,384,cs),
(373,384,o),
(414,345,o),
(430,293,cs),
(438,267,o),
(442,242,o),
(442,218,cs),
(442,122,o),
(383,57,o),
(299,57,cs),
(212,57,o),
(172,106,o),
(157,179,cs),
(150,215,o),
(146,254,o),
(146,296,c)
);
}
);
width = 584;
},
{
hints = (
{
horizontal = 1;
origin = (0,24);
target = (1,14);
type = Stem;
},
{
horizontal = 1;
origin = (1,8);
target = (0,5);
type = Stem;
},
{
horizontal = 1;
origin = (0,15);
target = down;
type = TopGhost;
},
{
horizontal = 1;
origin = (0,11);
target = (0,18);
type = Stem;
},
{
origin = (0,21);
target = (1,5);
type = Stem;
},
{
origin = (1,11);
target = (0,2);
type = Stem;
}
);
layerId = "EED8C670-EB0D-45AD-8912-54AB4C6FD6BA";
shapes = (
{
closed = 1;
nodes = (
(464,-11,o),
(574,95,o),
(574,254,cs),
(574,416,o),
(481,519,o),
(329,519,cs),
(288,519,o),
(247,507,o),
(211,485,c),
(238,571,o),
(289,617,o),
(368,617,cs),
(432,617,o),
(457,610,o),
(547,582,c),
(555,711,l),
(491,732,o),
(461,750,o),
(367,750,cs),
(171,750,o),
(45,615,o),
(45,334,cs),
(45,122,o),
(137,-11,o),
(316,-11,cs)
);
},
{
closed = 1;
nodes = (
(268,123,o),
(237,141,o),
(219,180,cs),
(200,220,o),
(196,275,o),
(196,319,c),
(227,360,o),
(270,385,o),
(310,385,cs),
(388,385,o),
(427,340,o),
(427,251,cs),
(427,176,o),
(381,123,o),
(316,123,cs)
);
}
);
width = 619;
},
{
layerId = "B06945F2-A2F9-4CD6-84EB-56F06A9D6A7E";
shapes = (
{
closed = 1;
nodes = (
(421,-13,o),
(516,79,o),
(516,219,cs),
(516,360,o),
(437,449,o),
(304,449,cs),
(255,449,o),
(207,430,o),
(169,396,c),
(174,426,o),
(185,462,o),
(203,493,cs),
(234,545,o),
(280,572,o),
(340,572,cs),
(393,572,o),
(421,567,o),
(493,544,c),
(498,633,l),
(447,650,o),
(413,665,o),
(339,665,cs),
(165,665,o),
(55,544,o),
(55,293,cs),
(55,105,o),
(133,-13,o),
(292,-13,cs)
);
},
{
closed = 1;
nodes = (
(196,328,o),
(243,356,o),
(286,356,cs),
(389,356,o),
(410,280,o),
(410,216,cs),
(410,136,o),
(362,81,o),
(292,81,cs),
(241,81,o),
(207,101,o),
(187,143,cs),
(168,184,o),
(165,239,o),
(165,284,c)
);
}
);
width = 571;
}
);
note = six;
unicode = 54;
},
{
glyphname = seven;
lastChange = "2023-01-06 21:19:04 +0000";
layers = (
{
hints = (
{
horizontal = 1;
origin = (0,6);
target = up;
type = BottomGhost;
},
{
horizontal = 1;
place = (608.5, 68.5);
place = (608.5, 68.5);
type = Stem;
},
{
origin = (0,4);
target = (0,1);
type = Stem;
}
);
layerId = m01;
shapes = (
{
closed = 1;
nodes = (
(172,0,l),
(434,622,l),
(434,677,l),
(30,677,l),
(30,608,l),
(350,609,l),
(88,0,l)
);
}
);
width = 464;
},
{
hints = (
{
horizontal = 1;
origin = (0,6);
target = up;
type = BottomGhost;
},
{
horizontal = 1;
place = (606.5, 134.5);
place = (606.5, 134.5);
type = Stem;
},
{
origin = (0,4);
target = (0,1);
type = Stem;
}
);
layerId = "EED8C670-EB0D-45AD-8912-54AB4C6FD6BA";
shapes = (
{
closed = 1;
nodes = (
(221,-1,l),
(495,647,l),
(495,741,l),
(25,741,l),
(25,606,l),
(328,607,l),
(66,-1,l)
);
}
);
width = 520;
},
{
layerId = "B06945F2-A2F9-4CD6-84EB-56F06A9D6A7E";
shapes = (
{
closed = 1;
nodes = (
(77,-3,l),
(190,-3,l),
(446,605,l),
(446,675,l),
(29,675,l),
(29,578,l),
(326,579,l)
);
}
);
width = 475;
}
);
note = seven;
unicode = 55;
},
{
glyphname = eight;
lastChange = "2023-01-06 21:19:04 +0000";
layers = (
{
hints = (
{
horizontal = 1;
origin = (0,23);
target = (1,14);
type = Stem;
},
{
horizontal = 1;
origin = (2,5);
target = (0,11);
type = Stem;
},
{
origin = (0,20);
target = (1,2);
type = Stem;
},
{
origin = (1,11);
target = (0,2);
type = Stem;
},
{
origin = (0,14);
target = (2,2);
type = Stem;
},
{
origin = (2,11);
target = (0,8);
type = Stem;
}
);
layerId = m01;
shapes = (
{
closed = 1;
nodes = (
(445,-12,o),
(544,53,o),
(544,174,cs),
(544,263,o),
(478,315,o),
(380,354,c),
(468,389,o),
(525,433,o),
(525,516,cs),
(525,620,o),
(431,684,o),
(303,684,cs),
(170,684,o),
(76,620,o),
(76,512,cs),
(76,427,o),
(140,375,o),
(221,346,c),
(125,311,o),
(57,255,o),
(57,167,cs),
(57,47,o),
(155,-12,o),
(300,-12,cs)
);
},
{
closed = 1;
nodes = (
(196,54,o),
(145,101,o),
(145,174,cs),
(145,248,o),
(215,288,o),
(290,312,c),
(343,293,o),
(397,272,o),
(429,237,cs),
(445,220,o),
(453,198,o),
(453,171,cs),
(453,99,o),
(401,54,o),
(300,54,cs)
);
},
{
closed = 1;
nodes = (
(217,412,o),
(166,450,o),
(166,511,cs),
(166,588,o),
(235,618,o),
(301,618,cs),
(340,618,o),
(387,607,o),
(417,575,cs),
(432,559,o),
(439,537,o),
(439,509,cs),
(439,445,o),
(384,411,o),
(309,387,c)
);
}
);
width = 602;
},
{
hints = (
{
horizontal = 1;
origin = (0,23);
target = (2,11);
type = Stem;
},
{
horizontal = 1;
origin = (1,8);
target = (0,11);
type = Stem;
},
{
origin = (0,20);
target = (2,2);
type = Stem;
},
{
origin = (2,8);
target = (0,2);
type = Stem;
},
{
origin = (0,14);
target = (1,2);
type = Stem;
},
{
origin = (1,14);
target = (0,8);
type = Stem;
}
);
layerId = "EED8C670-EB0D-45AD-8912-54AB4C6FD6BA";
shapes = (
{
closed = 1;
nodes = (
(488,-11,o),
(592,74,o),
(592,208,cs),
(592,282,o),
(555,341,o),
(470,388,c),
(520,417,o),
(573,465,o),
(573,549,cs),
(573,672,o),
(465,750,o),
(318,750,cs),
(161,750,o),
(59,668,o),
(59,545,cs),
(59,478,o),
(94,421,o),
(160,380,c),
(81,336,o),
(40,277,o),
(40,200,cs),
(40,72,o),
(141,-11,o),
(315,-11,cs)
);
},
{
closed = 1;
nodes = (
(226,483,o),
(215,519,o),
(215,544,cs),
(215,575,o),
(229,596,o),
(259,608,cs),
(284,619,o),
(311,619,o),
(316,619,cs),
(325,619,o),
(354,618,o),
(380,607,cs),
(408,594,o),
(422,573,o),
(422,542,cs),
(422,518,o),
(410,487,o),
(324,455,c)
);
},
{
closed = 1;
nodes = (
(234,120,o),
(193,150,o),
(193,208,cs),
(193,250,o),
(231,285,o),
(305,311,c),
(388,281,o),
(436,254,o),
(436,205,cs),
(436,149,o),
(396,120,o),
(315,120,cs)
);
}
);
width = 633;
},
{
layerId = "B06945F2-A2F9-4CD6-84EB-56F06A9D6A7E";
shapes = (
{
closed = 1;
nodes = (
(444,-13,o),
(535,59,o),
(535,175,cs),
(535,247,o),
(496,299,o),
(404,343,c),
(463,371,o),
(517,413,o),
(517,493,cs),
(517,598,o),
(424,665,o),
(296,665,cs),
(159,665,o),
(69,595,o),
(69,489,cs),
(69,424,o),
(108,371,o),
(181,335,c),
(94,295,o),
(52,240,o),
(52,168,cs),
(52,55,o),
(143,-13,o),
(293,-13,cs)
);
},
{
closed = 1;
nodes = (
(163,223,o),
(204,261,o),
(283,287,c),
(356,262,o),
(421,233,o),
(421,173,cs),
(421,113,o),
(377,78,o),
(293,78,cs),
(234,78,o),
(163,95,o),
(163,175,cs)
);
},
{
closed = 1;
nodes = (
(184,571,o),
(282,574,o),
(294,574,cs),
(302,574,o),
(332,573,o),
(359,561,cs),
(391,546,o),
(407,521,o),
(407,487,cs),
(407,445,o),
(375,415,o),
(301,389,c),
(221,411,o),
(184,443,o),
(184,489,cs)
);
}
);
width = 587;
}
);
note = eight;
unicode = 56;
},
{
glyphname = nine;
lastChange = "2023-01-06 21:19:04 +0000";
layers = (
{
hints = (
{
horizontal = 1;
origin = (0,30);
target = (0,23);
type = Stem;
},
{
horizontal = 1;
origin = (0,17);
target = (1,11);
type = Stem;
},
{
horizontal = 1;
origin = (1,2);
target = (0,11);
type = Stem;
},
{
origin = (0,14);
target = (1,17);
type = Stem;
},
{
origin = (0,20);
target = (0,5);
type = Stem;
},
{
origin = (1,8);
target = (0,5);
type = Stem;
}
);
layerId = m01;
shapes = (
{
closed = 1;
nodes = (
(348,-12,o),
(439,40,o),
(488,153,cs),
(512,210,o),
(524,283,o),
(524,372,cs),
(524,479,o),
(498,580,o),
(429,640,cs),
(394,669,o),
(346,684,o),
(285,684,cs),
(153,684,o),
(60,592,o),
(60,452,cs),
(60,301,o),
(145,220,o),
(272,220,cs),
(337,220,o),
(394,250,o),
(442,310,c),
(434,213,o),
(392,55,o),
(234,55,cs),
(187,55,o),
(136,63,o),
(80,78,c),
(80,14,l),
(124,-2,o),
(167,-12,o),
(235,-12,cs)
);
},
{
closed = 1;
nodes = (
(143,550,o),
(201,615,o),
(285,615,cs),
(372,615,o),
(412,567,o),
(427,495,cs),
(434,458,o),
(438,419,o),
(438,377,c),
(395,317,o),
(346,287,o),
(291,287,cs),
(210,287,o),
(170,328,o),
(155,380,cs),
(147,406,o),
(143,431,o),
(143,455,cs)
);
}
);
width = 584;
},
{
hints = (
{
horizontal = 1;
origin = (0,24);
target = (0,17);
type = Stem;
},
{
horizontal = 1;
origin = (0,20);
target = down;
type = TopGhost;
},
{
horizontal = 1;
origin = (0,11);
target = (1,11);
type = Stem;
},
{
horizontal = 1;
origin = (1,5);
target = (0,5);
type = Stem;
},
{
origin = (0,8);
target = (1,2);
type = Stem;
},
{
origin = (1,8);
target = (0,2);
type = Stem;
}
);
layerId = "EED8C670-EB0D-45AD-8912-54AB4C6FD6BA";
shapes = (
{
closed = 1;
nodes = (
(447,-11,o),
(574,125,o),
(574,405,cs),
(574,617,o),
(483,750,o),
(302,750,cs),
(155,750,o),
(45,645,o),
(45,485,cs),
(45,324,o),
(138,221,o),
(290,221,cs),
(331,221,o),
(372,232,o),
(409,254,c),
(387,186,o),
(343,121,o),
(251,121,cs),
(197,121,o),
(159,130,o),
(65,153,c),
(65,24,l),
(122,5,o),
(159,-11,o),
(252,-11,cs)
);
},
{
closed = 1;
nodes = (
(232,353,o),
(193,398,o),
(193,488,cs),
(193,566,o),
(236,616,o),
(302,616,cs),
(388,616,o),
(421,560,o),
(423,420,c),
(392,379,o),
(348,353,o),
(308,353,cs)
);
}
);
width = 619;
},
{
layerId = "B06945F2-A2F9-4CD6-84EB-56F06A9D6A7E";
shapes = (
{
closed = 1;
nodes = (
(406,-13,o),
(516,108,o),
(516,359,cs),
(516,546,o),
(439,665,o),
(279,665,cs),
(150,665,o),
(55,573,o),
(55,433,cs),
(55,290,o),
(136,203,o),
(267,203,cs),
(317,203,o),
(365,222,o),
(404,256,c),
(389,179,o),
(347,79,o),
(231,79,cs),
(186,79,o),
(147,86,o),
(73,104,c),
(73,15,l),
(119,0,o),
(159,-13,o),
(232,-13,cs)
);
},
{
closed = 1;
nodes = (
(162,517,o),
(209,571,o),
(279,571,cs),
(369,571,o),
(406,512,o),
(406,368,c),
(375,323,o),
(328,295,o),
(285,295,cs),
(183,295,o),
(162,372,o),
(162,436,cs)
);
}
);
width = 571;
}
);
note = nine;
unicode = 57;
},
{
glyphname = colon;
lastChange = "2023-01-06 21:19:04 +0000";
layers = (
{
layerId = m01;
shapes = (
{
closed = 1;
nodes = (
(157,291,o),
(178,311,o),
(178,338,cs),
(178,363,o),
(157,385,o),
(130,385,cs),
(103,385,o),
(83,363,o),
(83,338,cs),
(83,311,o),
(103,291,o),
(130,291,cs)
);
},
{
closed = 1;
nodes = (
(83,34,o),
(103,12,o),
(130,12,cs),
(157,12,o),
(178,34,o),
(178,59,cs),
(178,86,o),
(157,107,o),
(130,107,cs),
(103,107,o),
(83,86,o),
(83,59,cs)
);
}
);
width = 261;
},
{
guides = (
{
pos = (139,126);
}
);
hints = (
{
horizontal = 1;
origin = (1,11);
target = (1,5);
type = Stem;
},
{
horizontal = 1;
origin = (0,11);
target = (0,5);
type = Stem;
},
{
origin = (1,8);
target = (1,2);
type = Stem;
}
);
layerId = "EED8C670-EB0D-45AD-8912-54AB4C6FD6BA";
shapes = (
{
closed = 1;
nodes = (
(176,274,o),
(210,305,o),
(210,344,cs),
(210,381,o),
(176,413,o),
(139,413,cs),
(102,413,o),
(70,381,o),
(70,344,cs),
(70,305,o),
(102,274,o),
(139,274,cs)
);
},
{
closed = 1;
nodes = (
(176,-12,o),
(210,19,o),
(210,57,cs),
(210,96,o),
(176,126,o),
(139,126,cs),
(102,126,o),
(70,96,o),
(70,57,cs),
(70,19,o),
(102,-12,o),
(139,-12,cs)
);
}
);
width = 281;
},
{
hints = (
{
horizontal = 1;
origin = (0,11);
target = up;
type = BottomGhost;
},
{
horizontal = 1;
origin = (0,5);
target = down;
type = TopGhost;
},
{
horizontal = 1;
origin = (1,2);
target = (1,8);
type = Stem;
},
{
origin = (0,8);
target = (0,2);
type = Stem;
}
);
layerId = "B06945F2-A2F9-4CD6-84EB-56F06A9D6A7E";
shapes = (
{
closed = 1;
nodes = (
(177,-4,o),
(206,25,o),
(206,59,cs),
(206,94,o),
(177,123,o),
(142,123,cs),
(107,123,o),
(79,95,o),
(79,59,cs),
(79,24,o),
(107,-4,o),
(142,-4,cs)
);
},
{
closed = 1;
nodes = (
(79,303,o),
(107,275,o),
(142,275,cs),
(177,275,o),
(206,303,o),
(206,338,cs),
(206,372,o),
(177,401,o),
(142,401,cs),
(107,401,o),
(79,373,o),
(79,338,cs)
);
}
);
width = 284;
}
);
note = colon;
unicode = 58;
},
{
glyphname = semicolon;
lastChange = "2023-01-06 21:19:04 +0000";
layers = (
{
layerId = m01;
shapes = (
{
closed = 1;
nodes = (
(165,297,o),
(186,317,o),
(186,341,cs),
(186,365,o),
(165,385,o),
(142,385,cs),
(117,385,o),
(98,365,o),
(98,341,cs),
(98,317,o),
(117,297,o),
(142,297,cs)
);
},
{
closed = 1;
nodes = (
(123,-60,l),
(140,10,o),
(155,80,o),
(167,151,c),
(118,151,l),
(108,87,o),
(95,17,o),
(79,-60,c)
);
}
);
width = 241;
},
{
hints = (
{
horizontal = 1;
origin = (0,9);
target = (0,5);
type = Stem;
},
{
horizontal = 1;
origin = (1,11);
target = (1,2);
type = Stem;
},
{
origin = (0,6);
target = (0,4);
type = Stem;
},
{
place = (93.5, 85);
place = (93.5, 85);
type = Stem;
}
);
layerId = "EED8C670-EB0D-45AD-8912-54AB4C6FD6BA";
shapes = (
{
closed = 1;
nodes = (
(162,-85,l),
(190,-42,o),
(213,36,o),
(215,92,cs),
(216,119,l),
(111,119,l),
(110,92,ls),
(108,28,o),
(90,-50,o),
(70,-85,c)
);
},
{
closed = 1;
nodes = (
(199,274,o),
(233,305,o),
(233,344,cs),
(233,381,o),
(199,413,o),
(162,413,cs),
(125,413,o),
(93,381,o),
(93,344,cs),
(93,305,o),
(125,274,o),
(162,274,cs)
);
}
);
width = 308;
},
{
hints = (
{
horizontal = 1;
origin = (1,9);
target = (1,5);
type = Stem;
},
{
horizontal = 1;
origin = (0,11);
target = (0,5);
type = Stem;
},
{
origin = (0,8);
target = (0,2);
type = Stem;
},
{
place = (102, 67);
place = (102, 67);
type = Stem;
}
);
layerId = "B06945F2-A2F9-4CD6-84EB-56F06A9D6A7E";
shapes = (
{
closed = 1;
nodes = (
(159,231,o),
(183,253,o),
(183,280,cs),
(183,307,o),
(159,329,o),
(133,329,cs),
(106,329,o),
(84,307,o),
(84,280,cs),
(84,253,o),
(106,231,o),
(133,231,cs)
);
},
{
closed = 1;
nodes = (
(131,-81,l),
(141,-48,o),
(163,6,o),
(168,62,cs),
(170,86,l),
(103,86,l),
(101,63,ls),
(99,12,o),
(82,-48,o),
(74,-81,c)
);
}
);
width = 240;
}
);
note = semicolon;
unicode = 59;
},
{
glyphname = less;
lastChange = "2023-01-06 21:19:04 +0000";
layers = (
{
layerId = m01;
shapes = (
{
closed = 1;
nodes = (
(417,116,l),
(417,176,l),
(166,312,l),
(166,315,l),
(417,451,l),
(417,511,l),
(101,341,l),
(101,285,l)
);
}
);
width = 518;
},
{
hints = (
{
horizontal = 1;
origin = (0,0);
target = (0,4);
type = Stem;
},
{
origin = (0,6);
target = (0,0);
type = Stem;
}
);
layerId = "EED8C670-EB0D-45AD-8912-54AB4C6FD6BA";
shapes = (
{
closed = 1;
nodes = (
(686,47,l),
(686,231,l),
(261,433,l),
(686,628,l),
(686,810,l),
(87,525,l),
(87,332,l)
);
}
);
width = 773;
},
{
layerId = "B06945F2-A2F9-4CD6-84EB-56F06A9D6A7E";
shapes = (
{
closed = 1;
nodes = (
(97,336,l),
(550,93,l),
(550,209,l),
(230,383,l),
(550,557,l),
(550,673,l),
(97,430,l)
);
}
);
width = 646;
}
);
note = less;
unicode = 60;
},
{
glyphname = equal;
lastChange = "2023-01-06 21:19:04 +0000";
layers = (
{
hints = (
{
horizontal = 1;
origin = (0,3);
target = (0,2);
type = Stem;
},
{
horizontal = 1;
origin = (1,0);
target = (1,3);
type = Stem;
},
{
origin = (0,3);
target = (0,0);
type = Stem;
}
);
layerId = m01;
shapes = (
{
closed = 1;
nodes = (
(470,209,l),
(470,270,l),
(79,270,l),
(79,209,l)
);
},
{
closed = 1;
nodes = (
(79,369,l),
(470,369,l),
(470,430,l),
(79,430,l)
);
}
);
width = 548;
},
{
hints = (
{
horizontal = 1;
origin = (1,3);
target = (1,2);
type = Stem;
},
{
horizontal = 1;
origin = (0,3);
target = (0,2);
type = Stem;
},
{
origin = (1,3);
target = (1,0);
type = Stem;
}
);
layerId = "EED8C670-EB0D-45AD-8912-54AB4C6FD6BA";
shapes = (
{
closed = 1;
nodes = (
(562,418,l),
(562,538,l),
(78,538,l),
(78,418,l)
);
},
{
closed = 1;
nodes = (
(562,178,l),
(562,298,l),
(78,298,l),
(78,178,l)
);
}
);
width = 640;
},
{
layerId = "B06945F2-A2F9-4CD6-84EB-56F06A9D6A7E";
shapes = (
{
closed = 1;
nodes = (
(79,362,l),
(501,362,l),
(501,455,l),
(79,455,l)
);
},
{
closed = 1;
nodes = (
(79,194,l),
(501,194,l),
(501,287,l),
(79,287,l)
);
}
);
width = 580;
}
);
note = equal;
unicode = 61;
},
{
glyphname = greater;
lastChange = "2023-01-06 21:19:04 +0000";
layers = (
{
layerId = m01;
shapes = (
{
closed = 1;
nodes = (
(102,116,l),
(418,285,l),
(418,341,l),
(102,511,l),
(102,451,l),
(353,315,l),
(353,312,l),
(102,176,l)
);
}
);
width = 519;
},
{
hints = (
{
horizontal = 1;
origin = (0,0);
target = (0,3);
type = Stem;
},
{
origin = (0,0);
target = (0,1);
type = Stem;
}
);
layerId = "EED8C670-EB0D-45AD-8912-54AB4C6FD6BA";
shapes = (
{
closed = 1;
nodes = (
(88,47,l),
(687,332,l),
(687,525,l),
(88,810,l),
(88,628,l),
(513,433,l),
(88,231,l)
);
}
);
width = 775;
},
{
layerId = "B06945F2-A2F9-4CD6-84EB-56F06A9D6A7E";
shapes = (
{
closed = 1;
nodes = (
(97,209,l),
(97,93,l),
(549,336,l),
(549,430,l),
(97,673,l),
(97,557,l),
(417,383,l)
);
}
);
width = 646;
}
);
note = greater;
unicode = 62;
},
{
glyphname = question;
lastChange = "2023-01-06 21:19:04 +0000";
layers = (
{
hints = (
{
horizontal = 1;
origin = (1,11);
target = (1,5);
type = Stem;
},
{
horizontal = 1;
origin = (0,17);
target = (0,10);
type = Stem;
},
{
origin = (0,13);
target = (0,14);
type = Stem;
},
{
origin = (0,29);
target = (0,0);
type = Stem;
},
{
origin = (0,20);
target = (0,7);
type = Stem;
},
{
origin = (1,8);
target = (1,2);
type = Stem;
}
);
layerId = m01;
shapes = (
{
closed = 1;
nodes = (
(264,199,l),
(264,235,ls),
(264,287,o),
(285,315,o),
(341,352,cs),
(409,399,o),
(442,440,o),
(442,504,cs),
(442,608,o),
(357,674,o),
(246,674,cs),
(137,674,o),
(54,604,o),
(50,488,c),
(123,488,l),
(123,559,o),
(177,611,o),
(246,611,cs),
(311,611,o),
(363,565,o),
(363,500,cs),
(363,456,o),
(337,426,o),
(280,386,cs),
(227,350,o),
(205,320,o),
(200,279,cs),
(197,258,o),
(196,232,o),
(196,199,c)
);
},
{
closed = 1;
nodes = (
(261,-10,o),
(284,13,o),
(284,42,cs),
(284,69,o),
(261,92,o),
(234,92,cs),
(206,92,o),
(184,69,o),
(184,42,cs),
(184,13,o),
(206,-10,o),
(234,-10,cs)
);
}
);
width = 497;
},
{
hints = (
{
horizontal = 1;
origin = (1,11);
target = (1,5);
type = Stem;
},
{
horizontal = 1;
origin = (0,10);
target = (0,17);
type = Stem;
},
{
origin = (0,26);
target = (0,0);
type = Stem;
},
{
origin = (0,13);
target = (0,14);
type = Stem;
},
{
origin = (0,20);
target = (0,7);
type = Stem;
},
{
origin = (1,8);
target = (1,2);
type = Stem;
}
);
layerId = "EED8C670-EB0D-45AD-8912-54AB4C6FD6BA";
shapes = (
{
closed = 1;
nodes = (
(390,228,l),
(390,252,ls),
(390,311,o),
(417,339,o),
(472,375,cs),
(546,421,o),
(593,471,o),
(593,558,cs),
(593,694,o),
(480,765,o),
(327,765,cs),
(187,765,o),
(71,694,o),
(70,537,c),
(238,537,l),
(238,588,o),
(278,625,o),
(327,625,cs),
(371,625,o),
(407,593,o),
(407,548,cs),
(407,504,o),
(373,478,o),
(321,442,cs),
(250,396,o),
(233,359,o),
(233,228,c)
);
},
{
closed = 1;
nodes = (
(364,-20,o),
(408,21,o),
(409,75,cs),
(409,126,o),
(364,166,o),
(315,166,cs),
(263,166,o),
(220,127,o),
(220,77,cs),
(221,21,o),
(261,-20,o),
(315,-20,cs)
);
}
);
width = 668;
},
{
hints = (
{
horizontal = 1;
origin = (0,21);
target = (0,10);
type = Stem;
},
{
horizontal = 1;
origin = (1,2);
target = (1,11);
type = Stem;
},
{
origin = (0,16);
target = (0,17);
type = Stem;
},
{
origin = (0,30);
target = (0,0);
type = Stem;
},
{
origin = (0,24);
target = (0,7);
type = Stem;
},
{
origin = (1,14);
target = (1,5);
type = Stem;
}
);
layerId = "B06945F2-A2F9-4CD6-84EB-56F06A9D6A7E";
shapes = (
{
closed = 1;
nodes = (
(306,197,l),
(306,249,ls),
(306,293,o),
(321,316,o),
(376,353,cs),
(443,399,o),
(484,443,o),
(484,518,cs),
(484,630,o),
(393,704,o),
(272,704,cs),
(214,704,o),
(161,685,o),
(123,650,cs),
(74,606,o),
(61,556,o),
(60,486,c),
(165,486,l),
(165,502,ls),
(165,563,o),
(211,609,o),
(272,609,cs),
(330,609,o),
(373,568,o),
(373,514,cs),
(373,479,o),
(353,453,o),
(297,414,cs),
(209,353,o),
(206,320,o),
(206,197,c)
);
},
{
closed = 1;
nodes = (
(195,15,o),
(222,-12,o),
(258,-12,cs),
(292,-12,o),
(321,16,o),
(321,52,cs),
(321,68,o),
(315,83,o),
(304,95,cs),
(292,107,o),
(275,115,o),
(258,115,cs),
(222,115,o),
(193,87,o),
(193,52,cs)
);
}
);
width = 549;
}
);
note = question;
unicode = 63;
},
{
glyphname = at;
lastChange = "2023-01-06 21:19:04 +0000";
layers = (
{
layerId = m01;
shapes = (
{
closed = 1;
nodes = (
(425,-112,o),
(481,-97,o),
(526,-66,c),
(508,-25,l),
(466,-51,o),
(417,-64,o),
(362,-64,cs),
(211,-64,o),
(103,46,o),
(103,201,cs),
(103,298,o),
(149,383,o),
(227,432,cs),
(266,456,o),
(311,468,o),
(362,468,cs),
(447,468,o),
(529,429,o),
(578,353,cs),
(603,315,o),
(615,268,o),
(615,212,cs),
(615,131,o),
(581,79,o),
(534,79,cs),
(513,79,o),
(505,89,o),
(505,126,cs),
(505,366,l),
(461,366,l),
(461,307,l),
(458,307,l),
(433,350,o),
(396,371,o),
(346,371,cs),
(265,369,o),
(197,309,o),
(197,199,cs),
(197,92,o),
(263,31,o),
(343,30,cs),
(395,30,o),
(444,57,o),
(463,98,c),
(465,98,l),
(466,55,o),
(485,33,o),
(522,33,cs),
(610,36,o),
(663,98,o),
(663,209,cs),
(663,389,o),
(537,516,o),
(362,516,cs),
(181,516,o),
(53,378,o),
(53,198,cs),
(53,21,o),
(178,-112,o),
(359,-112,cs)
);
},
{
closed = 1;
nodes = (
(246,272,o),
(293,322,o),
(354,322,cs),
(419,322,o),
(457,269,o),
(457,201,cs),
(457,129,o),
(418,77,o),
(355,77,cs),
(288,77,o),
(246,133,o),
(246,201,cs)
);
}
);
width = 705;
},
{
hints = (
{
horizontal = 1;
origin = (0,53);
target = (0,6);
type = Stem;
},
{
horizontal = 1;
origin = (0,29);
target = (1,11);
type = Stem;
},
{
horizontal = 1;
origin = (2,4);
target = (0,16);
type = Stem;
},
{
horizontal = 1;
origin = (0,12);
target = (0,44);
type = Stem;
},
{
horizontal = 1;
origin = (1,5);
target = (0,20);
type = Stem;
},
{
horizontal = 1;
origin = (0,35);
target = (2,0);
type = Stem;
},
{
origin = (0,50);
target = (0,9);
type = Stem;
},
{
origin = (0,26);
target = (1,2);
type = Stem;
},
{
origin = (1,8);
target = (2,3);
type = Stem;
},
{
origin = (2,7);
target = (0,38);
type = Stem;
},
{
origin = (0,15);
target = (2,3);
type = Stem;
},
{
origin = (0,17);
target = (2,3);
type = Stem;
}
);
layerId = "EED8C670-EB0D-45AD-8912-54AB4C6FD6BA";
shapes = (
{
closed = 1;
nodes = (
(593,-184,o),
(663,-156,o),
(736,-105,c),
(690,1,l),
(622,-40,o),
(578,-63,o),
(487,-63,cs),
(309,-63,o),
(185,65,o),
(185,248,cs),
(185,427,o),
(315,562,o),
(488,562,cs),
(559,562,o),
(631,538,o),
(685,490,c),
(585,490,l),
(585,460,l),
(552,484,o),
(510,497,o),
(467,497,cs),
(409,497,o),
(350,471,o),
(308,425,cs),
(264,374,o),
(246,314,o),
(246,241,cs),
(246,103,o),
(340,0,o),
(458,-2,cs),
(516,-2,o),
(565,14,o),
(606,50,c),
(624,17,o),
(652,2,o),
(694,2,cs),
(825,2,o),
(905,107,o),
(905,259,cs),
(905,378,o),
(863,487,o),
(787,564,cs),
(711,641,o),
(605,683,o),
(488,683,cs),
(367,683,o),
(258,638,o),
(179,557,cs),
(102,477,o),
(60,366,o),
(60,245,cs),
(60,1,o),
(231,-184,o),
(484,-184,cs)
);
},
{
closed = 1;
nodes = (
(415,118,o),
(369,173,o),
(369,248,cs),
(369,321,o),
(414,374,o),
(477,374,cs),
(547,374,o),
(579,311,o),
(580,248,cs),
(580,170,o),
(539,118,o),
(478,118,cs)
);
},
{
closed = 1;
nodes = (
(704,121,l),
(703,124,o),
(701,131,o),
(701,151,cs),
(701,475,l),
(750,425,o),
(782,354,o),
(782,262,cs),
(782,181,o),
(751,121,o),
(709,121,cs)
);
}
);
width = 941;
},
{
hints = (
{
horizontal = 1;
origin = (0,61);
target = (0,6);
type = Stem;
},
{
horizontal = 1;
origin = (0,43);
target = (0,18);
type = Stem;
},
{
horizontal = 1;
origin = (1,2);
target = (0,27);
type = Stem;
},
{
horizontal = 1;
origin = (0,12);
target = (0,52);
type = Stem;
},
{
horizontal = 1;
origin = (0,23);
target = (1,2);
type = Stem;
},
{
horizontal = 1;
origin = (0,37);
target = (1,8);
type = Stem;
},
{
origin = (0,58);
target = (0,9);
type = Stem;
},
{
origin = (0,31);
target = (1,11);
type = Stem;
},
{
origin = (1,5);
target = (0,21);
type = Stem;
},
{
origin = (0,15);
target = (0,46);
type = Stem;
},
{
origin = (0,24);
target = (0,21);
type = Stem;
}
);
layerId = "B06945F2-A2F9-4CD6-84EB-56F06A9D6A7E";
shapes = (
{
closed = 1;
nodes = (
(594,-136,o),
(669,-110,o),
(735,-64,c),
(700,18,l),
(637,-21,o),
(580,-42,o),
(496,-42,cs),
(301,-42,o),
(164,98,o),
(164,299,cs),
(164,495,o),
(307,643,o),
(497,643,cs),
(657,643,o),
(820,530,o),
(820,314,cs),
(820,218,o),
(781,151,o),
(727,151,cs),
(712,151,o),
(703,151,o),
(703,198,cs),
(703,536,l),
(613,536,l),
(613,485,l),
(580,521,o),
(528,543,o),
(475,543,cs),
(460,542,ls),
(348,536,o),
(260,434,o),
(260,297,cs),
(259,227,o),
(281,166,o),
(322,121,cs),
(363,76,o),
(413,55,o),
(472,54,cs),
(533,54,o),
(590,80,o),
(625,121,c),
(636,81,o),
(667,58,o),
(712,58,cs),
(837,61,o),
(916,155,o),
(916,310,cs),
(916,430,o),
(874,540,o),
(797,617,cs),
(721,695,o),
(614,737,o),
(497,737,cs),
(375,737,o),
(265,692,o),
(186,610,cs),
(109,529,o),
(66,418,o),
(66,296,cs),
(66,60,o),
(230,-136,o),
(492,-136,cs)
);
},
{
closed = 1;
nodes = (
(356,385,o),
(411,447,o),
(485,447,cs),
(569,447,o),
(608,372,o),
(609,299,cs),
(609,208,o),
(559,148,o),
(486,148,cs),
(411,148,o),
(356,211,o),
(356,299,cs)
);
}
);
width = 978;
}
);
note = at;
unicode = 64;
},
{
glyphname = A;
kernLeft = A;
kernRight = A;
lastChange = "2023-01-06 21:19:04 +0000";
layers = (
{
anchors = (
{
name = top;
pos = (314,677);
}
);
hints = (
{
horizontal = 1;
origin = (0,7);
target = up;
type = BottomGhost;
},
{
horizontal = 1;
place = (180, 64);
place = (180, 64);
type = Stem;
},
{
origin = (0,7);
target = (0,4);
type = Stem;
}
);
layerId = m01;
shapes = (
{
closed = 1;
nodes = (
(111,9,l),
(174,183,l),
(451,177,l),
(513,9,l),
(602,-3,l),
(353,679,l),
(281,679,l),
(26,-3,l)
);
},
{
closed = 1;
nodes = (
(314,588,l),
(434,244,l),
(191,244,l)
);
}
);
width = 621;
},
{
anchors = (
{
name = top;
pos = (356,761);
}
);
hints = (
{
horizontal = 1;
origin = (0,3);
target = up;
type = BottomGhost;
},
{
horizontal = 1;
place = (191.5, 129.5);
place = (191.5, 129.5);
type = Stem;
},
{
horizontal = 1;
origin = (0,2);
target = down;
type = TopGhost;
},
{
origin = (0,3);
target = (0,0);
type = Stem;
}
);
layerId = "EED8C670-EB0D-45AD-8912-54AB4C6FD6BA";
shapes = (
{
closed = 1;
nodes = (
(693,0,l),
(418,761,l),
(301,761,l),
(18,0,l),
(177,22,l),
(238,195,l),
(470,190,l),
(531,22,l)
);
},
{
closed = 1;
nodes = (
(430,322,l),
(279,322,l),
(355,538,l)
);
}
);
width = 711;
},
{
anchors = (
{
name = top;
pos = (323,678);
}
);
hints = (
{
horizontal = 1;
origin = (0,4);
target = up;
type = BottomGhost;
},
{
horizontal = 1;
place = (173.5, 90.5);
place = (173.5, 90.5);
type = Stem;
},
{
horizontal = 1;
origin = (0,3);
target = down;
type = TopGhost;
},
{
origin = (0,4);
target = (0,1);
type = Stem;
}
);
layerId = "B06945F2-A2F9-4CD6-84EB-56F06A9D6A7E";
shapes = (
{
closed = 1;
nodes = (
(501,13,l),
(620,-3,l),
(371,675,l),
(281,675,l),
(25,-3,l),
(140,13,l),
(200,176,l),
(443,171,l)
);
},
{
closed = 1;
nodes = (
(227,264,l),
(323,529,l),
(416,264,l)
);
}
);
width = 645;
}
);
unicode = 65;
},
{
glyphname = B;
kernLeft = B;
lastChange = "2023-01-08 12:57:14 +0000";
layers = (
{
anchors = (
{
name = top;
pos = (245,677);
}
);
hints = (
{
horizontal = 1;
origin = (0,14);
target = (1,8);
type = Stem;
},
{
horizontal = 1;
origin = (1,0);
target = (2,8);
type = Stem;
},
{
horizontal = 1;
origin = (2,0);
target = (0,13);
type = Stem;
},
{
origin = (0,14);
target = (1,8);
type = Stem;
},
{
origin = (1,4);
target = (0,3);
type = Stem;
},
{
origin = (2,4);
target = (0,9);
type = Stem;
}
);
layerId = m01;
shapes = (
{
closed = 1;
nodes = (
(360,0,ls),
(488,0,o),
(563,69,o),
(563,182,cs),
(563,270,o),
(512,327,o),
(433,347,c),
(504,372,o),
(540,424,o),
(540,503,cs),
(540,611,o),
(465,677,o),
(340,677,cs),
(70,677,l),
(70,0,l)
);
},
{
closed = 1;
nodes = (
(156,309,l),
(338,309,ls),
(425,309,o),
(477,269,o),
(477,190,cs),
(477,111,o),
(430,73,o),
(351,73,cs),
(156,73,l)
);
},
{
closed = 1;
nodes = (
(156,605,l),
(334,605,ls),
(417,605,o),
(458,565,o),
(458,493,cs),
(457,419,o),
(415,382,o),
(334,382,cs),
(156,382,l)
);
}
);
width = 607;
},
{
anchors = (
{
name = top;
pos = (294,761);
}
);
hints = (
{
horizontal = 1;
origin = (0,14);
target = up;
type = BottomGhost;
},
{
horizontal = 1;
origin = (1,8);
target = down;
type = TopGhost;
},
{
horizontal = 1;
origin = (1,0);
target = (2,8);
type = Stem;
},
{
horizontal = 1;
origin = (0,13);
target = (2,0);
type = Stem;
},
{
origin = (0,14);
target = (1,8);
type = Stem;
},
{
origin = (2,4);
target = (0,9);
type = Stem;
},
{
origin = (1,4);
target = (0,3);
type = Stem;
}
);
layerId = "EED8C670-EB0D-45AD-8912-54AB4C6FD6BA";
shapes = (
{
closed = 1;
nodes = (
(397,0,ls),
(543,0,o),
(633,84,o),
(633,221,cs),
(633,296,o),
(601,356,o),
(544,393,c),
(586,429,o),
(610,483,o),
(610,549,cs),
(610,680,o),
(521,761,o),
(378,761,cs),
(75,761,l),
(75,0,l)
);
},
{
closed = 1;
nodes = (
(226,317,l),
(376,317,ls),
(482,317,o),
(482,250,o),
(482,229,cs),
(482,169,o),
(452,142,o),
(389,142,cs),
(226,142,l)
);
},
{
closed = 1;
nodes = (
(226,620,l),
(372,620,ls),
(462,620,o),
(462,559,o),
(462,539,cs),
(462,483,o),
(436,458,o),
(372,458,cs),
(226,458,l)
);
}
);
width = 666;
},
{
anchors = (
{
name = top;
pos = (274,678);
}
);
hints = (
{
horizontal = 1;
origin = (0,14);
target = (1,8);
type = Stem;
},
{
horizontal = 1;
origin = (1,0);
target = (2,8);
type = Stem;
},
{
horizontal = 1;
origin = (2,0);
target = (0,13);
type = Stem;
},
{
origin = (0,14);
target = (1,8);
type = Stem;
},
{
origin = (1,4);
target = (0,3);
type = Stem;
},
{
origin = (2,4);
target = (0,9);
type = Stem;
}
);
layerId = "B06945F2-A2F9-4CD6-84EB-56F06A9D6A7E";
shapes = (
{
closed = 1;
nodes = (
(357,0,ls),
(488,0,o),
(566,73,o),
(566,190,cs),
(566,265,o),
(528,321,o),
(467,349,c),
(516,379,o),
(544,430,o),
(544,497,cs),
(544,607,o),
(468,678,o),
(338,678,cs),
(65,678,l),
(65,0,l)
);
},
{
closed = 1;
nodes = (
(177,295,l),
(336,295,ls),
(390,295,o),
(453,278,o),
(453,197,cs),
(453,133,o),
(418,100,o),
(348,100,cs),
(177,100,l)
);
},
{
closed = 1;
nodes = (
(177,579,l),
(332,579,ls),
(379,579,o),
(435,563,o),
(435,487,cs),
(435,425,o),
(402,396,o),
(332,396,cs),
(177,396,l)
);
}
);
width = 606;
}
);
note = B;
unicode = 66;
},
{
glyphname = C;
kernLeft = O;
lastChange = "2023-01-08 12:56:58 +0000";
layers = (
{
anchors = (
{
name = top;
pos = (339,677);
}
);
hints = (
{
horizontal = 1;
origin = (0,25);
target = (0,6);
type = Stem;
},
{
horizontal = 1;
origin = (0,3);
target = down;
type = TopGhost;
},
{
horizontal = 1;
origin = (0,12);
target = (0,19);
type = Stem;
},
{
origin = (0,22);
target = (0,9);
type = Stem;
}
);
layerId = m01;
shapes = (
{
closed = 1;
nodes = (
(426,-12,o),
(497,2,o),
(562,29,c),
(574,102,l),
(486,75,o),
(414,61,o),
(358,61,cs),
(217,62,o),
(146,153,o),
(146,336,cs),
(148,520,o),
(219,612,o),
(358,612,cs),
(414,612,o),
(486,598,o),
(574,569,c),
(562,643,l),
(497,670,o),
(426,684,o),
(349,684,cs),
(150,684,o),
(60,552,o),
(60,336,cs),
(60,120,o),
(150,-12,o),
(349,-12,cs)
);
}
);
width = 634;
},
{
anchors = (
{
name = top;
pos = (387,761);
}
);
hints = (
{
horizontal = 1;
origin = (0,25);
target = (0,6);
type = Stem;
},
{
horizontal = 1;
origin = (0,12);
target = (0,19);
type = Stem;
},
{
origin = (0,22);
target = (0,9);
type = Stem;
}
);
layerId = "EED8C670-EB0D-45AD-8912-54AB4C6FD6BA";
shapes = (
{
closed = 1;
nodes = (
(485,-11,o),
(546,5,o),
(629,40,c),
(652,183,l),
(528,144,o),
(470,127,o),
(395,127,cs),
(278,127,o),
(216,202,o),
(216,370,cs),
(216,537,o),
(278,613,o),
(395,613,cs),
(469,613,o),
(531,595,o),
(652,555,c),
(629,699,l),
(546,734,o),
(485,750,o),
(387,750,cs),
(172,750,o),
(65,608,o),
(65,370,cs),
(65,132,o),
(172,-11,o),
(387,-11,cs)
);
}
);
width = 717;
},
{
anchors = (
{
name = bottom;
pos = (349,18);
},
{
name = top;
pos = (329,678);
}
);
hints = (
{
horizontal = 1;
origin = (0,25);
target = (0,6);
type = Stem;
},
{
horizontal = 1;
origin = (0,3);
target = down;
type = TopGhost;
},
{
horizontal = 1;
origin = (0,12);
target = (0,19);
type = Stem;
},
{
origin = (0,22);
target = (0,9);
type = Stem;
}
);
layerId = "B06945F2-A2F9-4CD6-84EB-56F06A9D6A7E";
shapes = (
{
closed = 1;
nodes = (
(423,-10,o),
(480,3,o),
(551,33,c),
(567,133,l),
(468,102,o),
(412,88,o),
(347,88,cs),
(230,88,o),
(165,163,o),
(165,329,cs),
(165,494,o),
(230,571,o),
(347,571,cs),
(410,571,o),
(467,557,o),
(567,524,c),
(551,625,l),
(480,655,o),
(423,668,o),
(339,668,cs),
(148,668,o),
(55,542,o),
(55,329,cs),
(55,116,o),
(148,-10,o),
(339,-10,cs)
);
}
);
width = 622;
}
);
metricLeft = O;
metricRight = O;
note = C;
unicode = 67;
},
{
glyphname = D;
kernLeft = B;
lastChange = "2023-01-08 12:56:54 +0000";
layers = (
{
anchors = (
{
name = top;
pos = (233,677);
}
);
hints = (
{
horizontal = 1;
origin = (0,8);
target = (1,8);
type = Stem;
},
{
horizontal = 1;
origin = (1,0);
target = (0,7);
type = Stem;
},
{
origin = (0,8);
target = (1,8);
type = Stem;
},
{
origin = (1,4);
target = (0,3);
type = Stem;
}
);
layerId = m01;
shapes = (
{
closed = 1;
nodes = (
(310,0,ls),
(502,0,o),
(593,126,o),
(593,341,cs),
(593,553,o),
(502,677,o),
(310,677,cs),
(70,677,l),
(70,0,l)
);
},
{
closed = 1;
nodes = (
(156,605,l),
(310,605,ls),
(441,605,o),
(507,519,o),
(507,341,cs),
(506,162,o),
(440,73,o),
(310,73,cs),
(156,73,l)
);
}
);
width = 650;
},
{
anchors = (
{
name = top;
pos = (347,761);
}
);
hints = (
{
horizontal = 1;
origin = (0,8);
target = up;
type = BottomGhost;
},
{
horizontal = 1;
origin = (1,8);
target = down;
type = TopGhost;
},
{
horizontal = 1;
origin = (1,0);
target = (0,7);
type = Stem;
},
{
origin = (0,8);
target = (1,8);
type = Stem;
},
{
origin = (1,4);
target = (0,3);
type = Stem;
}
);
layerId = "EED8C670-EB0D-45AD-8912-54AB4C6FD6BA";
shapes = (
{
closed = 1;
nodes = (
(347,0,ls),
(558,0,o),
(663,144,o),
(663,384,cs),
(663,619,o),
(558,761,o),
(347,761,cs),
(75,761,l),
(75,0,l)
);
},
{
closed = 1;
nodes = (
(226,620,l),
(347,620,ls),
(460,620,o),
(512,546,o),
(512,384,cs),
(512,216,o),
(455,142,o),
(347,142,cs),
(226,142,l)
);
}
);
width = 708;
},
{
anchors = (
{
name = top;
pos = (272,678);
}
);
hints = (
{
horizontal = 1;
origin = (0,0);
target = up;
type = BottomGhost;
},
{
horizontal = 1;
origin = (1,0);
target = down;
type = TopGhost;
},
{
horizontal = 1;
origin = (0,8);
target = (1,1);
type = Stem;
},
{
origin = (0,0);
target = (1,0);
type = Stem;
},
{
origin = (1,5);
target = (0,4);
type = Stem;
}
);
layerId = "B06945F2-A2F9-4CD6-84EB-56F06A9D6A7E";
shapes = (
{
closed = 1;
nodes = (
(65,0,l),
(310,0,ls),
(502,0,o),
(596,128,o),
(596,342,cs),
(596,553,o),
(502,678,o),
(310,678,cs),
(65,678,l)
);
},
{
closed = 1;
nodes = (
(178,100,l),
(178,579,l),
(310,579,ls),
(424,579,o),
(483,507,o),
(483,342,cs),
(483,175,o),
(422,100,o),
(310,100,cs)
);
}
);
width = 647;
}
);
metricLeft = B;
note = D;
unicode = 68;
},
{
glyphname = E;
kernLeft = B;
kernRight = E;
lastChange = "2023-01-06 21:19:04 +0000";
layers = (
{
anchors = (
{
name = top;
pos = (283,677);
}
);
hints = (
{
horizontal = 1;
origin = (0,11);
target = (0,2);
type = Stem;
},
{
horizontal = 1;
origin = (0,3);
target = (0,6);
type = Stem;
},
{
horizontal = 1;
origin = (0,7);
target = (0,10);
type = Stem;
},
{
origin = (0,11);
target = (0,2);
type = Stem;
}
);
layerId = m01;
shapes = (
{
closed = 1;
nodes = (
(501,0,l),
(489,73,l),
(156,73,l),
(156,316,l),
(451,316,l),
(439,388,l),
(156,388,l),
(156,605,l),
(484,605,l),
(496,677,l),
(70,677,l),
(70,0,l)
);
}
);
width = 544;
},
{
anchors = (
{
name = top;
pos = (314,761);
}
);
hints = (
{
horizontal = 1;
origin = (0,11);
target = up;
type = BottomGhost;
},
{
horizontal = 1;
origin = (0,2);
target = down;
type = TopGhost;
},
{
horizontal = 1;
origin = (0,3);
target = (0,6);
type = Stem;
},
{
horizontal = 1;
origin = (0,10);
target = (0,7);
type = Stem;
},
{
origin = (0,11);
target = (0,2);
type = Stem;
}
);
layerId = "EED8C670-EB0D-45AD-8912-54AB4C6FD6BA";
shapes = (
{
closed = 1;
nodes = (
(577,0,l),
(555,142,l),
(226,142,l),
(226,324,l),
(527,324,l),
(504,465,l),
(226,465,l),
(226,620,l),
(550,620,l),
(572,761,l),
(75,761,l),
(75,0,l)
);
}
);
width = 627;
},
{
anchors = (
{
name = top;
pos = (281,678);
}
);
hints = (
{
horizontal = 1;
origin = (0,0);
target = up;
type = BottomGhost;
},
{
horizontal = 1;
origin = (0,3);
target = down;
type = TopGhost;
},
{
horizontal = 1;
origin = (0,4);
target = (0,7);
type = Stem;
},
{
horizontal = 1;
origin = (0,8);
target = (0,11);
type = Stem;
},
{
origin = (0,0);
target = (0,3);
type = Stem;
}
);
layerId = "B06945F2-A2F9-4CD6-84EB-56F06A9D6A7E";
shapes = (
{
closed = 1;
nodes = (
(65,0,l),
(501,0,l),
(485,100,l),
(178,100,l),
(178,283,l),
(453,283,l),
(436,383,l),
(178,383,l),
(178,579,l),
(480,579,l),
(496,678,l),
(65,678,l)
);
}
);
width = 541;
}
);
metricLeft = B;
note = E;
unicode = 69;
},
{
glyphname = F;
kernLeft = B;
kernRight = F;
lastChange = "2023-01-08 12:56:48 +0000";
layers = (
{
anchors = (
{
name = top;
pos = (276,677);
}
);
hints = (
{
horizontal = 1;
origin = (0,9);
target = up;
type = BottomGhost;
},
{
horizontal = 1;
origin = (0,1);
target = (0,4);
type = Stem;
},
{
horizontal = 1;
origin = (0,5);
target = (0,8);
type = Stem;
},
{
origin = (0,9);
target = (0,0);
type = Stem;
}
);
layerId = m01;
shapes = (
{
closed = 1;
nodes = (
(156,0,l),
(156,296,l),
(438,296,l),
(426,368,l),
(156,368,l),
(156,605,l),
(471,605,l),
(482,677,l),
(70,677,l),
(70,0,l)
);
}
);
width = 516;
},
{
anchors = (
{
name = top;
pos = (300,761);
}
);
hints = (
{
horizontal = 1;
origin = (0,9);
target = up;
type = BottomGhost;
},
{
horizontal = 1;
origin = (0,1);
target = (0,4);
type = Stem;
},
{
horizontal = 1;
origin = (0,5);
target = (0,8);
type = Stem;
},
{
origin = (0,9);
target = (0,0);
type = Stem;
}
);
layerId = "EED8C670-EB0D-45AD-8912-54AB4C6FD6BA";
shapes = (
{
closed = 1;
nodes = (
(226,0,l),
(226,304,l),
(514,304,l),
(491,444,l),
(226,444,l),
(226,620,l),
(536,620,l),
(558,761,l),
(75,761,l),
(75,0,l)
);
}
);
width = 603;
},
{
anchors = (
{
name = top;
pos = (279,678);
}
);
hints = (
{
horizontal = 1;
origin = (0,0);
target = up;
type = BottomGhost;
},
{
horizontal = 1;
origin = (0,2);
target = (0,5);
type = Stem;
},
{
horizontal = 1;
origin = (0,9);
target = (0,6);
type = Stem;
},
{
origin = (0,0);
target = (0,1);
type = Stem;
}
);
layerId = "B06945F2-A2F9-4CD6-84EB-56F06A9D6A7E";
shapes = (
{
closed = 1;
nodes = (
(65,0,l),
(178,0,l),
(178,283,l),
(450,283,l),
(434,383,l),
(178,383,l),
(178,579,l),
(476,579,l),
(492,678,l),
(65,678,l)
);
}
);
width = 521;
}
);
metricLeft = B;
note = F;
unicode = 70;
},
{
glyphname = G;
kernLeft = O;
kernRight = G;
lastChange = "2023-01-08 12:56:43 +0000";
layers = (
{
anchors = (
{
name = top;
pos = (339,677);
}
);
hints = (
{
horizontal = 1;
origin = (0,27);
target = (0,8);
type = Stem;
},
{
horizontal = 1;
origin = (0,14);
target = (0,21);
type = Stem;
},
{
origin = (0,24);
target = (0,11);
type = Stem;
},
{
origin = (0,5);
target = (0,2);
type = Stem;
}
);
layerId = m01;
shapes = (
{
closed = 1;
nodes = (
(426,-12,o),
(500,4,o),
(573,35,c),
(573,329,l),
(487,318,l),
(487,85,l),
(436,69,o),
(390,61,o),
(351,61,cs),
(222,61,o),
(146,153,o),
(146,336,cs),
(148,520,o),
(219,612,o),
(358,612,cs),
(421,612,o),
(492,597,o),
(570,567,c),
(558,643,l),
(495,670,o),
(426,684,o),
(349,684,cs),
(150,684,o),
(60,552,o),
(60,336,cs),
(60,120,o),
(150,-12,o),
(349,-12,cs)
);
}
);
width = 643;
},
{
anchors = (
{
name = top;
pos = (387,761);
}
);
hints = (
{
horizontal = 1;
origin = (0,27);
target = (0,8);
type = Stem;
},
{
horizontal = 1;
origin = (0,14);
target = (0,21);
type = Stem;
},
{
horizontal = 1;
origin = (0,5);
target = down;
type = TopGhost;
},
{
origin = (0,24);
target = (0,11);
type = Stem;
},
{
origin = (0,5);
target = (0,2);
type = Stem;
}
);
layerId = "EED8C670-EB0D-45AD-8912-54AB4C6FD6BA";
shapes = (
{
closed = 1;
nodes = (
(480,-11,o),
(553,9,o),
(643,47,c),
(643,400,l),
(492,380,l),
(492,142,l),
(456,132,o),
(424,127,o),
(389,127,cs),
(279,127,o),
(216,205,o),
(216,370,cs),
(216,537,o),
(278,613,o),
(395,613,cs),
(479,613,o),
(540,592,o),
(648,550,c),
(625,699,l),
(539,735,o),
(483,750,o),
(387,750,cs),
(172,750,o),
(65,608,o),
(65,370,cs),
(65,132,o),
(172,-11,o),
(387,-11,cs)
);
}
);
width = 723;
},
{
anchors = (
{
name = top;
pos = (331,678);
}
);
hints = (
{
horizontal = 1;
origin = (0,27);
target = (0,8);
type = Stem;
},
{
horizontal = 1;
origin = (0,14);
target = (0,21);
type = Stem;
},
{
origin = (0,24);
target = (0,11);
type = Stem;
},
{
origin = (0,5);
target = (0,2);
type = Stem;
}
);
layerId = "B06945F2-A2F9-4CD6-84EB-56F06A9D6A7E";
shapes = (
{
closed = 1;
nodes = (
(418,-10,o),
(487,7,o),
(563,39,c),
(563,340,l),
(453,325,l),
(453,106,l),
(413,93,o),
(379,88,o),
(341,88,cs),
(230,88,o),
(165,166,o),
(165,329,cs),
(165,494,o),
(230,571,o),
(347,571,cs),
(418,571,o),
(476,554,o),
(564,521,c),
(547,625,l),
(475,655,o),
(422,668,o),
(339,668,cs),
(148,668,o),
(55,542,o),
(55,329,cs),
(55,116,o),
(148,-10,o),
(339,-10,cs)
);
}
);
width = 629;
}
);
metricLeft = O;
metricRight = H;
note = G;
unicode = 71;
},
{
glyphname = H;
kernLeft = B;
kernRight = H;
lastChange = "2023-01-08 12:56:38 +0000";
layers = (
{
anchors = (
{
name = top;
pos = (322,677);
}
);
hints = (
{
horizontal = 1;
origin = (0,7);
target = up;
type = BottomGhost;
},
{
horizontal = 1;
origin = (0,9);
target = (0,4);
type = Stem;
},
{
origin = (0,7);
target = (0,8);
type = Stem;
},
{
origin = (0,11);
target = (0,0);
type = Stem;
}
);
layerId = m01;
shapes = (
{
closed = 1;
nodes = (
(573,0,l),
(573,665,l),
(487,677,l),
(487,388,l),
(156,388,l),
(156,665,l),
(70,677,l),
(70,0,l),
(156,0,l),
(156,316,l),
(487,316,l),
(487,0,l)
);
}
);
width = 643;
},
{
anchors = (
{
name = top;
pos = (359,761);
}
);
hints = (
{
horizontal = 1;
origin = (0,7);
target = up;
type = BottomGhost;
},
{
horizontal = 1;
origin = (0,9);
target = (0,4);
type = Stem;
},
{
horizontal = 1;
origin = (0,6);
target = down;
type = TopGhost;
},
{
origin = (0,7);
target = (0,8);
type = Stem;
},
{
origin = (0,11);
target = (0,0);
type = Stem;
}
);
layerId = "EED8C670-EB0D-45AD-8912-54AB4C6FD6BA";
shapes = (
{
closed = 1;
nodes = (
(643,0,l),
(643,740,l),
(492,761,l),
(492,462,l),
(226,462,l),
(226,740,l),
(75,761,l),
(75,0,l),
(226,0,l),
(226,322,l),
(492,322,l),
(492,0,l)
);
}
);
width = 718;
},
{
anchors = (
{
name = top;
pos = (320,678);
}
);
hints = (
{
horizontal = 1;
origin = (0,8);
target = up;
type = BottomGhost;
},
{
horizontal = 1;
origin = (0,10);
target = (0,5);
type = Stem;
},
{
horizontal = 1;
origin = (0,7);
target = down;
type = TopGhost;
},
{
origin = (0,8);
target = (0,9);
type = Stem;
},
{
origin = (0,0);
target = (0,1);
type = Stem;
}
);
layerId = "B06945F2-A2F9-4CD6-84EB-56F06A9D6A7E";
shapes = (
{
closed = 1;
nodes = (
(463,0,l),
(575,0,l),
(575,663,l),
(463,678,l),
(463,400,l),
(177,400,l),
(177,663,l),
(65,678,l),
(65,0,l),
(177,0,l),
(177,301,l),
(463,301,l)
);
}
);
width = 640;
}
);
metricLeft = B;
note = H;
unicode = 72;
},
{
glyphname = I;
kernLeft = B;
kernRight = H;
lastChange = "2023-01-08 12:50:01 +0000";
layers = (
{
anchors = (
{
name = top;
pos = (113,677);
}
);
hints = (
{
horizontal = 1;
origin = (0,3);
target = up;
type = BottomGhost;
},
{
origin = (0,3);
target = (0,0);
type = Stem;
}
);
layerId = m01;
shapes = (
{
closed = 1;
nodes = (
(156,0,l),
(156,665,l),
(70,677,l),
(70,0,l)
);
}
);
width = 226;
},
{
anchors = (
{
name = top;
pos = (151,761);
}
);
hints = (
{
horizontal = 1;
origin = (0,3);
target = up;
type = BottomGhost;
},
{
horizontal = 1;
origin = (0,2);
target = down;
type = TopGhost;
},
{
origin = (0,3);
target = (0,0);
type = Stem;
}
);
layerId = "EED8C670-EB0D-45AD-8912-54AB4C6FD6BA";
shapes = (
{
closed = 1;
nodes = (
(226,0,l),
(226,740,l),
(75,761,l),
(75,0,l)
);
}
);
width = 301;
},
{
anchors = (
{
name = top;
pos = (122,678);
}
);
hints = (
{
horizontal = 1;
origin = (0,0);
target = up;
type = BottomGhost;
},
{
origin = (0,0);
target = (0,1);
type = Stem;
}
);
layerId = "B06945F2-A2F9-4CD6-84EB-56F06A9D6A7E";
shapes = (
{
closed = 1;
nodes = (
(65,0,l),
(178,0,l),
(178,663,l),
(65,678,l)
);
}
);
width = 243;
}
);
metricLeft = B;
metricRight = H;
note = I;
unicode = 73;
},
{
glyphname = J;
kernLeft = H;
kernRight = H;
lastChange = "2023-01-08 12:56:32 +0000";
layers = (
{
anchors = (
{
name = top;
pos = (194,677);
}
);
hints = (
{
horizontal = 1;
origin = (0,12);
target = (0,8);
type = Stem;
},
{
origin = (0,5);
target = (0,2);
type = Stem;
}
);
layerId = m01;
shapes = (
{
closed = 1;
nodes = (
(192,-14,o),
(237,39,o),
(237,146,cs),
(237,663,l),
(151,674,l),
(151,149,ls),
(151,106,o),
(140,61,o),
(79,61,cs),
(59,61,o),
(40,63,o),
(22,66,c),
(13,-3,l),
(39,-9,o),
(68,-12,o),
(101,-12,cs)
);
}
);
width = 307;
},
{
anchors = (
{
name = top;
pos = (250,761);
}
);
hints = (
{
horizontal = 1;
origin = (0,15);
target = (0,8);
type = Stem;
},
{
origin = (0,5);
target = (0,2);
type = Stem;
}
);
layerId = "EED8C670-EB0D-45AD-8912-54AB4C6FD6BA";
shapes = (
{
closed = 1;
nodes = (
(233,-11,o),
(325,22,o),
(325,179,cs),
(325,730,l),
(174,750,l),
(174,182,ls),
(174,127,o),
(152,127,o),
(134,127,cs),
(97,127,o),
(93,130,o),
(49,137,c),
(32,5,l),
(79,-5,o),
(102,-11,o),
(156,-11,cs)
);
}
);
width = 400;
},
{
anchors = (
{
name = top;
pos = (201,678);
}
);
hints = (
{
horizontal = 1;
origin = (0,15);
target = (0,8);
type = Stem;
},
{
origin = (0,5);
target = (0,2);
type = Stem;
}
);
layerId = "B06945F2-A2F9-4CD6-84EB-56F06A9D6A7E";
shapes = (
{
closed = 1;
nodes = (
(207,-10,o),
(256,45,o),
(256,153,cs),
(256,653,l),
(145,668,l),
(145,156,ls),
(145,97,o),
(118,89,o),
(92,89,cs),
(63,89,o),
(56,91,o),
(25,96,c),
(13,2,l),
(49,-6,o),
(69,-10,o),
(112,-10,cs)
);
}
);
width = 321;
}
);
metricRight = H;
note = J;
unicode = 74;
},
{
glyphname = K;
kernLeft = B;
lastChange = "2023-01-08 12:56:28 +0000";
layers = (
{
anchors = (
{
name = top;
pos = (314,677);
}
);
hints = (
{
horizontal = 1;
origin = (0,7);
target = up;
type = BottomGhost;
},
{
origin = (0,7);
target = (0,8);
type = Stem;
}
);
layerId = m01;
shapes = (
{
closed = 1;
nodes = (
(582,0,l),
(258,343,l),
(574,677,l),
(467,677,l),
(156,341,l),
(156,665,l),
(70,677,l),
(70,0,l),
(156,0,l),
(156,339,l),
(469,0,l)
);
}
);
width = 610;
},
{
anchors = (
{
name = top;
pos = (347,761);
}
);
hints = (
{
horizontal = 1;
origin = (0,7);
target = up;
type = BottomGhost;
},
{
horizontal = 1;
origin = (0,6);
target = down;
type = TopGhost;
},
{
origin = (0,7);
target = (0,8);
type = Stem;
}
);
layerId = "EED8C670-EB0D-45AD-8912-54AB4C6FD6BA";
shapes = (
{
closed = 1;
nodes = (
(695,0,l),
(341,383,l),
(687,756,l),
(491,756,l),
(226,466,l),
(226,740,l),
(75,761,l),
(75,0,l),
(226,0,l),
(226,294,l),
(493,0,l)
);
}
);
width = 714;
},
{
anchors = (
{
name = top;
pos = (308,678);
}
);
hints = (
{
horizontal = 1;
origin = (0,8);
target = up;
type = BottomGhost;
},
{
horizontal = 1;
origin = (0,7);
target = down;
type = TopGhost;
},
{
origin = (0,8);
target = (0,9);
type = Stem;
}
);
layerId = "B06945F2-A2F9-4CD6-84EB-56F06A9D6A7E";
shapes = (
{
closed = 1;
nodes = (
(455,0,l),
(604,0,l),
(281,343,l),
(596,676,l),
(453,676,l),
(177,379,l),
(177,663,l),
(65,678,l),
(65,0,l),
(177,0,l),
(177,300,l)
);
}
);
width = 630;
}
);
metricLeft = B;
note = K;
unicode = 75;
},
{
glyphname = L;
kernLeft = B;
lastChange = "2023-01-08 12:56:23 +0000";
layers = (
{
anchors = (
{
name = top;
pos = (128,677);
}
);
hints = (
{
horizontal = 1;
origin = (0,5);
target = (0,2);
type = Stem;
},
{
origin = (0,5);
target = (0,2);
type = Stem;
}
);
layerId = m01;
shapes = (
{
closed = 1;
nodes = (
(487,0,l),
(475,73,l),
(156,73,l),
(156,665,l),
(70,677,l),
(70,0,l)
);
}
);
width = 514;
},
{
anchors = (
{
name = top;
pos = (301,761);
}
);
layerId = "EED8C670-EB0D-45AD-8912-54AB4C6FD6BA";
shapes = (
{
closed = 1;
nodes = (
(563,0,l),
(541,141,l),
(226,141,l),
(226,740,l),
(75,761,l),
(75,0,l)
);
}
);
width = 601;
},
{
anchors = (
{
name = top;
pos = (121,678);
}
);
hints = (
{
horizontal = 1;
origin = (0,0);
target = up;
type = BottomGhost;
},
{
horizontal = 1;
origin = (0,3);
target = down;
type = TopGhost;
},
{
horizontal = 1;
origin = (0,5);
target = down;
type = TopGhost;
},
{
origin = (0,0);
target = (0,3);
type = Stem;
}
);
layerId = "B06945F2-A2F9-4CD6-84EB-56F06A9D6A7E";
shapes = (
{
closed = 1;
nodes = (
(65,0,l),
(496,0,l),
(480,100,l),
(177,100,l),
(177,663,l),
(65,678,l)
);
}
);
width = 520;
}
);
metricLeft = B;
note = L;
unicode = 76;
},
{
glyphname = M;
kernLeft = B;
kernRight = H;
lastChange = "2023-01-08 12:56:18 +0000";
layers = (
{
anchors = (
{
name = top;
pos = (401,677);
}
);
hints = (
{
horizontal = 1;
origin = (0,8);
target = up;
type = BottomGhost;
},
{
place = (70, 2000);
place = (70, 2000);
type = Stem;
},
{
place = (646, 85);
place = (646, 85);
type = Stem;
}
);
layerId = m01;
shapes = (
{
closed = 1;
nodes = (
(731,0,l),
(731,677,l),
(625,677,l),
(401,224,l),
(326,376,o),
(250,527,o),
(174,677,c),
(70,677,l),
(70,0,l),
(149,0,l),
(148,543,l),
(367,111,l),
(427,111,l),
(647,543,l),
(645,0,l)
);
}
);
width = 801;
},
{
anchors = (
{
name = top;
pos = (438,761);
}
);
hints = (
{
horizontal = 1;
origin = (0,8);
target = up;
type = BottomGhost;
},
{
horizontal = 1;
origin = (0,7);
target = down;
type = TopGhost;
},
{
place = (55, 2000);
place = (55, 2000);
type = Stem;
},
{
place = (631, 150);
place = (631, 150);
type = Stem;
}
);
layerId = "EED8C670-EB0D-45AD-8912-54AB4C6FD6BA";
shapes = (
{
closed = 1;
nodes = (
(801,0,l),
(801,761,l),
(643,761,l),
(439,338,l),
(370,479,o),
(300,620,o),
(231,761,c),
(75,761,l),
(75,0,l),
(219,0,l),
(218,451,l),
(384,114,l),
(485,114,l),
(652,451,l),
(650,0,l)
);
}
);
width = 876;
},
{
anchors = (
{
name = top;
pos = (397,678);
}
);
hints = (
{
horizontal = 1;
origin = (0,7);
target = up;
type = BottomGhost;
},
{
horizontal = 1;
origin = (0,6);
target = down;
type = TopGhost;
},
{
place = (65, 2000);
place = (65, 2000);
type = Stem;
},
{
place = (616, 112);
place = (616, 112);
type = Stem;
}
);
layerId = "B06945F2-A2F9-4CD6-84EB-56F06A9D6A7E";
shapes = (
{
closed = 1;
nodes = (
(615,0,l),
(728,0,l),
(728,678,l),
(602,678,l),
(397,264,l),
(189,678,l),
(65,678,l),
(65,0,l),
(171,0,l),
(170,471,l),
(355,107,l),
(431,107,l),
(617,471,l)
);
}
);
width = 793;
}
);
metricLeft = B;
metricRight = H;
note = M;
unicode = 77;
},
{
glyphname = N;
kernLeft = B;
kernRight = H;
lastChange = "2023-01-06 21:19:04 +0000";
layers = (
{
anchors = (
{
name = top;
pos = (329,677);
}
);
hints = (
{
horizontal = 1;
origin = (0,6);
target = up;
type = BottomGhost;
},
{
place = (70, 2000);
place = (70, 2000);
type = Stem;
},
{
place = (508, 79);
place = (508, 79);
type = Stem;
}
);
layerId = m01;
shapes = (
{
closed = 1;
nodes = (
(587,0,l),
(587,665,l),
(507,677,l),
(509,143,l),
(148,677,l),
(70,677,l),
(70,0,l),
(149,0,l),
(148,527,l),
(504,0,l)
);
}
);
width = 657;
},
{
anchors = (
{
name = top;
pos = (366,761);
}
);
hints = (
{
horizontal = 1;
origin = (0,6);
target = up;
type = BottomGhost;
},
{
horizontal = 1;
origin = (0,2);
target = down;
type = TopGhost;
},
{
place = (55, 2000);
place = (55, 2000);
type = Stem;
},
{
place = (493, 144);
place = (493, 144);
type = Stem;
}
);
layerId = "EED8C670-EB0D-45AD-8912-54AB4C6FD6BA";
shapes = (
{
closed = 1;
nodes = (
(657,0,l),
(657,739,l),
(512,761,l),
(514,288,l),
(203,756,l),
(75,756,l),
(75,0,l),
(219,0,l),
(218,461,l),
(524,0,l)
);
}
);
width = 732;
},
{
anchors = (
{
name = top;
pos = (327,678);
}
);
hints = (
{
horizontal = 1;
origin = (0,7);
target = up;
type = BottomGhost;
},
{
horizontal = 1;
origin = (0,3);
target = down;
type = TopGhost;
},
{
place = (65, 2000);
place = (65, 2000);
type = Stem;
},
{
place = (483, 106);
place = (483, 106);
type = Stem;
}
);
layerId = "B06945F2-A2F9-4CD6-84EB-56F06A9D6A7E";
shapes = (
{
closed = 1;
nodes = (
(486,0,l),
(589,0,l),
(589,662,l),
(482,678,l),
(484,202,l),
(163,676,l),
(65,676,l),
(65,0,l),
(171,0,l),
(170,468,l)
);
}
);
width = 654;
}
);
metricLeft = B;
metricRight = H;
note = N;
unicode = 78;
},
{
glyphname = O;
kernLeft = O;
kernRight = O;
lastChange = "2023-01-06 21:19:04 +0000";
layers = (
{
anchors = (
{
name = top;
pos = (343,677);
}
);
hints = (
{
horizontal = 1;
origin = (0,11);
target = (1,8);
type = Stem;
},
{
horizontal = 1;
origin = (1,2);
target = (0,5);
type = Stem;
},
{
origin = (0,8);
target = (1,11);
type = Stem;
},
{
origin = (1,5);
target = (0,2);
type = Stem;
}
);
layerId = m01;
shapes = (
{
closed = 1;
nodes = (
(535,-12,o),
(626,122,o),
(626,339,cs),
(626,552,o),
(535,684,o),
(343,684,cs),
(152,684,o),
(60,552,o),
(60,339,cs),
(60,122,o),
(152,-12,o),
(343,-12,cs)
);
},
{
closed = 1;
nodes = (
(147,521,o),
(213,612,o),
(343,612,cs),
(474,609,o),
(539,518,o),
(539,339,cs),
(539,188,o),
(494,61,o),
(343,61,cs),
(189,61,o),
(146,199,o),
(146,339,cs)
);
}
);
width = 686;
},
{
anchors = (
{
name = top;
pos = (381,761);
}
);
hints = (
{
horizontal = 1;
origin = (0,11);
target = (1,11);
type = Stem;
},
{
horizontal = 1;
origin = (1,5);
target = (0,5);
type = Stem;
},
{
origin = (0,8);
target = (1,2);
type = Stem;
},
{
origin = (1,8);
target = (0,2);
type = Stem;
}
);
layerId = "EED8C670-EB0D-45AD-8912-54AB4C6FD6BA";
shapes = (
{
closed = 1;
nodes = (
(591,-11,o),
(696,137,o),
(696,373,cs),
(696,607,o),
(588,750,o),
(381,750,cs),
(173,750,o),
(65,607,o),
(65,373,cs),
(65,137,o),
(171,-11,o),
(381,-11,cs)
);
},
{
closed = 1;
nodes = (
(267,127,o),
(216,214,o),
(216,373,cs),
(216,538,o),
(273,613,o),
(381,613,cs),
(496,613,o),
(544,529,o),
(544,373,cs),
(544,216,o),
(494,127,o),
(381,127,cs)
);
}
);
width = 761;
},
{
anchors = (
{
name = top;
pos = (333,678);
}
);
hints = (
{
horizontal = 1;
origin = (0,11);
target = (1,8);
type = Stem;
},
{
horizontal = 1;
origin = (1,2);
target = (0,5);
type = Stem;
},
{
origin = (0,8);
target = (1,11);
type = Stem;
},
{
origin = (1,5);
target = (0,2);
type = Stem;
}
);
layerId = "B06945F2-A2F9-4CD6-84EB-56F06A9D6A7E";
shapes = (
{
closed = 1;
nodes = (
(521,-10,o),
(612,122,o),
(612,332,cs),
(612,539,o),
(519,668,o),
(333,668,cs),
(148,668,o),
(55,539,o),
(55,332,cs),
(55,122,o),
(146,-10,o),
(333,-10,cs)
);
},
{
closed = 1;
nodes = (
(165,496,o),
(225,571,o),
(333,571,cs),
(443,571,o),
(501,496,o),
(501,332,cs),
(501,179,o),
(449,88,o),
(333,88,cs),
(216,88,o),
(165,180,o),
(165,332,cs)
);
}
);
width = 667;
}
);
note = O;
unicode = 79;
},
{
glyphname = P;
kernLeft = B;
kernRight = P;
lastChange = "2023-01-08 12:58:05 +0000";
layers = (
{
anchors = (
{
name = top;
pos = (248,677);
}
);
hints = (
{
horizontal = 1;
origin = (0,10);
target = up;
type = BottomGhost;
},
{
horizontal = 1;
origin = (0,1);
target = (1,0);
type = Stem;
},
{
horizontal = 1;
origin = (1,1);
target = (0,9);
type = Stem;
},
{
origin = (0,10);
target = (0,0);
type = Stem;
},
{
origin = (1,5);
target = (0,5);
type = Stem;
}
);
layerId = m01;
shapes = (
{
closed = 1;
nodes = (
(156,0,l),
(156,279,l),
(346,279,ls),
(474,279,o),
(555,353,o),
(555,477,cs),
(555,598,o),
(471,677,o),
(346,677,cs),
(70,677,l),
(70,0,l)
);
},
{
closed = 1;
nodes = (
(156,351,l),
(156,605,l),
(339,605,ls),
(416,605,o),
(469,561,o),
(469,477,cs),
(469,393,o),
(419,351,o),
(339,351,cs)
);
}
);
width = 598;
},
{
anchors = (
{
name = top;
pos = (322,761);
}
);
hints = (
{
horizontal = 1;
origin = (0,10);
target = up;
type = BottomGhost;
},
{
horizontal = 1;
origin = (0,1);
target = (1,0);
type = Stem;
},
{
horizontal = 1;
origin = (1,1);
target = (0,9);
type = Stem;
},
{
origin = (0,10);
target = (0,0);
type = Stem;
},
{
origin = (1,5);
target = (0,5);
type = Stem;
}
);
layerId = "EED8C670-EB0D-45AD-8912-54AB4C6FD6BA";
shapes = (
{
closed = 1;
nodes = (
(226,0,l),
(226,286,l),
(384,286,ls),
(533,286,o),
(625,381,o),
(625,523,cs),
(625,664,o),
(530,761,o),
(384,761,cs),
(75,761,l),
(75,0,l)
);
},
{
closed = 1;
nodes = (
(226,427,l),
(226,620,l),
(377,620,ls),
(440,620,o),
(474,587,o),
(474,523,cs),
(474,459,o),
(442,427,o),
(377,427,cs)
);
}
);
width = 657;
},
{
anchors = (
{
name = top;
pos = (253,678);
}
);
hints = (
{
horizontal = 1;
origin = (0,0);
target = up;
type = BottomGhost;
},
{
horizontal = 1;
origin = (0,2);
target = (1,0);
type = Stem;
},
{
horizontal = 1;
origin = (0,10);
target = (1,1);
type = Stem;
},
{
origin = (0,0);
target = (0,1);
type = Stem;
},
{
origin = (1,5);
target = (0,6);
type = Stem;
}
);
layerId = "B06945F2-A2F9-4CD6-84EB-56F06A9D6A7E";
shapes = (
{
closed = 1;
nodes = (
(65,0,l),
(178,0,l),
(178,267,l),
(344,267,ls),
(476,267,o),
(559,346,o),
(559,472,cs),
(559,596,o),
(473,678,o),
(344,678,cs),
(65,678,l)
);
},
{
closed = 1;
nodes = (
(178,367,l),
(178,579,l),
(338,579,ls),
(407,579,o),
(447,540,o),
(447,472,cs),
(447,403,o),
(409,367,o),
(338,367,cs)
);
}
);
width = 598;
}
);
metricLeft = B;
note = P;
unicode = 80;
},
{
glyphname = Q;
kernLeft = O;
kernRight = O;
lastChange = "2023-01-08 12:57:58 +0000";
layers = (
{
anchors = (
{
name = top;
pos = (343,677);
}
);
hints = (
{
horizontal = 1;
origin = (0,14);
target = (1,8);
type = Stem;
},
{
horizontal = 1;
origin = (0,8);
target = (1,2);
type = Stem;
},
{
origin = (0,11);
target = (1,11);
type = Stem;
},
{
origin = (0,1);
target = (0,5);
type = Stem;
}
);
layerId = m01;
shapes = (
{
closed = 1;
nodes = (
(502,-168,l),
(539,-102,l),
(428,6,l),
(560,35,o),
(626,152,o),
(626,337,cs),
(626,550,o),
(535,682,o),
(343,682,cs),
(152,682,o),
(60,550,o),
(60,337,cs),
(60,120,o),
(151,-14,o),
(342,-14,c)
);
},
{
closed = 1;
nodes = (
(147,519,o),
(213,610,o),
(343,610,cs),
(474,607,o),
(539,516,o),
(539,337,cs),
(539,186,o),
(494,59,o),
(343,59,cs),
(189,59,o),
(146,197,o),
(146,337,cs)
);
}
);
width = 686;
},
{
anchors = (
{
name = top;
pos = (381,761);
}
);
hints = (
{
horizontal = 1;
origin = (1,5);
target = (0,8);
type = Stem;
},
{
origin = (0,11);
target = (1,2);
type = Stem;
},
{
origin = (1,8);
target = (0,5);
type = Stem;
}
);
layerId = "EED8C670-EB0D-45AD-8912-54AB4C6FD6BA";
shapes = (
{
closed = 1;
nodes = (
(547,-175,l),
(618,-51,l),
(527,37,l),
(638,86,o),
(696,205,o),
(696,382,cs),
(696,616,o),
(588,760,o),
(381,760,cs),
(173,760,o),
(65,616,o),
(65,382,cs),
(65,150,o),
(166,5,o),
(366,-1,c)
);
},
{
closed = 1;
nodes = (
(267,137,o),
(216,224,o),
(216,382,cs),
(216,548,o),
(273,623,o),
(381,623,cs),
(496,623,o),
(544,539,o),
(544,382,cs),
(544,226,o),
(494,137,o),
(381,137,cs)
);
}
);
width = 761;
},
{
anchors = (
{
name = top;
pos = (333,678);
}
);
hints = (
{
horizontal = 1;
origin = (0,14);
target = (1,11);
type = Stem;
},
{
horizontal = 1;
origin = (1,5);
target = (0,8);
type = Stem;
},
{
origin = (0,11);
target = (1,2);
type = Stem;
},
{
origin = (1,8);
target = (0,5);
type = Stem;
}
);
layerId = "B06945F2-A2F9-4CD6-84EB-56F06A9D6A7E";
shapes = (
{
closed = 1;
nodes = (
(570,-50,l),
(488,29,l),
(483,28,l),
(569,82,o),
(612,183,o),
(612,332,cs),
(612,536,o),
(520,668,o),
(333,668,cs),
(151,668,o),
(55,540,o),
(55,332,cs),
(55,118,o),
(149,-10,o),
(333,-10,cs),
(348,-10,o),
(362,-9,o),
(376,-8,c),
(517,-144,l)
);
},
{
closed = 1;
nodes = (
(221,88,o),
(165,169,o),
(165,332,cs),
(165,491,o),
(221,571,o),
(333,571,cs),
(445,571,o),
(501,491,o),
(501,332,cs),
(501,169,o),
(445,88,o),
(333,88,cs)
);
}
);
width = 667;
}
);
metricLeft = O;
metricRight = O;
note = Q;
unicode = 81;
},
{
glyphname = R;
kernLeft = B;
kernRight = R;
lastChange = "2023-01-08 12:57:53 +0000";
layers = (
{
anchors = (
{
name = top;
pos = (248,677);
}
);
hints = (
{
horizontal = 1;
origin = (0,9);
target = up;
type = BottomGhost;
},
{
horizontal = 1;
origin = (0,11);
target = (1,0);
type = Stem;
},
{
horizontal = 1;
origin = (1,1);
target = (0,8);
type = Stem;
},
{
origin = (0,9);
target = (0,10);
type = Stem;
},
{
origin = (1,5);
target = (0,4);
type = Stem;
}
);
layerId = m01;
shapes = (
{
closed = 1;
nodes = (
(579,0,l),
(407,283,l),
(499,302,o),
(555,370,o),
(555,474,cs),
(555,598,o),
(470,677,o),
(346,677,cs),
(70,677,l),
(70,0,l),
(156,0,l),
(156,272,l),
(319,272,l),
(481,0,l)
);
},
{
closed = 1;
nodes = (
(156,345,l),
(156,605,l),
(339,605,ls),
(414,605,o),
(469,557,o),
(469,474,cs),
(469,391,o),
(416,345,o),
(339,345,cs)
);
}
);
width = 607;
},
{
anchors = (
{
name = top;
pos = (322,761);
}
);
hints = (
{
horizontal = 1;
origin = (0,9);
target = up;
type = BottomGhost;
},
{
horizontal = 1;
origin = (0,11);
target = (1,0);
type = Stem;
},
{
horizontal = 1;
origin = (1,1);
target = (0,8);
type = Stem;
},
{
origin = (0,9);
target = (0,10);
type = Stem;
},
{
origin = (1,5);
target = (0,4);
type = Stem;
}
);
layerId = "EED8C670-EB0D-45AD-8912-54AB4C6FD6BA";
shapes = (
{
closed = 1;
nodes = (
(674,0,l),
(494,304,l),
(577,338,o),
(625,417,o),
(625,520,cs),
(625,662,o),
(529,761,o),
(384,761,cs),
(75,761,l),
(75,0,l),
(226,0,l),
(226,279,l),
(338,279,l),
(500,0,l)
);
},
{
closed = 1;
nodes = (
(226,421,l),
(226,620,l),
(377,620,ls),
(436,620,o),
(474,581,o),
(474,520,cs),
(474,455,o),
(440,421,o),
(377,421,cs)
);
}
);
width = 688;
},
{
anchors = (
{
name = top;
pos = (243,678);
}
);
hints = (
{
horizontal = 1;
origin = (0,10);
target = up;
type = BottomGhost;
},
{
horizontal = 1;
origin = (0,12);
target = (1,0);
type = Stem;
},
{
horizontal = 1;
origin = (1,1);
target = (0,9);
type = Stem;
},
{
origin = (0,10);
target = (0,11);
type = Stem;
},
{
origin = (1,5);
target = (0,5);
type = Stem;
}
);
layerId = "B06945F2-A2F9-4CD6-84EB-56F06A9D6A7E";
shapes = (
{
closed = 1;
nodes = (
(465,-3,l),
(594,-3,l),
(426,273,l),
(510,298,o),
(559,369,o),
(559,466,cs),
(559,590,o),
(475,675,o),
(344,675,cs),
(65,675,l),
(65,-3,l),
(178,-3,l),
(178,258,l),
(309,258,l)
);
},
{
closed = 1;
nodes = (
(178,358,l),
(178,576,l),
(338,576,ls),
(403,576,o),
(447,532,o),
(447,466,cs),
(447,397,o),
(407,358,o),
(338,358,cs)
);
}
);
width = 617;
}
);
metricLeft = B;
note = R;
unicode = 82;
},
{
glyphname = S;
lastChange = "2023-01-08 12:57:49 +0000";
layers = (
{
anchors = (
{
name = top;
pos = (302,677);
}
);
hints = (
{
horizontal = 1;
origin = (0,43);
target = (0,36);
type = Stem;
},
{
horizontal = 1;
origin = (0,39);
target = down;
type = TopGhost;
},
{
horizontal = 1;
origin = (0,14);
target = (0,21);
type = Stem;
},
{
origin = (0,24);
target = (0,11);
type = Stem;
},
{
origin = (0,33);
target = (0,2);
type = Stem;
}
);
layerId = m01;
shapes = (
{
closed = 1;
nodes = (
(424,-12,o),
(523,56,o),
(523,183,cs),
(523,264,o),
(482,309,o),
(424,338,cs),
(395,353,o),
(364,365,o),
(332,375,cs),
(250,399,o),
(140,422,o),
(140,509,cs),
(142,578,o),
(190,613,o),
(285,613,cs),
(342,613,o),
(404,606,o),
(511,578,c),
(497,651,l),
(430,673,o),
(359,684,o),
(284,684,cs),
(145,684,o),
(53,628,o),
(53,509,cs),
(53,429,o),
(95,383,o),
(153,354,cs),
(182,339,o),
(212,327,o),
(245,317,cs),
(329,291,o),
(438,265,o),
(438,177,cs),
(438,117,o),
(388,59,o),
(280,59,cs),
(223,59,o),
(144,70,o),
(43,91,c),
(43,21,l),
(126,-3,o),
(208,-12,o),
(284,-12,cs)
);
}
);
width = 567;
},
{
anchors = (
{
name = top;
pos = (329,761);
}
);
hints = (
{
horizontal = 1;
origin = (0,43);
target = (0,36);
type = Stem;
},
{
horizontal = 1;
origin = (0,14);
target = (0,21);
type = Stem;
},
{
origin = (0,24);
target = (0,11);
type = Stem;
},
{
origin = (0,33);
target = (0,2);
type = Stem;
}
);
layerId = "EED8C670-EB0D-45AD-8912-54AB4C6FD6BA";
shapes = (
{
closed = 1;
nodes = (
(497,-11,o),
(600,78,o),
(600,217,cs),
(600,287,o),
(573,340,o),
(518,380,cs),
(475,411,o),
(422,428,o),
(364,446,cs),
(269,475,o),
(217,493,o),
(217,542,cs),
(217,576,o),
(230,614,o),
(329,614,cs),
(408,614,o),
(456,605,o),
(597,566,c),
(570,710,l),
(470,739,o),
(415,750,o),
(328,750,cs),
(167,750,o),
(65,677,o),
(65,542,cs),
(65,474,o),
(92,421,o),
(146,381,cs),
(190,349,o),
(244,331,o),
(300,313,cs),
(393,284,o),
(450,264,o),
(450,211,cs),
(450,151,o),
(388,125,o),
(324,125,cs),
(244,125,o),
(177,138,o),
(55,165,c),
(55,30,l),
(148,3,o),
(221,-11,o),
(328,-11,cs)
);
}
);
width = 655;
},
{
anchors = (
{
name = top;
pos = (279,678);
}
);
hints = (
{
horizontal = 1;
origin = (0,37);
target = (0,30);
type = Stem;
},
{
horizontal = 1;
origin = (0,11);
target = (0,18);
type = Stem;
},
{
origin = (0,21);
target = (0,8);
type = Stem;
},
{
origin = (0,27);
target = (0,2);
type = Stem;
}
);
layerId = "B06945F2-A2F9-4CD6-84EB-56F06A9D6A7E";
shapes = (
{
closed = 1;
nodes = (
(425,-10,o),
(516,66,o),
(516,187,cs),
(516,246,o),
(493,292,o),
(445,326,cs),
(346,398,o),
(159,392,o),
(159,490,cs),
(159,545,o),
(198,572,o),
(279,572,cs),
(345,572,o),
(394,565,o),
(508,533,c),
(489,634,l),
(405,658,o),
(353,668,o),
(278,668,cs),
(138,668,o),
(48,608,o),
(48,490,cs),
(48,431,o),
(71,386,o),
(118,352,cs),
(220,277,o),
(406,284,o),
(406,181,cs),
(406,137,o),
(372,86,o),
(274,86,cs),
(205,86,o),
(142,96,o),
(39,119,c),
(39,24,l),
(117,2,o),
(187,-10,o),
(278,-10,cs)
);
}
);
width = 555;
}
);
note = S;
unicode = 83;
},
{
glyphname = T;
kernLeft = T;
kernRight = T;
lastChange = "2023-01-08 12:57:43 +0000";
layers = (
{
anchors = (
{
name = top;
pos = (270,677);
}
);
hints = (
{
horizontal = 1;
origin = (0,7);
target = up;
type = BottomGhost;
},
{
horizontal = 1;
origin = (0,5);
target = (0,4);
type = Stem;
},
{
origin = (0,7);
target = (0,0);
type = Stem;
}
);
layerId = m01;
shapes = (
{
closed = 1;
nodes = (
(313,0,l),
(313,605,l),
(494,605,l),
(507,677,l),
(33,677,l),
(47,605,l),
(227,605,l),
(227,0,l)
);
}
);
width = 540;
},
{
anchors = (
{
name = top;
pos = (322,761);
}
);
hints = (
{
horizontal = 1;
origin = (0,7);
target = up;
type = BottomGhost;
},
{
horizontal = 1;
origin = (0,5);
target = (0,4);
type = Stem;
},
{
origin = (0,7);
target = (0,0);
type = Stem;
}
);
layerId = "EED8C670-EB0D-45AD-8912-54AB4C6FD6BA";
shapes = (
{
closed = 1;
nodes = (
(397,0,l),
(397,620,l),
(572,620,l),
(598,761,l),
(45,761,l),
(71,620,l),
(246,620,l),
(246,0,l)
);
}
);
width = 643;
},
{
anchors = (
{
name = top;
pos = (279,678);
}
);
hints = (
{
horizontal = 1;
origin = (0,0);
target = up;
type = BottomGhost;
},
{
horizontal = 1;
origin = (0,5);
target = (0,6);
type = Stem;
},
{
origin = (0,0);
target = (0,1);
type = Stem;
}
);
layerId = "B06945F2-A2F9-4CD6-84EB-56F06A9D6A7E";
shapes = (
{
closed = 1;
nodes = (
(219,0,l),
(332,0,l),
(332,579,l),
(502,579,l),
(521,678,l),
(30,678,l),
(49,579,l),
(219,579,l)
);
}
);
width = 551;
}
);
note = T;
unicode = 84;
},
{
glyphname = U;
lastChange = "2023-01-06 21:19:04 +0000";
layers = (
{
anchors = (
{
name = top;
pos = (324,677);
}
);
hints = (
{
horizontal = 1;
origin = (0,17);
target = (0,8);
type = Stem;
},
{
origin = (0,14);
target = (0,11);
type = Stem;
},
{
origin = (0,5);
target = (0,2);
type = Stem;
}
);
layerId = m01;
shapes = (
{
closed = 1;
nodes = (
(483,-12,o),
(577,69,o),
(577,240,cs),
(577,661,l),
(490,674,l),
(490,240,ls),
(490,164,o),
(474,61,o),
(323,61,cs),
(175,61,o),
(156,165,o),
(156,240,cs),
(156,661,l),
(70,674,l),
(70,240,ls),
(70,69,o),
(163,-12,o),
(323,-12,cs)
);
}
);
width = 647;
},
{
anchors = (
{
name = top;
pos = (341,761);
}
);
hints = (
{
horizontal = 1;
origin = (0,17);
target = (0,8);
type = Stem;
},
{
horizontal = 1;
origin = (0,13);
target = down;
type = TopGhost;
},
{
origin = (0,14);
target = (0,11);
type = Stem;
},
{
origin = (0,5);
target = (0,2);
type = Stem;
}
);
layerId = "EED8C670-EB0D-45AD-8912-54AB4C6FD6BA";
shapes = (
{
closed = 1;
nodes = (
(518,-15,o),
(627,80,o),
(627,271,cs),
(627,737,l),
(475,761,l),
(475,271,ls),
(475,171,o),
(441,124,o),
(341,124,cs),
(250,124,o),
(206,165,o),
(206,271,cs),
(206,737,l),
(55,761,l),
(55,271,ls),
(55,80,o),
(164,-15,o),
(341,-15,cs)
);
}
);
width = 682;
},
{
anchors = (
{
name = top;
pos = (318,678);
}
);
hints = (
{
horizontal = 1;
origin = (0,17);
target = (0,8);
type = Stem;
},
{
origin = (0,14);
target = (0,11);
type = Stem;
},
{
origin = (0,5);
target = (0,2);
type = Stem;
}
);
layerId = "B06945F2-A2F9-4CD6-84EB-56F06A9D6A7E";
shapes = (
{
closed = 1;
nodes = (
(477,-10,o),
(572,72,o),
(572,242,cs),
(572,650,l),
(460,668,l),
(460,242,ls),
(460,171,o),
(444,89,o),
(318,89,cs),
(225,89,o),
(176,133,o),
(176,242,cs),
(176,650,l),
(65,668,l),
(65,242,ls),
(65,72,o),
(160,-10,o),
(318,-10,cs)
);
}
);
width = 637;
}
);
note = U;
unicode = 85;
},
{
glyphname = V;
kernLeft = V;
kernRight = V;
lastChange = "2023-01-08 12:57:35 +0000";
layers = (
{
anchors = (
{
name = top;
pos = (314,677);
}
);
hints = (
{
horizontal = 1;
origin = (0,6);
target = up;
type = BottomGhost;
},
{
horizontal = 1;
origin = (0,3);
target = down;
type = TopGhost;
},
{
origin = (0,5);
target = (0,1);
type = Stem;
}
);
layerId = m01;
shapes = (
{
closed = 1;
nodes = (
(361,0,l),
(602,682,l),
(517,682,l),
(313,92,l),
(114,682,l),
(26,682,l),
(260,0,l)
);
}
);
width = 627;
},
{
anchors = (
{
name = top;
pos = (352,761);
}
);
hints = (
{
horizontal = 1;
origin = (0,6);
target = up;
type = BottomGhost;
},
{
horizontal = 1;
origin = (0,5);
target = down;
type = TopGhost;
},
{
origin = (0,5);
target = (0,1);
type = Stem;
}
);
layerId = "EED8C670-EB0D-45AD-8912-54AB4C6FD6BA";
shapes = (
{
closed = 1;
nodes = (
(422,0,l),
(686,761,l),
(532,761,l),
(351,229,l),
(175,761,l),
(18,761,l),
(274,0,l)
);
}
);
width = 704;
},
{
anchors = (
{
name = top;
pos = (315,678);
}
);
hints = (
{
horizontal = 1;
origin = (0,0);
target = up;
type = BottomGhost;
},
{
horizontal = 1;
origin = (0,6);
target = down;
type = TopGhost;
},
{
origin = (0,6);
target = (0,2);
type = Stem;
}
);
layerId = "B06945F2-A2F9-4CD6-84EB-56F06A9D6A7E";
shapes = (
{
closed = 1;
nodes = (
(253,0,l),
(371,0,l),
(611,678,l),
(498,678,l),
(314,149,l),
(136,678,l),
(20,678,l)
);
}
);
width = 631;
}
);
note = V;
unicode = 86;
},
{
glyphname = W;
kernLeft = V;
kernRight = V;
lastChange = "2023-01-06 21:19:04 +0000";
layers = (
{
anchors = (
{
name = top;
pos = (459,677);
}
);
hints = (
{
horizontal = 1;
origin = (0,17);
target = up;
type = BottomGhost;
},
{
horizontal = 1;
origin = (0,17);
target = (0,12);
type = Stem;
},
{
origin = (0,16);
target = (0,1);
type = Stem;
}
);
layerId = m01;
shapes = (
{
closed = 1;
nodes = (
(706,0,l),
(891,682,l),
(806,682,l),
(755,501,o),
(705,314,o),
(657,120,c),
(611,302,o),
(561,489,o),
(506,682,c),
(414,682,l),
(360,491,o),
(310,304,o),
(264,120,c),
(216,314,o),
(166,501,o),
(115,682,c),
(26,682,l),
(210,0,l),
(311,0,l),
(459,540,l),
(606,0,l)
);
}
);
width = 916;
},
{
anchors = (
{
name = top;
pos = (493,761);
}
);
hints = (
{
horizontal = 1;
origin = (0,17);
target = up;
type = BottomGhost;
},
{
horizontal = 1;
origin = (0,16);
target = down;
type = TopGhost;
},
{
origin = (0,16);
target = (0,1);
type = Stem;
}
);
layerId = "EED8C670-EB0D-45AD-8912-54AB4C6FD6BA";
shapes = (
{
closed = 1;
nodes = (
(765,0,l),
(968,761,l),
(816,761,l),
(774,604,o),
(733,447,o),
(691,290,c),
(649,447,o),
(608,604,o),
(566,761,c),
(423,761,l),
(339,445,o),
(377,601,o),
(299,290,c),
(257,447,o),
(216,604,o),
(174,761,c),
(18,761,l),
(220,0,l),
(370,0,l),
(493,458,l),
(616,0,l)
);
}
);
width = 986;
},
{
anchors = (
{
name = top;
pos = (451,678);
}
);
hints = (
{
horizontal = 1;
origin = (0,10);
target = up;
type = BottomGhost;
},
{
horizontal = 1;
origin = (0,9);
target = down;
type = TopGhost;
},
{
origin = (0,9);
target = (0,2);
type = Stem;
}
);
layerId = "B06945F2-A2F9-4CD6-84EB-56F06A9D6A7E";
shapes = (
{
closed = 1;
nodes = (
(580,0,l),
(698,0,l),
(882,678,l),
(770,678,l),
(640,191,l),
(508,678,l),
(397,678,l),
(266,191,l),
(136,678,l),
(20,678,l),
(204,0,l),
(323,0,l),
(452,471,l)
);
}
);
width = 902;
}
);
metricLeft = V;
metricRight = V;
note = W;
unicode = 87;
},
{
glyphname = X;
lastChange = "2023-01-08 12:57:27 +0000";
layers = (
{
anchors = (
{
name = top;
pos = (319,677);
}
);
hints = (
{
horizontal = 1;
origin = (0,12);
target = up;
type = BottomGhost;
},
{
origin = (0,12);
target = (0,0);
type = Stem;
}
);
layerId = m01;
shapes = (
{
closed = 1;
nodes = (
(607,0,l),
(370,355,l),
(582,677,l),
(488,677,l),
(431,591,o),
(375,504,o),
(320,417,c),
(263,508,o),
(206,594,o),
(149,677,c),
(52,677,l),
(263,355,l),
(30,0,l),
(122,0,l),
(311,292,l),
(372,199,o),
(437,102,o),
(507,0,c)
);
}
);
width = 637;
},
{
anchors = (
{
name = top;
pos = (370,761);
}
);
hints = (
{
horizontal = 1;
origin = (0,12);
target = up;
type = BottomGhost;
},
{
horizontal = 1;
origin = (0,10);
target = down;
type = TopGhost;
},
{
origin = (0,12);
target = (0,0);
type = Stem;
}
);
layerId = "EED8C670-EB0D-45AD-8912-54AB4C6FD6BA";
shapes = (
{
closed = 1;
nodes = (
(719,0,l),
(461,398,l),
(694,761,l),
(521,761,l),
(471,682,o),
(421,602,o),
(371,523,c),
(320,602,o),
(269,682,o),
(218,761,c),
(43,761,l),
(275,398,l),
(21,0,l),
(191,0,l),
(363,272,l),
(422,181,o),
(482,91,o),
(541,0,c)
);
}
);
width = 739;
},
{
anchors = (
{
name = top;
pos = (330,678);
}
);
hints = (
{
horizontal = 1;
origin = (0,9);
target = up;
type = BottomGhost;
},
{
horizontal = 1;
origin = (0,7);
target = down;
type = TopGhost;
},
{
origin = (0,9);
target = (0,1);
type = Stem;
}
);
layerId = "B06945F2-A2F9-4CD6-84EB-56F06A9D6A7E";
shapes = (
{
closed = 1;
nodes = (
(503,0,l),
(635,0,l),
(399,355,l),
(611,678,l),
(484,678,l),
(332,443,l),
(177,678,l),
(48,678,l),
(259,355,l),
(27,0,l),
(151,0,l),
(324,267,l)
);
}
);
width = 662;
}
);
note = X;
unicode = 88;
},
{
glyphname = Y;
kernLeft = V;
kernRight = V;
lastChange = "2023-01-06 21:19:04 +0000";
layers = (
{
anchors = (
{
name = top;
pos = (298,677);
}
);
hints = (
{
horizontal = 1;
origin = (0,12);
target = up;
type = BottomGhost;
},
{
origin = (0,12);
target = (0,0);
type = Stem;
}
);
layerId = m01;
shapes = (
{
closed = 1;
nodes = (
(341,0,l),
(341,234,l),
(571,677,l),
(484,677,l),
(425,564,o),
(364,445,o),
(300,320,c),
(240,439,o),
(179,558,o),
(116,677,c),
(24,677,l),
(255,234,l),
(255,0,l)
);
}
);
width = 596;
},
{
anchors = (
{
name = top;
pos = (345,761);
}
);
hints = (
{
horizontal = 1;
origin = (0,12);
target = up;
type = BottomGhost;
},
{
horizontal = 1;
origin = (0,10);
target = down;
type = TopGhost;
},
{
origin = (0,12);
target = (0,0);
type = Stem;
}
);
layerId = "EED8C670-EB0D-45AD-8912-54AB4C6FD6BA";
shapes = (
{
closed = 1;
nodes = (
(421,0,l),
(421,265,l),
(673,761,l),
(512,761,l),
(457,652,o),
(403,544,o),
(348,435,c),
(293,544,o),
(238,652,o),
(183,761,c),
(18,761,l),
(270,265,l),
(270,0,l)
);
}
);
width = 691;
},
{
anchors = (
{
name = top;
pos = (311,678);
}
);
hints = (
{
horizontal = 1;
origin = (0,0);
target = up;
type = BottomGhost;
},
{
horizontal = 1;
origin = (0,7);
target = down;
type = TopGhost;
},
{
origin = (0,0);
target = (0,1);
type = Stem;
}
);
layerId = "B06945F2-A2F9-4CD6-84EB-56F06A9D6A7E";
shapes = (
{
closed = 1;
nodes = (
(253,0,l),
(365,0,l),
(365,235,l),
(596,678,l),
(477,678,l),
(311,355,l),
(144,678,l),
(22,678,l),
(253,235,l)
);
}
);
width = 618;
}
);
note = Y;
unicode = 89;
},
{
glyphname = Z;
kernRight = Z;
lastChange = "2023-01-08 12:59:58 +0000";
layers = (
{
anchors = (
{
name = top;
pos = (294,677);
}
);
hints = (
{
horizontal = 1;
origin = (0,9);
target = (0,2);
type = Stem;
},
{
horizontal = 1;
origin = (0,6);
target = (0,5);
type = Stem;
},
{
origin = (0,9);
target = (0,0);
type = Stem;
}
);
layerId = m01;
shapes = (
{
closed = 1;
nodes = (
(522,0,l),
(509,73,l),
(153,73,l),
(511,618,l),
(511,677,l),
(76,677,l),
(63,605,l),
(402,605,l),
(43,58,l),
(43,0,l)
);
}
);
width = 565;
},
{
anchors = (
{
name = top;
pos = (318,761);
}
);
hints = (
{
horizontal = 1;
origin = (0,9);
target = up;
type = BottomGhost;
},
{
horizontal = 1;
origin = (0,2);
target = down;
type = TopGhost;
},
{
horizontal = 1;
origin = (0,6);
target = (0,5);
type = Stem;
},
{
origin = (0,9);
target = (0,0);
type = Stem;
}
);
layerId = "EED8C670-EB0D-45AD-8912-54AB4C6FD6BA";
shapes = (
{
closed = 1;
nodes = (
(583,0,l),
(557,142,l),
(235,142,l),
(565,658,l),
(565,761,l),
(71,761,l),
(45,620,l),
(363,620,l),
(32,103,l),
(32,0,l)
);
}
);
width = 615;
},
{
anchors = (
{
name = top;
pos = (297,678);
}
);
hints = (
{
horizontal = 1;
origin = (0,0);
target = (0,3);
type = Stem;
},
{
horizontal = 1;
origin = (0,6);
target = (0,7);
type = Stem;
},
{
origin = (0,0);
target = (0,1);
type = Stem;
}
);
layerId = "B06945F2-A2F9-4CD6-84EB-56F06A9D6A7E";
shapes = (
{
closed = 1;
nodes = (
(40,0,l),
(532,0,l),
(514,100,l),
(189,100,l),
(518,603,l),
(518,678,l),
(75,678,l),
(56,579,l),
(371,579,l),
(40,76,l)
);
}
);
width = 571;
}
);
note = Z;
unicode = 90;
},
{
glyphname = bracketleft;
lastChange = "2023-01-06 21:19:04 +0000";
layers = (
{
hints = (
{
horizontal = 1;
origin = (0,7);
target = (0,2);
type = Stem;
},
{
horizontal = 1;
origin = (0,3);
target = (0,6);
type = Stem;
},
{
origin = (0,7);
target = (0,2);
type = Stem;
},
{
origin = (0,7);
target = (0,0);
type = Stem;
}
);
layerId = m01;
shapes = (
{
closed = 1;
nodes = (
(293,-91,l),
(293,-31,l),
(189,-31,l),
(189,679,l),
(293,679,l),
(293,739,l),
(113,739,l),
(113,-91,l)
);
}
);
width = 342;
},
{
hints = (
{
horizontal = 1;
origin = (0,7);
target = (0,2);
type = Stem;
},
{
horizontal = 1;
origin = (0,3);
target = (0,6);
type = Stem;
},
{
origin = (0,7);
target = (0,2);
type = Stem;
}
);
layerId = "EED8C670-EB0D-45AD-8912-54AB4C6FD6BA";
shapes = (
{
closed = 1;
nodes = (
(435,-93,l),
(435,24,l),
(262,24,l),
(262,741,l),
(435,741,l),
(435,858,l),
(109,858,l),
(109,-93,l)
);
}
);
width = 472;
},
{
hints = (
{
horizontal = 1;
origin = (0,3);
target = (0,0);
type = Stem;
},
{
horizontal = 1;
origin = (0,4);
target = (0,7);
type = Stem;
},
{
origin = (0,0);
target = (0,3);
type = Stem;
},
{
origin = (0,0);
target = (0,1);
type = Stem;
}
);
layerId = "B06945F2-A2F9-4CD6-84EB-56F06A9D6A7E";
shapes = (
{
closed = 1;
nodes = (
(112,-92,l),
(324,-92,l),
(324,0,l),
(220,0,l),
(220,678,l),
(324,678,l),
(324,770,l),
(112,770,l)
);
}
);
width = 369;
}
);
note = bracketleft;
unicode = 91;
},
{
glyphname = backslash;
lastChange = "2023-01-06 21:19:04 +0000";
layers = (
{
hints = (
{
horizontal = 1;
origin = (0,3);
target = (0,2);
type = Stem;
},
{
origin = (0,2);
target = (0,0);
type = Stem;
}
);
layerId = m01;
shapes = (
{
closed = 1;
nodes = (
(302,-51,l),
(109,718,l),
(36,718,l),
(230,-51,l)
);
}
);
width = 339;
},
{
hints = (
{
horizontal = 1;
origin = (0,3);
target = (0,2);
type = Stem;
},
{
origin = (0,2);
target = (0,0);
type = Stem;
}
);
layerId = "EED8C670-EB0D-45AD-8912-54AB4C6FD6BA";
shapes = (
{
closed = 1;
nodes = (
(585,-61,l),
(199,857,l),
(48,857,l),
(435,-61,l)
);
}
);
width = 634;
},
{
hints = (
{
horizontal = 1;
origin = (0,0);
target = up;
type = BottomGhost;
},
{
horizontal = 1;
origin = (0,3);
target = down;
type = TopGhost;
},
{
origin = (0,3);
target = (0,1);
type = Stem;
}
);
layerId = "B06945F2-A2F9-4CD6-84EB-56F06A9D6A7E";
shapes = (
{
closed = 1;
nodes = (
(223,-11,l),
(331,-11,l),
(149,689,l),
(40,689,l)
);
}
);
width = 372;
}
);
note = backslash;
unicode = 92;
},
{
glyphname = bracketright;
lastChange = "2023-01-06 21:19:04 +0000";
layers = (
{
hints = (
{
horizontal = 1;
origin = (0,7);
target = (0,6);
type = Stem;
},
{
horizontal = 1;
origin = (0,3);
target = (0,2);
type = Stem;
},
{
origin = (0,7);
target = (0,0);
type = Stem;
},
{
origin = (0,5);
target = (0,0);
type = Stem;
}
);
layerId = m01;
shapes = (
{
closed = 1;
nodes = (
(229,-91,l),
(229,739,l),
(49,739,l),
(49,679,l),
(154,679,l),
(154,-31,l),
(49,-31,l),
(49,-91,l)
);
}
);
width = 342;
},
{
hints = (
{
horizontal = 1;
origin = (0,7);
target = (0,6);
type = Stem;
},
{
horizontal = 1;
origin = (0,3);
target = (0,2);
type = Stem;
},
{
origin = (0,5);
target = (0,0);
type = Stem;
}
);
layerId = "EED8C670-EB0D-45AD-8912-54AB4C6FD6BA";
shapes = (
{
closed = 1;
nodes = (
(362,-93,l),
(362,858,l),
(36,858,l),
(36,741,l),
(209,741,l),
(209,24,l),
(36,24,l),
(36,-93,l)
);
}
);
width = 471;
},
{
hints = (
{
horizontal = 1;
origin = (0,7);
target = (0,0);
type = Stem;
},
{
horizontal = 1;
origin = (0,4);
target = (0,3);
type = Stem;
},
{
origin = (0,0);
target = (0,1);
type = Stem;
},
{
origin = (0,6);
target = (0,1);
type = Stem;
}
);
layerId = "B06945F2-A2F9-4CD6-84EB-56F06A9D6A7E";
shapes = (
{
closed = 1;
nodes = (
(45,-92,l),
(257,-92,l),
(257,770,l),
(45,770,l),
(45,678,l),
(150,678,l),
(150,0,l),
(45,0,l)
);
}
);
width = 368;
}
);
note = bracketright;
unicode = 93;
},
{
glyphname = asciicircum;
lastChange = "2023-01-06 21:19:04 +0000";
layers = (
{
hints = (
{
horizontal = 1;
origin = (0,3);
target = (0,2);
type = Stem;
},
{
origin = (0,3);
target = (0,0);
type = Stem;
}
);
layerId = m01;
shapes = (
{
closed = 1;
nodes = (
(456,313,l),
(253,746,l),
(203,746,l),
(0,313,l),
(62,313,l),
(226,675,l),
(389,313,l)
);
}
);
width = 516;
},
{
hints = (
{
horizontal = 1;
origin = (0,3);
target = (0,2);
type = Stem;
},
{
origin = (0,3);
target = (0,0);
type = Stem;
}
);
layerId = "EED8C670-EB0D-45AD-8912-54AB4C6FD6BA";
shapes = (
{
closed = 1;
nodes = (
(675,313,l),
(390,727,l),
(269,727,l),
(0,313,l),
(155,313,l),
(330,590,l),
(519,313,l)
);
}
);
width = 735;
},
{
hints = (
{
horizontal = 1;
origin = (0,4);
target = (0,3);
type = Stem;
},
{
origin = (0,4);
target = (0,1);
type = Stem;
}
);
layerId = "B06945F2-A2F9-4CD6-84EB-56F06A9D6A7E";
shapes = (
{
closed = 1;
nodes = (
(498,156,l),
(614,156,l),
(371,610,l),
(277,610,l),
(34,156,l),
(150,156,l),
(324,477,l)
);
}
);
width = 698;
}
);
note = asciicircum;
unicode = 94;
},
{
glyphname = underscore;
lastChange = "2023-01-06 21:19:04 +0000";
layers = (
{
hints = (
{
horizontal = 1;
origin = (0,3);
target = (0,2);
type = Stem;
},
{
origin = (0,3);
target = (0,0);
type = Stem;
}
);
layerId = m01;
shapes = (
{
closed = 1;
nodes = (
(446,-139,l),
(446,-78,l),
(55,-78,l),
(55,-139,l)
);
}
);
width = 501;
},
{
hints = (
{
horizontal = 1;
origin = (0,3);
target = (0,2);
type = Stem;
},
{
origin = (0,3);
target = (0,0);
type = Stem;
}
);
layerId = "EED8C670-EB0D-45AD-8912-54AB4C6FD6BA";
shapes = (
{
closed = 1;
nodes = (
(531,-190,l),
(531,-64,l),
(75,-64,l),
(75,-190,l)
);
}
);
width = 606;
},
{
hints = (
{
horizontal = 1;
origin = (0,0);
target = (0,3);
type = Stem;
},
{
origin = (0,0);
target = (0,1);
type = Stem;
}
);
layerId = "B06945F2-A2F9-4CD6-84EB-56F06A9D6A7E";
shapes = (
{
closed = 1;
nodes = (
(65,-154,l),
(464,-154,l),
(464,-67,l),
(65,-67,l)
);
}
);
width = 529;
}
);
note = underscore;
unicode = 95;
},
{
glyphname = grave;
lastChange = "2023-01-06 21:19:04 +0000";
layers = (
{
hints = (
{
horizontal = 1;
origin = (0,8);
target = (0,4);
type = Stem;
},
{
origin = (0,4);
target = (0,0);
type = Stem;
}
);
layerId = m01;
shapes = (
{
closed = 1;
nodes = (
(191,777,l),
(176,843,o),
(164,905,o),
(154,963,c),
(100,963,l),
(107,919,ls),
(116,871,o),
(128,824,o),
(142,777,c)
);
}
);
width = 291;
},
{
hints = (
{
horizontal = 1;
origin = (0,9);
target = (0,5);
type = Stem;
},
{
place = (1.5, 106);
place = (1.5, 106);
type = Stem;
}
);
layerId = "EED8C670-EB0D-45AD-8912-54AB4C6FD6BA";
shapes = (
{
closed = 1;
nodes = (
(243,767,l),
(234,804,o),
(209,880,o),
(208,951,cs),
(207,986,l),
(100,986,l),
(103,951,ls),
(108,875,o),
(142,803,o),
(155,767,c)
);
}
);
width = 343;
},
{
layerId = "B06945F2-A2F9-4CD6-84EB-56F06A9D6A7E";
shapes = (
{
ref = gravecomb;
}
);
width = 449;
}
);
metricLeft = "=100";
metricRight = "=|";
note = grave;
unicode = 96;
},
{
glyphname = a;
kernLeft = a;
lastChange = "2023-01-06 21:19:04 +0000";
layers = (
{
anchors = (
{
name = top;
pos = (270,499);
}
);
hints = (
{
horizontal = 1;
origin = (0,26);
target = (1,12);
type = Stem;
},
{
horizontal = 1;
origin = (1,8);
target = (0,19);
type = Stem;
},
{
horizontal = 1;
origin = (0,15);
target = (0,8);
type = Stem;
},
{
horizontal = 1;
origin = (0,3);
target = up;
type = BottomGhost;
},
{
origin = (0,23);
target = (1,2);
type = Stem;
},
{
origin = (1,9);
target = (0,4);
type = Stem;
},
{
origin = (0,3);
target = (0,4);
type = Stem;
}
);
layerId = m01;
shapes = (
{
closed = 1;
nodes = (
(251,-7,o),
(309,18,o),
(360,69,c),
(360,0,l),
(440,0,l),
(440,341,ls),
(440,473,o),
(360,514,o),
(270,514,cs),
(215,514,o),
(156,500,o),
(93,473,c),
(91,419,l),
(148,442,o),
(200,453,o),
(245,453,cs),
(313,453,o),
(361,423,o),
(361,339,cs),
(361,305,l),
(325,306,ls),
(152,311,o),
(48,225,o),
(48,122,cs),
(48,47,o),
(99,-7,o),
(186,-7,cs)
);
},
{
closed = 1;
nodes = (
(154,58,o),
(123,83,o),
(123,131,cs),
(123,170,o),
(153,212,o),
(212,238,cs),
(259,259,o),
(311,259,o),
(361,255,c),
(361,119,l),
(322,82,o),
(280,56,o),
(216,56,cs)
);
}
);
width = 500;
},
{
anchors = (
{
name = top;
pos = (292,564);
}
);
hints = (
{
horizontal = 1;
origin = (0,25);
target = (1,10);
type = Stem;
},
{
horizontal = 1;
origin = (1,5);
target = (0,19);
type = Stem;
},
{
horizontal = 1;
origin = (0,15);
target = (0,8);
type = Stem;
},
{
horizontal = 1;
origin = (0,3);
target = up;
type = BottomGhost;
},
{
origin = (0,22);
target = (1,2);
type = Stem;
},
{
origin = (0,3);
target = (0,4);
type = Stem;
},
{
origin = (1,7);
target = (0,4);
type = Stem;
}
);
layerId = "EED8C670-EB0D-45AD-8912-54AB4C6FD6BA";
shapes = (
{
closed = 1;
nodes = (
(263,-7,o),
(310,6,o),
(353,33,c),
(353,0,l),
(498,0,l),
(498,374,ls),
(498,508,o),
(420,580,o),
(296,580,cs),
(228,580,o),
(166,561,o),
(87,528,c),
(83,404,l),
(166,436,o),
(215,454,o),
(270,454,cs),
(326,454,o),
(354,432,o),
(354,371,c),
(351,371,ls),
(168,371,o),
(41,283,o),
(41,155,cs),
(41,59,o),
(110,-7,o),
(212,-7,cs)
);
},
{
closed = 1;
nodes = (
(214,121,o),
(181,129,o),
(181,164,cs),
(181,211,o),
(250,257,o),
(347,257,cs),
(354,257,l),
(354,166,l),
(318,135,o),
(284,121,o),
(241,121,cs)
);
}
);
width = 543;
},
{
anchors = (
{
name = top;
pos = (282,531);
}
);
hints = (
{
horizontal = 1;
origin = (0,25);
target = (1,7);
type = Stem;
},
{
horizontal = 1;
origin = (1,2);
target = (0,19);
type = Stem;
},
{
horizontal = 1;
origin = (0,15);
target = (0,8);
type = Stem;
},
{
horizontal = 1;
origin = (0,3);
target = up;
type = BottomGhost;
},
{
origin = (0,22);
target = (1,10);
type = Stem;
},
{
origin = (1,4);
target = (0,4);
type = Stem;
},
{
origin = (0,3);
target = (0,4);
type = Stem;
}
);
layerId = "B06945F2-A2F9-4CD6-84EB-56F06A9D6A7E";
shapes = (
{
closed = 1;
nodes = (
(259,-7,o),
(311,11,o),
(358,49,c),
(358,0,l),
(469,0,l),
(469,357,ls),
(469,482,o),
(399,547,o),
(285,547,cs),
(224,547,o),
(163,531,o),
(92,500,c),
(89,411,l),
(159,439,o),
(207,454,o),
(259,454,cs),
(336,454,o),
(359,419,o),
(359,337,c),
(339,338,ls),
(167,347,o),
(46,257,o),
(46,138,cs),
(46,51,o),
(108,-7,o),
(200,-7,cs)
);
},
{
closed = 1;
nodes = (
(153,205,o),
(229,257,o),
(335,257,cs),
(359,257,l),
(359,142,l),
(318,104,o),
(279,88,o),
(230,88,cs),
(181,88,o),
(153,110,o),
(153,147,cs)
);
}
);
width = 524;
}
);
note = a;
unicode = 97;
},
{
glyphname = b;
kernLeft = b;
kernRight = b;
lastChange = "2023-01-08 12:59:49 +0000";
layers = (
{
anchors = (
{
name = top;
pos = (287,499);
}
);
hints = (
{
horizontal = 1;
origin = (0,16);
target = (1,11);
type = Stem;
},
{
horizontal = 1;
origin = (1,14);
target = down;
type = TopGhost;
},
{
horizontal = 1;
origin = (1,5);
target = (0,5);
type = Stem;
},
{
horizontal = 1;
origin = (0,11);
target = up;
type = BottomGhost;
},
{
origin = (0,11);
target = (0,13);
type = Stem;
},
{
origin = (1,8);
target = (0,2);
type = Stem;
},
{
place = (60, 2000);
place = (60, 2000);
type = Stem;
}
);
layerId = m01;
shapes = (
{
closed = 1;
nodes = (
(415,-7,o),
(481,97,o),
(481,252,cs),
(481,408,o),
(412,512,o),
(281,512,cs),
(229,512,o),
(182,494,o),
(139,457,c),
(139,666,l),
(60,679,l),
(60,0,l),
(138,0,l),
(139,50,l),
(182,12,o),
(231,-7,o),
(286,-7,cs)
);
},
{
closed = 1;
nodes = (
(139,202,o),
(139,302,o),
(139,401,c),
(160,421,o),
(204,447,o),
(259,447,cs),
(348,447,o),
(398,376,o),
(398,252,cs),
(398,129,o),
(348,59,o),
(259,59,cs),
(204,59,o),
(160,84,o),
(139,103,c)
);
}
);
width = 531;
},
{
anchors = (
{
name = top;
pos = (318,564);
}
);
hints = (
{
horizontal = 1;
origin = (0,16);
target = (1,14);
type = Stem;
},
{
horizontal = 1;
origin = (1,2);
target = down;
type = TopGhost;
},
{
horizontal = 1;
origin = (1,8);
target = (0,5);
type = Stem;
},
{
horizontal = 1;
origin = (0,11);
target = (1,14);
type = Stem;
},
{
origin = (0,11);
target = (1,2);
type = Stem;
},
{
origin = (1,11);
target = (0,2);
type = Stem;
},
{
place = (45, 2000);
place = (45, 2000);
type = Stem;
}
);
layerId = "EED8C670-EB0D-45AD-8912-54AB4C6FD6BA";
shapes = (
{
closed = 1;
nodes = (
(444,-7,o),
(531,101,o),
(531,285,cs),
(531,469,o),
(440,577,o),
(298,577,cs),
(260,577,o),
(223,568,o),
(189,551,c),
(189,726,l),
(45,751,l),
(45,0,l),
(187,0,l),
(188,22,l),
(224,3,o),
(263,-7,o),
(303,-7,cs)
);
},
{
closed = 1;
nodes = (
(238,124,o),
(207,140,o),
(189,152,c),
(189,241,o),
(189,329,o),
(189,418,c),
(207,430,o),
(237,447,o),
(277,447,cs),
(347,447,o),
(383,390,o),
(383,285,cs),
(383,179,o),
(346,124,o),
(277,124,cs)
);
}
);
width = 566;
},
{
anchors = (
{
name = top;
pos = (292,531);
}
);
hints = (
{
horizontal = 1;
origin = (0,16);
target = (1,9);
type = Stem;
},
{
horizontal = 1;
origin = (1,12);
target = down;
type = TopGhost;
},
{
horizontal = 1;
origin = (1,3);
target = (0,5);
type = Stem;
},
{
horizontal = 1;
origin = (0,10);
target = down;
type = TopGhost;
},
{
horizontal = 1;
origin = (0,11);
target = (1,9);
type = Stem;
},
{
origin = (0,11);
target = (1,12);
type = Stem;
},
{
origin = (1,6);
target = (0,2);
type = Stem;
},
{
origin = (0,11);
target = (0,12);
type = Stem;
}
);
layerId = "B06945F2-A2F9-4CD6-84EB-56F06A9D6A7E";
shapes = (
{
closed = 1;
nodes = (
(427,-7,o),
(508,94,o),
(508,268,cs),
(508,438,o),
(428,544,o),
(292,544,cs),
(246,544,o),
(203,530,o),
(166,505,c),
(166,695,l),
(55,714,l),
(55,0,l),
(165,0,l),
(165,34,l),
(204,7,o),
(250,-7,o),
(297,-7,cs)
);
},
{
closed = 1;
nodes = (
(166,409,l),
(183,422,o),
(220,446,o),
(270,446,cs),
(352,446,o),
(393,379,o),
(393,267,cs),
(393,157,o),
(352,90,o),
(270,90,cs),
(221,90,o),
(183,113,o),
(166,126,c)
);
}
);
width = 553;
}
);
note = b;
unicode = 98;
},
{
glyphname = c;
kernLeft = o;
lastChange = "2023-01-08 12:55:09 +0000";
layers = (
{
anchors = (
{
name = top;
pos = (278,499);
}
);
hints = (
{
horizontal = 1;
origin = (0,25);
target = (0,6);
type = Stem;
},
{
horizontal = 1;
origin = (0,16);
target = down;
type = TopGhost;
},
{
horizontal = 1;
origin = (0,12);
target = (0,19);
type = Stem;
},
{
origin = (0,22);
target = (0,9);
type = Stem;
}
);
layerId = m01;
shapes = (
{
closed = 1;
nodes = (
(334,-7,o),
(379,2,o),
(424,20,c),
(407,82,l),
(367,67,o),
(330,59,o),
(296,59,cs),
(189,59,o),
(129,130,o),
(129,258,cs),
(129,386,o),
(189,458,o),
(296,458,cs),
(330,458,o),
(364,452,o),
(399,440,c),
(406,500,l),
(369,513,o),
(333,523,o),
(288,523,cs),
(137,523,o),
(47,425,o),
(47,258,cs),
(47,91,o),
(137,-7,o),
(288,-7,cs)
);
}
);
width = 460;
},
{
anchors = (
{
name = top;
pos = (263,564);
}
);
hints = (
{
horizontal = 1;
origin = (0,25);
target = (0,6);
type = Stem;
},
{
horizontal = 1;
origin = (0,12);
target = (0,19);
type = Stem;
},
{
origin = (0,22);
target = (0,9);
type = Stem;
}
);
layerId = "EED8C670-EB0D-45AD-8912-54AB4C6FD6BA";
shapes = (
{
closed = 1;
nodes = (
(373,-7,o),
(407,5,o),
(478,33,c),
(445,157,l),
(384,135,o),
(352,124,o),
(311,124,cs),
(224,124,o),
(177,179,o),
(177,291,cs),
(177,367,o),
(200,458,o),
(311,458,cs),
(359,458,o),
(382,448,o),
(443,431,c),
(457,555,l),
(405,573,o),
(375,588,o),
(303,588,cs),
(136,588,o),
(30,477,o),
(30,291,cs),
(30,104,o),
(137,-7,o),
(303,-7,cs)
);
}
);
width = 506;
},
{
anchors = (
{
name = top;
pos = (293,531);
}
);
hints = (
{
horizontal = 1;
origin = (0,26);
target = (0,7);
type = Stem;
},
{
horizontal = 1;
origin = (0,13);
target = (0,20);
type = Stem;
},
{
origin = (0,23);
target = (0,10);
type = Stem;
}
);
layerId = "B06945F2-A2F9-4CD6-84EB-56F06A9D6A7E";
shapes = (
{
closed = 1;
nodes = (
(359,-8,o),
(395,2,o),
(454,25,c),
(429,117,l),
(413,112,ls),
(370,99,o),
(336,90,o),
(307,90,cs),
(205,90,o),
(156,159,o),
(156,273,cs),
(156,391,o),
(209,457,o),
(307,457,cs),
(347,457,o),
(373,449,o),
(424,434,c),
(434,526,l),
(390,541,o),
(356,554,o),
(299,554,cs),
(137,554,o),
(42,445,o),
(42,273,cs),
(42,96,o),
(141,-8,o),
(299,-8,cs)
);
}
);
width = 487;
}
);
note = c;
unicode = 99;
},
{
glyphname = d;
lastChange = "2023-01-08 12:59:42 +0000";
layers = (
{
anchors = (
{
name = top;
pos = (240,499);
}
);
hints = (
{
horizontal = 1;
origin = (0,16);
target = (1,11);
type = Stem;
},
{
horizontal = 1;
origin = (1,8);
target = down;
type = TopGhost;
},
{
horizontal = 1;
origin = (1,2);
target = (0,10);
type = Stem;
},
{
horizontal = 1;
origin = (0,3);
target = up;
type = BottomGhost;
},
{
origin = (0,13);
target = (1,14);
type = Stem;
},
{
origin = (0,2);
target = (0,4);
type = Stem;
}
);
layerId = m01;
shapes = (
{
closed = 1;
nodes = (
(300,-7,o),
(348,12,o),
(391,49,c),
(393,0,l),
(471,0,l),
(471,666,l),
(391,679,l),
(391,458,l),
(349,494,o),
(302,512,o),
(249,512,cs),
(120,512,o),
(50,408,o),
(50,252,cs),
(50,97,o),
(116,-7,o),
(245,-7,cs)
);
},
{
closed = 1;
nodes = (
(133,376,o),
(183,447,o),
(272,447,cs),
(327,447,o),
(370,421,o),
(391,401,c),
(391,302,o),
(391,202,o),
(391,103,c),
(370,84,o),
(327,59,o),
(272,59,cs),
(183,59,o),
(133,129,o),
(133,252,cs)
);
}
);
width = 531;
},
{
anchors = (
{
name = top;
pos = (247,564);
}
);
hints = (
{
horizontal = 1;
origin = (0,16);
target = (1,14);
type = Stem;
},
{
horizontal = 1;
origin = (1,11);
target = down;
type = TopGhost;
},
{
horizontal = 1;
origin = (1,5);
target = (0,10);
type = Stem;
},
{
horizontal = 1;
origin = (0,3);
target = (1,14);
type = Stem;
},
{
origin = (0,13);
target = (1,2);
type = Stem;
},
{
place = (379.5, 141.5);
place = (379.5, 141.5);
type = Stem;
},
{
origin = (1,11);
target = (0,4);
type = Stem;
}
);
layerId = "EED8C670-EB0D-45AD-8912-54AB4C6FD6BA";
shapes = (
{
closed = 1;
nodes = (
(303,-7,o),
(343,3,o),
(379,22,c),
(380,0,l),
(521,0,l),
(521,726,l),
(376,751,l),
(376,551,l),
(342,568,o),
(305,577,o),
(267,577,cs),
(126,577,o),
(35,470,o),
(35,285,cs),
(35,101,o),
(123,-7,o),
(263,-7,cs)
);
},
{
closed = 1;
nodes = (
(220,124,o),
(183,179,o),
(183,285,cs),
(183,389,o),
(219,447,o),
(289,447,cs),
(330,447,o),
(362,429,o),
(376,418,c),
(376,329,o),
(376,241,o),
(376,152,c),
(359,140,o),
(328,124,o),
(289,124,cs)
);
}
);
width = 566;
},
{
anchors = (
{
name = top;
pos = (235,531);
}
);
layerId = "B06945F2-A2F9-4CD6-84EB-56F06A9D6A7E";
shapes = (
{
closed = 1;
nodes = (
(302,-8,o),
(348,6,o),
(388,33,c),
(389,-1,l),
(498,-1,l),
(498,694,l),
(386,713,l),
(386,505,l),
(349,530,o),
(305,543,o),
(260,543,cs),
(125,543,o),
(45,437,o),
(45,267,cs),
(45,93,o),
(126,-8,o),
(256,-8,cs)
);
},
{
closed = 1;
nodes = (
(160,379,o),
(201,446,o),
(283,446,cs),
(326,446,o),
(364,427,o),
(386,409,c),
(386,126,l),
(369,113,o),
(333,90,o),
(283,90,cs),
(201,90,o),
(160,157,o),
(160,267,cs)
);
}
);
width = 553;
}
);
note = d;
unicode = 100;
},
{
glyphname = e;
kernLeft = o;
lastChange = "2023-01-06 21:19:04 +0000";
layers = (
{
anchors = (
{
name = top;
pos = (279,499);
}
);
hints = (
{
horizontal = 1;
origin = (0,22);
target = (0,6);
type = Stem;
},
{
horizontal = 1;
origin = (0,9);
target = (1,0);
type = Stem;
},
{
horizontal = 1;
origin = (1,3);
target = (0,16);
type = Stem;
},
{
origin = (0,19);
target = (0,9);
type = Stem;
},
{
origin = (1,6);
target = (0,2);
type = Stem;
}
);
layerId = m01;
shapes = (
{
closed = 1;
nodes = (
(359,-6,o),
(406,-3,o),
(474,24,c),
(454,81,l),
(417,66,o),
(371,59,o),
(317,59,cs),
(193,59,o),
(138,124,o),
(137,247,c),
(472,247,l),
(473,262,o),
(474,276,o),
(474,291,cs),
(474,427,o),
(409,527,o),
(281,527,cs),
(138,527,o),
(54,423,o),
(54,258,cs),
(54,93,o),
(135,-6,o),
(304,-6,cs)
);
},
{
closed = 1;
nodes = (
(137,299,l),
(147,412,o),
(194,468,o),
(279,468,cs),
(356,468,o),
(402,395,o),
(402,299,c)
);
}
);
width = 541;
},
{
anchors = (
{
name = top;
pos = (300,564);
}
);
hints = (
{
horizontal = 1;
origin = (0,23);
target = (0,7);
type = Stem;
},
{
horizontal = 1;
origin = (0,10);
target = (1,0);
type = Stem;
},
{
horizontal = 1;
origin = (1,3);
target = (0,17);
type = Stem;
},
{
origin = (0,20);
target = (0,10);
type = Stem;
},
{
origin = (1,6);
target = (0,14);
type = Stem;
}
);
layerId = "EED8C670-EB0D-45AD-8912-54AB4C6FD6BA";
shapes = (
{
closed = 1;
nodes = (
(381,-7,o),
(429,-4,o),
(507,25,cs),
(537,36,l),
(496,154,l),
(438,133,o),
(411,123,o),
(339,123,cs),
(244,123,o),
(203,162,o),
(193,246,c),
(523,246,l),
(527,281,o),
(528,290,o),
(528,323,cs),
(528,491,o),
(437,591,o),
(302,591,cs),
(142,591,o),
(43,475,o),
(43,290,cs),
(43,102,o),
(143,-7,o),
(325,-7,cs)
);
},
{
closed = 1;
nodes = (
(195,363,l),
(204,414,o),
(230,467,o),
(300,467,cs),
(348,467,o),
(380,428,o),
(389,363,c)
);
}
);
width = 600;
},
{
anchors = (
{
name = top;
pos = (288,531);
}
);
hints = (
{
horizontal = 1;
origin = (0,23);
target = (0,7);
type = Stem;
},
{
horizontal = 1;
origin = (0,10);
target = (1,0);
type = Stem;
},
{
horizontal = 1;
origin = (1,3);
target = (0,17);
type = Stem;
},
{
origin = (0,20);
target = (1,0);
type = Stem;
},
{
origin = (1,6);
target = (0,14);
type = Stem;
},
{
origin = (0,20);
target = (0,10);
type = Stem;
}
);
layerId = "B06945F2-A2F9-4CD6-84EB-56F06A9D6A7E";
shapes = (
{
closed = 1;
nodes = (
(382,-7,o),
(420,-2,o),
(506,29,c),
(476,116,l),
(461,111,ls),
(420,97,o),
(381,90,o),
(329,90,cs),
(222,90,o),
(172,138,o),
(165,246,c),
(499,246,l),
(501,271,o),
(502,281,o),
(502,305,cs),
(502,459,o),
(424,558,o),
(293,558,cs),
(140,558,o),
(50,444,o),
(50,273,cs),
(50,100,o),
(137,-7,o),
(315,-7,cs)
);
},
{
closed = 1;
nodes = (
(166,330,l),
(176,419,o),
(220,467,o),
(291,467,cs),
(351,467,o),
(393,414,o),
(398,330,c)
);
}
);
width = 568;
}
);
note = e;
unicode = 101;
},
{
glyphname = f;
lastChange = "2023-01-08 12:59:29 +0000";
layers = (
{
hints = (
{
horizontal = 1;
origin = (0,23);
target = up;
type = BottomGhost;
},
{
horizontal = 1;
origin = (0,21);
target = (0,20);
type = Stem;
},
{
horizontal = 1;
origin = (0,8);
target = (0,15);
type = Stem;
},
{
origin = (0,23);
target = (0,0);
type = Stem;
}
);
layerId = m01;
shapes = (
{
closed = 1;
nodes = (
(183,0,l),
(183,430,l),
(301,430,l),
(314,492,l),
(183,492,l),
(183,550,ls),
(183,605,o),
(202,644,o),
(250,644,cs),
(268,644,o),
(291,638,o),
(318,625,c),
(326,680,l),
(289,696,o),
(257,704,o),
(228,704,cs),
(149,704,o),
(103,648,o),
(103,555,cs),
(103,492,l),
(40,492,l),
(22,430,l),
(103,430,l),
(103,0,l)
);
}
);
width = 299;
},
{
anchors = (
{
name = top;
pos = (174,761);
}
);
hints = (
{
horizontal = 1;
origin = (0,25);
target = up;
type = BottomGhost;
},
{
horizontal = 1;
origin = (0,23);
target = (0,22);
type = Stem;
},
{
horizontal = 1;
origin = (0,15);
target = down;
type = TopGhost;
},
{
horizontal = 1;
origin = (0,8);
target = (0,15);
type = Stem;
},
{
origin = (0,25);
target = (0,0);
type = Stem;
}
);
layerId = "EED8C670-EB0D-45AD-8912-54AB4C6FD6BA";
shapes = (
{
closed = 1;
nodes = (
(246,0,l),
(246,430,l),
(359,430,l),
(385,557,l),
(246,557,l),
(246,583,ls),
(246,623,o),
(256,644,o),
(281,644,cs),
(311,644,o),
(329,631,o),
(375,610,c),
(393,732,l),
(338,756,o),
(304,769,o),
(258,769,cs),
(226,769,o),
(197,761,o),
(173,745,cs),
(113,706,o),
(101,649,o),
(101,557,c),
(46,557,l),
(10,430,l),
(101,430,l),
(101,0,l)
);
}
);
width = 386;
},
{
hints = (
{
horizontal = 1;
origin = (0,0);
target = up;
type = BottomGhost;
},
{
horizontal = 1;
origin = (0,22);
target = (0,21);
type = Stem;
},
{
horizontal = 1;
origin = (0,13);
target = down;
type = TopGhost;
},
{
horizontal = 1;
origin = (0,9);
target = (0,16);
type = Stem;
},
{
origin = (0,0);
target = (0,1);
type = Stem;
}
);
layerId = "B06945F2-A2F9-4CD6-84EB-56F06A9D6A7E";
shapes = (
{
closed = 1;
nodes = (
(104,-3,l),
(216,-3,l),
(216,427,l),
(331,427,l),
(351,521,l),
(216,521,l),
(216,563,ls),
(216,615,o),
(233,641,o),
(267,641,cs),
(291,641,o),
(311,632,o),
(348,615,c),
(360,702,l),
(315,722,o),
(283,732,o),
(244,732,cs),
(158,732,o),
(104,670,o),
(104,568,cs),
(104,521,l),
(45,521,l),
(18,427,l),
(104,427,l)
);
}
);
width = 341;
}
);
note = f;
unicode = 102;
},
{
glyphname = g;
kernLeft = o;
lastChange = "2023-01-08 12:59:23 +0000";
layers = (
{
anchors = (
{
name = top;
pos = (251,499);
}
);
hints = (
{
horizontal = 1;
origin = (0,29);
target = (0,22);
type = Stem;
},
{
horizontal = 1;
origin = (0,15);
target = (1,9);
type = Stem;
},
{
horizontal = 1;
origin = (1,6);
target = down;
type = TopGhost;
},
{
horizontal = 1;
origin = (0,9);
target = (1,2);
type = Stem;
},
{
horizontal = 1;
origin = (0,4);
target = down;
type = TopGhost;
},
{
origin = (0,12);
target = (1,12);
type = Stem;
},
{
origin = (0,19);
target = (0,2);
type = Stem;
}
);
layerId = m01;
shapes = (
{
closed = 1;
nodes = (
(382,-204,o),
(471,-139,o),
(471,-17,cs),
(471,487,l),
(391,500,l),
(391,451,l),
(389,451,l),
(349,490,o),
(301,510,o),
(245,510,cs),
(116,510,o),
(50,406,o),
(50,250,cs),
(50,95,o),
(120,-9,o),
(249,-9,cs),
(302,-9,o),
(350,9,o),
(391,45,c),
(391,-15,ls),
(391,-100,o),
(323,-140,o),
(235,-140,cs),
(192,-140,o),
(147,-131,o),
(99,-112,c),
(86,-171,l),
(145,-193,o),
(200,-204,o),
(252,-204,cs)
);
},
{
closed = 1;
nodes = (
(137,374,o),
(183,436,o),
(272,436,cs),
(327,436,o),
(370,411,o),
(391,392,c),
(391,101,l),
(370,81,o),
(327,56,o),
(272,56,cs),
(183,56,o),
(133,126,o),
(133,250,cs)
);
}
);
width = 531;
},
{
anchors = (
{
name = top;
pos = (278,564);
}
);
hints = (
{
horizontal = 1;
origin = (0,27);
target = (0,20);
type = Stem;
},
{
horizontal = 1;
origin = (1,9);
target = down;
type = TopGhost;
},
{
horizontal = 1;
origin = (0,4);
target = down;
type = TopGhost;
},
{
horizontal = 1;
origin = (0,14);
target = (1,12);
type = Stem;
},
{
horizontal = 1;
origin = (0,8);
target = (1,5);
type = Stem;
},
{
origin = (0,11);
target = (1,2);
type = Stem;
},
{
origin = (0,17);
target = (0,2);
type = Stem;
}
);
layerId = "EED8C670-EB0D-45AD-8912-54AB4C6FD6BA";
shapes = (
{
closed = 1;
nodes = (
(424,-207,o),
(521,-121,o),
(521,12,cs),
(521,544,l),
(376,569,l),
(376,543,l),
(341,562,o),
(303,572,o),
(263,572,cs),
(123,572,o),
(35,465,o),
(35,279,cs),
(35,96,o),
(127,-13,o),
(267,-13,cs),
(305,-13,o),
(342,-4,o),
(376,13,c),
(376,-48,o),
(327,-78,o),
(252,-78,cs),
(194,-78,o),
(157,-64,o),
(94,-38,c),
(65,-162,l),
(140,-191,o),
(193,-207,o),
(269,-207,cs)
);
},
{
closed = 1;
nodes = (
(220,119,o),
(183,173,o),
(183,279,cs),
(183,375,o),
(217,433,o),
(289,433,cs),
(328,433,o),
(359,417,o),
(376,405,c),
(376,147,l),
(359,134,o),
(328,119,o),
(289,119,cs)
);
}
);
width = 566;
},
{
anchors = (
{
name = top;
pos = (256,531);
}
);
hints = (
{
horizontal = 1;
origin = (0,28);
target = (0,21);
type = Stem;
},
{
horizontal = 1;
origin = (0,14);
target = (1,9);
type = Stem;
},
{
horizontal = 1;
origin = (1,6);
target = down;
type = TopGhost;
},
{
horizontal = 1;
origin = (0,8);
target = (1,2);
type = Stem;
},
{
horizontal = 1;
origin = (0,4);
target = down;
type = TopGhost;
},
{
origin = (0,11);
target = (1,12);
type = Stem;
},
{
origin = (0,18);
target = (0,2);
type = Stem;
}
);
layerId = "B06945F2-A2F9-4CD6-84EB-56F06A9D6A7E";
shapes = (
{
closed = 1;
nodes = (
(407,-205,o),
(498,-126,o),
(498,-2,cs),
(498,515,l),
(386,534,l),
(386,498,l),
(348,526,o),
(303,541,o),
(256,541,cs),
(126,541,o),
(45,440,o),
(45,265,cs),
(45,92,o),
(129,-11,o),
(260,-11,cs),
(305,-11,o),
(349,2,o),
(386,27,c),
(386,-1,ls),
(386,-69,o),
(334,-109,o),
(246,-109,cs),
(193,-109,o),
(153,-97,o),
(99,-75,c),
(78,-166,l),
(144,-192,o),
(198,-205,o),
(262,-205,cs)
);
},
{
closed = 1;
nodes = (
(160,377,o),
(206,435,o),
(283,435,cs),
(333,435,o),
(369,412,o),
(386,399,c),
(386,123,l),
(369,111,o),
(333,87,o),
(283,87,cs),
(201,87,o),
(160,154,o),
(160,265,cs)
);
}
);
width = 553;
}
);
note = g;
unicode = 103;
},
{
glyphname = h;
kernLeft = b;
kernRight = h;
lastChange = "2023-01-08 12:59:11 +0000";
layers = (
{
anchors = (
{
name = top;
pos = (306,499);
}
);
hints = (
{
horizontal = 1;
origin = (0,10);
target = up;
type = BottomGhost;
},
{
horizontal = 1;
origin = (0,4);
target = (0,15);
type = Stem;
},
{
origin = (0,10);
target = (0,11);
type = Stem;
},
{
origin = (0,19);
target = (0,0);
type = Stem;
}
);
layerId = m01;
shapes = (
{
closed = 1;
nodes = (
(467,0,l),
(467,345,ls),
(467,453,o),
(409,508,o),
(316,508,cs),
(257,510,o),
(198,488,o),
(139,441,c),
(139,660,l),
(60,674,l),
(60,0,l),
(139,0,l),
(139,365,l),
(174,394,o),
(229,429,o),
(290,429,cs),
(354,429,o),
(388,394,o),
(388,321,cs),
(388,0,l)
);
}
);
width = 527;
},
{
anchors = (
{
name = top;
pos = (358,564);
}
);
hints = (
{
horizontal = 1;
origin = (0,10);
target = up;
type = BottomGhost;
},
{
horizontal = 1;
origin = (0,4);
target = (0,15);
type = Stem;
},
{
origin = (0,10);
target = (0,11);
type = Stem;
},
{
origin = (0,19);
target = (0,0);
type = Stem;
}
);
layerId = "EED8C670-EB0D-45AD-8912-54AB4C6FD6BA";
shapes = (
{
closed = 1;
nodes = (
(517,0,l),
(517,378,ls),
(517,505,o),
(443,573,o),
(333,573,cs),
(285,573,o),
(239,563,o),
(189,535,c),
(189,720,l),
(45,745,l),
(45,0,l),
(189,0,l),
(189,381,l),
(231,413,o),
(272,429,o),
(307,429,cs),
(347,429,o),
(373,413,o),
(373,353,cs),
(373,0,l)
);
}
);
width = 562;
},
{
anchors = (
{
name = top;
pos = (317,531);
}
);
hints = (
{
horizontal = 1;
origin = (0,11);
target = up;
type = BottomGhost;
},
{
horizontal = 1;
origin = (0,5);
target = (0,16);
type = Stem;
},
{
horizontal = 1;
origin = (0,10);
target = down;
type = TopGhost;
},
{
origin = (0,11);
target = (0,12);
type = Stem;
},
{
origin = (0,0);
target = (0,1);
type = Stem;
}
);
layerId = "B06945F2-A2F9-4CD6-84EB-56F06A9D6A7E";
shapes = (
{
closed = 1;
nodes = (
(383,0,l),
(494,0,l),
(494,361,ls),
(494,477,o),
(430,540,o),
(327,540,cs),
(270,539,o),
(222,527,o),
(166,489,c),
(166,689,l),
(55,709,l),
(55,0,l),
(166,0,l),
(166,373,l),
(213,410,o),
(260,429,o),
(300,429,cs),
(357,429,o),
(383,400,o),
(383,337,cs)
);
}
);
width = 549;
}
);
note = h;
unicode = 104;
},
{
glyphname = i;
kernLeft = i;
lastChange = "2023-01-08 12:58:51 +0000";
layers = (
{
anchors = (
{
name = top;
pos = (96,499);
}
);
hints = (
{
horizontal = 1;
origin = (0,0);
target = up;
type = BottomGhost;
},
{
horizontal = 1;
origin = (0,3);
place = (489, 90);
type = Stem;
},
{
origin = (0,0);
target = (0,1);
type = Stem;
},
{
origin = (0,3);
target = (0,2);
type = Stem;
},
{
horizontal = 1;
origin = (1,2);
target = (1,8);
type = Stem;
},
{
origin = (1,11);
target = (1,5);
type = Stem;
}
);
layerId = m01;
shapes = (
{
closed = 1;
nodes = (
(60,0,l),
(139,0,l),
(139,476,l),
(60,489,l)
);
},
{
closed = 1;
nodes = (
(53,584,o),
(73,564,o),
(97,564,cs),
(122,564,o),
(142,584,o),
(142,610,cs),
(142,634,o),
(122,655,o),
(97,655,cs),
(73,655,o),
(53,634,o),
(53,610,cs)
);
}
);
width = 220;
},
{
anchors = (
{
name = top;
pos = (128,564);
}
);
hints = (
{
horizontal = 1;
origin = (0,3);
target = up;
type = BottomGhost;
},
{
origin = (0,3);
target = (0,0);
type = Stem;
},
{
horizontal = 1;
origin = (1,5);
target = (1,11);
type = Stem;
},
{
origin = (1,2);
target = (1,8);
type = Stem;
}
);
layerId = "EED8C670-EB0D-45AD-8912-54AB4C6FD6BA";
shapes = (
{
closed = 1;
nodes = (
(200,0,l),
(200,536,l),
(56,560,l),
(56,0,l)
);
},
{
closed = 1;
nodes = (
(86,800,o),
(50,764,o),
(50,723,cs),
(50,680,o),
(86,645,o),
(128,645,cs),
(170,645,o),
(206,680,o),
(206,723,cs),
(206,764,o),
(170,800,o),
(128,800,cs)
);
}
);
width = 256;
},
{
anchors = (
{
name = top;
pos = (106,531);
}
);
hints = (
{
horizontal = 1;
origin = (0,0);
target = up;
type = BottomGhost;
},
{
origin = (0,0);
target = (0,1);
type = Stem;
},
{
horizontal = 1;
origin = (1,11);
target = (1,5);
type = Stem;
},
{
origin = (1,8);
target = (1,2);
type = Stem;
}
);
layerId = "B06945F2-A2F9-4CD6-84EB-56F06A9D6A7E";
shapes = (
{
closed = 1;
nodes = (
(50,0,l),
(161,0,l),
(161,505,l),
(50,524,l)
);
},
{
closed = 1;
nodes = (
(138,612,o),
(166,640,o),
(166,674,cs),
(166,706,o),
(138,734,o),
(104,734,cs),
(71,734,o),
(43,706,o),
(43,674,cs),
(43,640,o),
(71,612,o),
(104,612,cs)
);
}
);
width = 241;
}
);
unicode = 105;
},
{
glyphname = j;
lastChange = "2023-01-08 12:31:49 +0000";
layers = (
{
anchors = (
{
name = top;
pos = (96,499);
}
);
hints = (
{
horizontal = 1;
origin = (0,12);
target = (0,8);
type = Stem;
},
{
horizontal = 1;
origin = (0,4);
place = (487, 0);
type = Stem;
},
{
origin = (0,5);
target = (0,2);
type = Stem;
},
{
origin = (0,4);
target = (0,3);
type = Stem;
},
{
horizontal = 1;
origin = (1,2);
target = (1,8);
type = Stem;
},
{
origin = (1,11);
target = (1,5);
type = Stem;
}
);
layerId = m01;
shapes = (
{
closed = 1;
nodes = (
(99,-193,o),
(136,-134,o),
(136,-29,cs),
(136,473,l),
(57,487,l),
(57,-29,ls),
(57,-98,o),
(37,-132,o),
(-6,-132,cs),
(-19,-132,o),
(-33,-130,o),
(-50,-127,c),
(-58,-186,l),
(-34,-191,o),
(-11,-193,o),
(10,-193,cs)
);
},
{
closed = 1;
nodes = (
(51,584,o),
(71,564,o),
(95,564,cs),
(120,564,o),
(140,584,o),
(140,610,cs),
(140,634,o),
(120,655,o),
(95,655,cs),
(71,655,o),
(51,634,o),
(51,610,cs)
);
}
);
width = 197;
},
{
anchors = (
{
name = top;
pos = (142,564);
}
);
hints = (
{
horizontal = 1;
origin = (1,5);
target = (1,11);
type = Stem;
},
{
origin = (1,2);
target = (1,8);
type = Stem;
}
);
layerId = "EED8C670-EB0D-45AD-8912-54AB4C6FD6BA";
shapes = (
{
closed = 1;
nodes = (
(128,-191,o),
(214,-157,o),
(214,5,cs),
(214,535,l),
(70,560,l),
(70,5,ls),
(70,-33,o),
(64,-50,o),
(58,-57,cs),
(54,-63,o),
(49,-65,o),
(39,-65,cs),
(19,-65,o),
(6,-61,o),
(-33,-54,c),
(-49,-176,l),
(-11,-185,o),
(3,-191,o),
(55,-191,cs)
);
},
{
closed = 1;
nodes = (
(100,800,o),
(64,764,o),
(64,723,cs),
(64,680,o),
(100,645,o),
(142,645,cs),
(184,645,o),
(220,680,o),
(220,723,cs),
(220,764,o),
(184,800,o),
(142,800,cs)
);
}
);
width = 260;
},
{
anchors = (
{
name = top;
pos = (117,531);
}
);
hints = (
{
horizontal = 1;
origin = (0,15);
target = (0,8);
type = Stem;
},
{
origin = (0,5);
target = (0,2);
type = Stem;
},
{
horizontal = 1;
origin = (1,11);
target = (1,5);
type = Stem;
},
{
origin = (1,8);
target = (1,2);
type = Stem;
}
);
layerId = "B06945F2-A2F9-4CD6-84EB-56F06A9D6A7E";
shapes = (
{
closed = 1;
nodes = (
(125,-193,o),
(173,-133,o),
(173,-13,cs),
(173,502,l),
(62,521,l),
(62,-13,ls),
(62,-90,o),
(38,-100,o),
(15,-100,cs),
(-1,-100,o),
(-14,-97,o),
(-43,-92,c),
(-55,-182,l),
(-28,-189,o),
(-10,-193,o),
(31,-193,cs)
);
},
{
closed = 1;
nodes = (
(151,612,o),
(179,640,o),
(179,674,cs),
(179,706,o),
(151,734,o),
(117,734,cs),
(84,734,o),
(56,706,o),
(56,674,cs),
(56,640,o),
(84,612,o),
(117,612,cs)
);
}
);
width = 232;
}
);
unicode = 106;
},
{
glyphname = k;
lastChange = "2023-01-08 12:58:41 +0000";
layers = (
{
anchors = (
{
name = top;
pos = (262,677);
}
);
hints = (
{
horizontal = 1;
origin = (0,7);
target = up;
type = BottomGhost;
},
{
origin = (0,7);
target = (0,8);
type = Stem;
}
);
layerId = m01;
shapes = (
{
closed = 1;
nodes = (
(473,0,l),
(210,330,l),
(476,650,l),
(384,650,l),
(139,344,l),
(139,660,l),
(60,674,l),
(60,0,l),
(139,0,l),
(139,309,l),
(377,0,l)
);
}
);
width = 491;
},
{
anchors = (
{
name = top;
pos = (285,761);
}
);
hints = (
{
horizontal = 1;
origin = (0,7);
target = up;
type = BottomGhost;
},
{
horizontal = 1;
origin = (0,3);
target = down;
type = TopGhost;
},
{
origin = (0,7);
target = (0,8);
type = Stem;
}
);
layerId = "EED8C670-EB0D-45AD-8912-54AB4C6FD6BA";
shapes = (
{
closed = 1;
nodes = (
(558,0,l),
(269,363,l),
(563,715,l),
(385,715,l),
(189,470,l),
(189,720,l),
(45,745,l),
(45,0,l),
(189,0,l),
(189,246,l),
(378,0,l)
);
}
);
width = 565;
},
{
anchors = (
{
name = top;
pos = (267,678);
}
);
layerId = "B06945F2-A2F9-4CD6-84EB-56F06A9D6A7E";
shapes = (
{
closed = 1;
nodes = (
(380,0,l),
(517,0,l),
(241,346,l),
(521,682,l),
(387,682,l),
(166,406,l),
(166,689,l),
(55,709,l),
(55,0,l),
(166,0,l),
(166,278,l)
);
}
);
width = 531;
}
);
note = k;
unicode = 107;
},
{
glyphname = l;
kernLeft = l;
lastChange = "2023-01-08 12:58:35 +0000";
layers = (
{
anchors = (
{
name = top;
pos = (128,677);
}
);
hints = (
{
horizontal = 1;
origin = (0,3);
target = up;
type = BottomGhost;
},
{
origin = (0,3);
target = (0,0);
type = Stem;
}
);
layerId = m01;
shapes = (
{
closed = 1;
nodes = (
(168,0,l),
(168,660,l),
(88,674,l),
(88,0,l)
);
}
);
width = 256;
},
{
anchors = (
{
name = top;
pos = (129,761);
}
);
hints = (
{
horizontal = 1;
origin = (0,3);
target = up;
type = BottomGhost;
},
{
origin = (0,3);
target = (0,0);
type = Stem;
}
);
layerId = "EED8C670-EB0D-45AD-8912-54AB4C6FD6BA";
shapes = (
{
closed = 1;
nodes = (
(201,0,l),
(201,720,l),
(56,745,l),
(56,0,l)
);
}
);
width = 257;
},
{
anchors = (
{
name = top;
pos = (134,678);
}
);
layerId = "B06945F2-A2F9-4CD6-84EB-56F06A9D6A7E";
shapes = (
{
closed = 1;
nodes = (
(78,0,l),
(190,0,l),
(190,689,l),
(78,709,l)
);
}
);
width = 268;
}
);
note = l;
unicode = 108;
},
{
glyphname = m;
kernLeft = m;
kernRight = h;
lastChange = "2023-01-08 12:58:27 +0000";
layers = (
{
anchors = (
{
name = top;
pos = (422,499);
}
);
hints = (
{
horizontal = 1;
origin = (0,16);
target = up;
type = BottomGhost;
},
{
horizontal = 1;
origin = (0,10);
target = (0,21);
type = Stem;
},
{
origin = (0,16);
target = (0,17);
type = Stem;
},
{
origin = (0,25);
target = (0,26);
type = Stem;
},
{
origin = (0,37);
target = (0,0);
type = Stem;
}
);
layerId = m01;
shapes = (
{
closed = 1;
nodes = (
(783,0,l),
(783,345,ls),
(784,452,o),
(734,506,o),
(633,506,cs),
(565,506,o),
(510,479,o),
(449,420,c),
(429,477,o),
(383,506,o),
(311,506,cs),
(239,506,o),
(187,474,o),
(139,427,c),
(139,482,l),
(60,496,l),
(60,0,l),
(139,0,l),
(139,365,l),
(170,392,o),
(219,429,o),
(280,429,cs),
(348,428,o),
(382,392,o),
(382,321,cs),
(382,0,l),
(461,0,l),
(461,321,ls),
(461,336,o),
(460,350,o),
(458,363,c),
(494,395,o),
(543,429,o),
(602,429,cs),
(670,428,o),
(704,392,o),
(704,321,cs),
(704,0,l)
);
}
);
width = 843;
},
{
anchors = (
{
name = top;
pos = (440,564);
}
);
hints = (
{
horizontal = 1;
origin = (0,16);
target = up;
type = BottomGhost;
},
{
horizontal = 1;
origin = (0,10);
target = (0,21);
type = Stem;
},
{
horizontal = 1;
origin = (0,15);
target = down;
type = TopGhost;
},
{
origin = (0,16);
target = (0,17);
type = Stem;
},
{
origin = (0,25);
target = (0,26);
type = Stem;
},
{
origin = (0,35);
target = (0,0);
type = Stem;
}
);
layerId = "EED8C670-EB0D-45AD-8912-54AB4C6FD6BA";
shapes = (
{
closed = 1;
nodes = (
(833,0,l),
(833,378,ls),
(833,498,o),
(772,571,o),
(651,571,cs),
(588,571,o),
(534,550,o),
(476,505,c),
(446,549,o),
(396,571,o),
(328,571,cs),
(279,571,o),
(233,557,o),
(189,528,c),
(189,542,l),
(45,567,l),
(45,0,l),
(189,0,l),
(189,382,l),
(220,406,o),
(257,429,o),
(298,429,cs),
(347,429,o),
(367,408,o),
(367,353,cs),
(367,0,l),
(512,0,l),
(512,353,l),
(510,382,l),
(538,404,o),
(576,429,o),
(620,429,cs),
(670,429,o),
(689,408,o),
(689,353,cs),
(689,0,l)
);
}
);
width = 878;
},
{
anchors = (
{
name = top;
pos = (433,531);
}
);
hints = (
{
horizontal = 1;
origin = (0,17);
target = up;
type = BottomGhost;
},
{
horizontal = 1;
origin = (0,11);
target = (0,22);
type = Stem;
},
{
horizontal = 1;
origin = (0,16);
target = down;
type = TopGhost;
},
{
origin = (0,17);
target = (0,18);
type = Stem;
},
{
origin = (0,26);
target = (0,27);
type = Stem;
},
{
origin = (0,0);
target = (0,1);
type = Stem;
}
);
layerId = "B06945F2-A2F9-4CD6-84EB-56F06A9D6A7E";
shapes = (
{
closed = 1;
nodes = (
(699,0,l),
(810,0,l),
(810,361,ls),
(810,480,o),
(749,538,o),
(644,538,cs),
(580,538,o),
(526,515,o),
(465,463,c),
(439,513,o),
(391,538,o),
(321,538,cs),
(252,538,o),
(201,508,o),
(166,479,c),
(166,512,l),
(55,531,l),
(55,0,l),
(166,0,l),
(166,373,l),
(192,394,o),
(238,429,o),
(291,429,cs),
(350,429,o),
(377,400,o),
(377,337,cs),
(377,0,l),
(488,0,l),
(488,337,ls),
(488,349,o),
(488,361,o),
(486,372,c),
(517,398,o),
(562,429,o),
(613,429,cs),
(673,429,o),
(699,400,o),
(699,337,cs)
);
}
);
width = 865;
}
);
note = m;
unicode = 109;
},
{
glyphname = n;
kernLeft = m;
kernRight = h;
lastChange = "2023-01-06 21:19:04 +0000";
layers = (
{
anchors = (
{
name = top;
pos = (264,499);
}
);
hints = (
{
horizontal = 1;
origin = (0,10);
target = up;
type = BottomGhost;
},
{
horizontal = 1;
origin = (0,4);
target = (0,15);
type = Stem;
},
{
origin = (0,10);
target = (0,11);
type = Stem;
},
{
origin = (0,19);
target = (0,0);
type = Stem;
}
);
layerId = m01;
shapes = (
{
closed = 1;
nodes = (
(467,0,l),
(467,345,ls),
(467,452,o),
(418,506,o),
(317,506,cs),
(254,506,o),
(195,484,o),
(139,439,c),
(139,482,l),
(60,496,l),
(60,0,l),
(139,0,l),
(139,365,l),
(170,392,o),
(226,429,o),
(287,429,cs),
(354,428,o),
(388,392,o),
(388,321,cs),
(388,0,l)
);
}
);
width = 527;
},
{
anchors = (
{
name = top;
pos = (292,564);
}
);
hints = (
{
horizontal = 1;
origin = (0,10);
target = up;
type = BottomGhost;
},
{
horizontal = 1;
origin = (0,9);
target = down;
type = TopGhost;
},
{
horizontal = 1;
origin = (0,4);
target = (0,15);
type = Stem;
},
{
origin = (0,10);
target = (0,11);
type = Stem;
},
{
origin = (0,19);
target = (0,0);
type = Stem;
}
);
layerId = "EED8C670-EB0D-45AD-8912-54AB4C6FD6BA";
shapes = (
{
closed = 1;
nodes = (
(517,0,l),
(517,378,ls),
(517,498,o),
(457,571,o),
(335,571,cs),
(284,571,o),
(238,559,o),
(189,531,c),
(189,542,l),
(45,567,l),
(45,0,l),
(189,0,l),
(189,382,l),
(231,413,o),
(270,429,o),
(304,429,cs),
(354,429,o),
(373,408,o),
(373,353,cs),
(373,0,l)
);
}
);
width = 562;
},
{
anchors = (
{
name = top;
pos = (279,531);
}
);
hints = (
{
horizontal = 1;
origin = (0,11);
target = up;
type = BottomGhost;
},
{
horizontal = 1;
origin = (0,5);
target = (0,16);
type = Stem;
},
{
horizontal = 1;
origin = (0,10);
target = down;
type = TopGhost;
},
{
origin = (0,11);
target = (0,12);
type = Stem;
},
{
origin = (0,0);
target = (0,1);
type = Stem;
}
);
layerId = "B06945F2-A2F9-4CD6-84EB-56F06A9D6A7E";
shapes = (
{
closed = 1;
nodes = (
(383,0,l),
(494,0,l),
(494,361,ls),
(494,480,o),
(434,538,o),
(328,538,cs),
(272,538,o),
(222,522,o),
(166,485,c),
(166,512,l),
(55,531,l),
(55,0,l),
(166,0,l),
(166,373,l),
(213,410,o),
(258,429,o),
(298,429,cs),
(357,429,o),
(383,400,o),
(383,337,cs)
);
}
);
width = 549;
}
);
note = n;
unicode = 110;
},
{
glyphname = o;
kernLeft = o;
kernRight = o;
lastChange = "2023-01-06 21:19:04 +0000";
layers = (
{
anchors = (
{
name = top;
pos = (272,499);
}
);
hints = (
{
horizontal = 1;
origin = (0,11);
target = (1,8);
type = Stem;
},
{
horizontal = 1;
origin = (1,2);
target = (0,5);
type = Stem;
},
{
origin = (0,8);
target = (1,11);
type = Stem;
},
{
origin = (1,5);
target = (0,2);
type = Stem;
}
);
layerId = m01;
shapes = (
{
closed = 1;
nodes = (
(417,-7,o),
(494,101,o),
(494,252,cs),
(494,404,o),
(417,512,o),
(272,512,cs),
(125,512,o),
(50,404,o),
(50,252,cs),
(50,101,o),
(125,-7,o),
(272,-7,cs)
);
},
{
closed = 1;
nodes = (
(124,368,o),
(173,453,o),
(272,453,cs),
(371,453,o),
(418,368,o),
(418,252,cs),
(418,137,o),
(371,52,o),
(272,52,cs),
(173,52,o),
(124,137,o),
(124,252,cs)
);
}
);
width = 544;
},
{
anchors = (
{
name = top;
pos = (291,564);
}
);
hints = (
{
horizontal = 1;
origin = (0,11);
target = (1,11);
type = Stem;
},
{
horizontal = 1;
origin = (0,5);
target = (1,5);
type = Stem;
},
{
origin = (0,8);
target = (1,2);
type = Stem;
},
{
origin = (1,8);
target = (0,2);
type = Stem;
}
);
layerId = "EED8C670-EB0D-45AD-8912-54AB4C6FD6BA";
shapes = (
{
closed = 1;
nodes = (
(443,-10,o),
(544,101,o),
(544,282,cs),
(544,463,o),
(445,574,o),
(289,574,cs),
(134,574,o),
(35,463,o),
(35,282,cs),
(35,101,o),
(136,-10,o),
(289,-10,cs)
);
},
{
closed = 1;
nodes = (
(213,114,o),
(174,179,o),
(174,282,cs),
(174,385,o),
(213,450,o),
(289,450,cs),
(367,450,o),
(403,384,o),
(403,282,cs),
(403,181,o),
(366,114,o),
(289,114,cs)
);
}
);
width = 579;
},
{
anchors = (
{
name = top;
pos = (283,543);
}
);
hints = (
{
horizontal = 1;
origin = (0,11);
target = (1,8);
type = Stem;
},
{
horizontal = 1;
origin = (1,2);
target = (0,5);
type = Stem;
},
{
origin = (0,8);
target = (1,11);
type = Stem;
},
{
origin = (1,5);
target = (0,2);
type = Stem;
}
);
layerId = "B06945F2-A2F9-4CD6-84EB-56F06A9D6A7E";
shapes = (
{
closed = 1;
nodes = (
(428,-8,o),
(521,97,o),
(521,267,cs),
(521,438,o),
(429,543,o),
(283,543,cs),
(137,543,o),
(45,438,o),
(45,267,cs),
(45,97,o),
(137,-8,o),
(283,-8,cs)
);
},
{
closed = 1;
nodes = (
(151,385,o),
(201,452,o),
(283,452,cs),
(369,452,o),
(413,380,o),
(413,267,cs),
(413,155,o),
(369,83,o),
(283,83,cs),
(201,83,o),
(151,149,o),
(151,267,cs)
);
}
);
width = 566;
}
);
note = o;
unicode = 111;
},
{
glyphname = p;
lastChange = "2023-01-08 13:00:44 +0000";
layers = (
{
anchors = (
{
name = top;
pos = (276,499);
}
);
hints = (
{
horizontal = 1;
origin = (0,16);
target = up;
type = BottomGhost;
},
{
horizontal = 1;
origin = (0,4);
target = (1,9);
type = Stem;
},
{
horizontal = 1;
origin = (1,12);
target = down;
type = TopGhost;
},
{
horizontal = 1;
origin = (0,10);
target = (1,3);
type = Stem;
},
{
horizontal = 1;
origin = (0,15);
target = down;
type = TopGhost;
},
{
origin = (0,16);
target = (0,0);
type = Stem;
},
{
origin = (1,6);
target = (0,7);
type = Stem;
}
);
layerId = m01;
shapes = (
{
closed = 1;
nodes = (
(139,-175,l),
(139,48,l),
(182,11,o),
(229,-7,o),
(281,-7,cs),
(412,-7,o),
(481,96,o),
(481,252,cs),
(481,408,o),
(415,511,o),
(286,511,cs),
(231,511,o),
(182,492,o),
(139,454,c),
(138,488,l),
(60,502,l),
(60,-175,l)
);
},
{
closed = 1;
nodes = (
(139,394,l),
(160,414,o),
(204,438,o),
(259,438,cs),
(348,438,o),
(398,368,o),
(398,252,cs),
(398,129,o),
(348,59,o),
(259,59,cs),
(204,59,o),
(160,84,o),
(139,103,c)
);
}
);
width = 531;
},
{
anchors = (
{
name = top;
pos = (285,564);
}
);
hints = (
{
horizontal = 1;
origin = (0,15);
target = up;
type = BottomGhost;
},
{
horizontal = 1;
origin = (1,2);
target = down;
type = TopGhost;
},
{
horizontal = 1;
origin = (0,14);
target = down;
type = TopGhost;
},
{
horizontal = 1;
origin = (0,4);
target = (1,12);
type = Stem;
},
{
horizontal = 1;
origin = (0,10);
target = (1,6);
type = Stem;
},
{
origin = (0,15);
target = (0,0);
type = Stem;
},
{
origin = (1,9);
target = (0,7);
type = Stem;
}
);
layerId = "EED8C670-EB0D-45AD-8912-54AB4C6FD6BA";
shapes = (
{
closed = 1;
nodes = (
(189,-178,l),
(189,16,l),
(223,-1,o),
(260,-10,o),
(298,-10,cs),
(440,-10,o),
(531,98,o),
(531,282,cs),
(531,466,o),
(443,574,o),
(303,574,cs),
(263,574,o),
(223,564,o),
(187,545,c),
(45,570,l),
(45,-178,l)
);
},
{
closed = 1;
nodes = (
(238,121,o),
(207,137,o),
(189,149,c),
(189,407,l),
(207,419,o),
(238,435,o),
(277,435,cs),
(349,435,o),
(383,377,o),
(383,282,cs),
(383,175,o),
(346,121,o),
(277,121,cs)
);
}
);
width = 600;
},
{
anchors = (
{
name = top;
pos = (297,531);
}
);
hints = (
{
horizontal = 1;
origin = (0,5);
target = (1,9);
type = Stem;
},
{
horizontal = 1;
origin = (0,16);
target = down;
type = TopGhost;
},
{
horizontal = 1;
origin = (0,11);
target = (1,3);
type = Stem;
},
{
origin = (0,0);
target = (0,1);
type = Stem;
},
{
origin = (1,6);
target = (0,8);
type = Stem;
},
{
place = (55, 2000);
place = (55, 2000);
type = Stem;
}
);
layerId = "B06945F2-A2F9-4CD6-84EB-56F06A9D6A7E";
shapes = (
{
closed = 1;
nodes = (
(55,-176,l),
(166,-176,l),
(166,30,l),
(203,5,o),
(246,-8,o),
(292,-8,cs),
(424,-8,o),
(508,94,o),
(508,267,cs),
(508,441,o),
(428,542,o),
(297,542,cs),
(250,542,o),
(204,528,o),
(165,501,c),
(164,516,l),
(55,536,l)
);
},
{
closed = 1;
nodes = (
(166,401,l),
(183,414,o),
(221,437,o),
(270,437,cs),
(347,437,o),
(393,379,o),
(393,267,cs),
(393,157,o),
(352,90,o),
(270,90,cs),
(221,90,o),
(183,113,o),
(166,126,c)
);
}
);
width = 553;
}
);
note = p;
unicode = 112;
},
{
glyphname = q;
lastChange = "2023-01-08 13:00:41 +0000";
layers = (
{
anchors = (
{
name = top;
pos = (255,499);
}
);
hints = (
{
horizontal = 1;
origin = (0,16);
target = up;
type = BottomGhost;
},
{
horizontal = 1;
origin = (0,12);
target = (1,9);
type = Stem;
},
{
horizontal = 1;
origin = (1,6);
target = down;
type = TopGhost;
},
{
horizontal = 1;
origin = (1,2);
target = (0,6);
type = Stem;
},
{
origin = (0,9);
target = (1,12);
type = Stem;
},
{
origin = (0,16);
target = (0,0);
type = Stem;
}
);
layerId = m01;
shapes = (
{
closed = 1;
nodes = (
(471,-175,l),
(471,488,l),
(393,502,l),
(391,455,l),
(348,492,o),
(300,511,o),
(245,511,cs),
(116,511,o),
(50,408,o),
(50,252,cs),
(50,96,o),
(120,-7,o),
(249,-7,cs),
(302,-7,o),
(349,11,o),
(391,47,c),
(391,-175,l)
);
},
{
closed = 1;
nodes = (
(137,376,o),
(183,438,o),
(272,438,cs),
(327,438,o),
(370,414,o),
(391,394,c),
(391,103,l),
(370,84,o),
(327,59,o),
(272,59,cs),
(183,59,o),
(133,129,o),
(133,252,cs)
);
}
);
width = 531;
},
{
anchors = (
{
name = top;
pos = (279,564);
}
);
hints = (
{
horizontal = 1;
origin = (0,16);
target = up;
type = BottomGhost;
},
{
horizontal = 1;
origin = (1,9);
target = down;
type = TopGhost;
},
{
horizontal = 1;
origin = (0,2);
target = down;
type = TopGhost;
},
{
horizontal = 1;
origin = (0,12);
target = (1,12);
type = Stem;
},
{
horizontal = 1;
origin = (0,6);
target = (1,5);
type = Stem;
},
{
origin = (0,9);
target = (1,2);
type = Stem;
},
{
origin = (0,16);
target = (0,0);
type = Stem;
},
{
place = (379.5, 141.5);
place = (379.5, 141.5);
type = Stem;
}
);
layerId = "EED8C670-EB0D-45AD-8912-54AB4C6FD6BA";
shapes = (
{
closed = 1;
nodes = (
(521,-178,l),
(521,545,l),
(380,570,l),
(379,545,l),
(343,564,o),
(303,574,o),
(263,574,cs),
(123,574,o),
(35,466,o),
(35,282,cs),
(35,99,o),
(126,-10,o),
(267,-10,cs),
(305,-10,o),
(342,-1,o),
(376,15,c),
(376,-178,l)
);
},
{
closed = 1;
nodes = (
(220,121,o),
(183,175,o),
(183,282,cs),
(183,377,o),
(217,435,o),
(289,435,cs),
(328,435,o),
(359,420,o),
(376,408,c),
(376,149,l),
(359,137,o),
(328,121,o),
(289,121,cs)
);
}
);
width = 566;
},
{
anchors = (
{
name = top;
pos = (256,531);
}
);
hints = (
{
horizontal = 1;
origin = (0,13);
target = (1,9);
type = Stem;
},
{
horizontal = 1;
origin = (0,7);
target = (1,2);
type = Stem;
},
{
horizontal = 1;
origin = (0,3);
target = down;
type = TopGhost;
},
{
origin = (0,10);
target = (1,12);
type = Stem;
},
{
origin = (0,0);
target = (0,1);
type = Stem;
},
{
place = (388.5, 109.5);
place = (388.5, 109.5);
type = Stem;
}
);
layerId = "B06945F2-A2F9-4CD6-84EB-56F06A9D6A7E";
shapes = (
{
closed = 1;
nodes = (
(386,-176,l),
(498,-176,l),
(498,516,l),
(389,535,l),
(388,502,l),
(348,528,o),
(302,542,o),
(256,542,cs),
(125,542,o),
(45,441,o),
(45,267,cs),
(45,95,o),
(128,-8,o),
(260,-8,cs),
(305,-8,o),
(349,5,o),
(386,30,c)
);
},
{
closed = 1;
nodes = (
(160,379,o),
(206,437,o),
(283,437,cs),
(333,437,o),
(369,414,o),
(386,401,c),
(386,126,l),
(370,113,o),
(333,90,o),
(283,90,cs),
(201,90,o),
(160,157,o),
(160,267,cs)
);
}
);
width = 553;
}
);
note = q;
unicode = 113;
},
{
glyphname = r;
lastChange = "2023-01-08 13:00:36 +0000";
layers = (
{
anchors = (
{
name = top;
pos = (106,499);
}
);
hints = (
{
horizontal = 1;
origin = (0,12);
target = up;
type = BottomGhost;
},
{
horizontal = 1;
origin = (0,6);
target = (0,4);
type = Stem;
},
{
origin = (0,12);
target = (0,0);
type = Stem;
}
);
layerId = m01;
shapes = (
{
closed = 1;
nodes = (
(139,0,l),
(139,346,l),
(166,387,o),
(240,437,o),
(313,437,cs),
(323,437,l),
(323,501,l),
(258,501,o),
(190,472,o),
(139,408,c),
(139,482,l),
(60,496,l),
(60,0,l)
);
}
);
width = 330;
},
{
anchors = (
{
name = top;
pos = (192,564);
}
);
hints = (
{
horizontal = 1;
origin = (0,14);
target = up;
type = BottomGhost;
},
{
horizontal = 1;
origin = (0,8);
target = (0,4);
type = Stem;
},
{
origin = (0,14);
target = (0,0);
type = Stem;
}
);
layerId = "EED8C670-EB0D-45AD-8912-54AB4C6FD6BA";
shapes = (
{
closed = 1;
nodes = (
(189,0,l),
(189,368,l),
(213,398,o),
(274,437,o),
(331,437,cs),
(358,437,o),
(347,436,o),
(373,435,c),
(373,566,l),
(296,566,o),
(250,562,o),
(189,518,c),
(189,542,l),
(45,567,l),
(45,0,l)
);
}
);
width = 381;
},
{
anchors = (
{
name = top;
pos = (192,531);
}
);
layerId = "B06945F2-A2F9-4CD6-84EB-56F06A9D6A7E";
shapes = (
{
closed = 1;
nodes = (
(55,0,l),
(166,0,l),
(166,357,l),
(190,391,o),
(258,440,o),
(325,437,cs),
(350,436,l),
(350,533,l),
(277,533,o),
(221,518,o),
(166,466,c),
(166,512,l),
(55,531,l)
);
}
);
width = 358;
}
);
note = r;
unicode = 114;
},
{
glyphname = s;
kernLeft = s;
lastChange = "2023-01-08 13:00:32 +0000";
layers = (
{
anchors = (
{
name = top;
pos = (254,499);
}
);
hints = (
{
horizontal = 1;
origin = (0,49);
target = (0,42);
type = Stem;
},
{
horizontal = 1;
origin = (0,17);
target = (0,24);
type = Stem;
},
{
origin = (0,27);
target = (0,11);
type = Stem;
},
{
origin = (0,36);
target = (0,2);
type = Stem;
}
);
layerId = m01;
shapes = (
{
closed = 1;
nodes = (
(348,-14,o),
(430,44,o),
(430,137,cs),
(430,205,o),
(385,239,o),
(329,262,cs),
(301,273,o),
(273,284,o),
(245,293,cs),
(189,311,o),
(145,332,o),
(145,379,cs),
(145,400,o),
(159,429,o),
(197,446,cs),
(216,455,o),
(242,459,o),
(276,459,cs),
(311,459,o),
(355,452,o),
(420,427,c),
(420,488,l),
(368,509,o),
(320,521,o),
(257,521,cs),
(129,521,o),
(55,464,o),
(55,373,cs),
(55,302,o),
(99,268,o),
(155,246,cs),
(183,235,o),
(211,225,o),
(239,216,cs),
(295,199,o),
(339,177,o),
(339,130,cs),
(339,111,o),
(329,82,o),
(294,63,cs),
(277,53,o),
(251,48,o),
(217,48,cs),
(178,48,o),
(112,57,o),
(44,82,c),
(44,21,l),
(106,-2,o),
(168,-14,o),
(231,-14,cs)
);
}
);
width = 475;
},
{
anchors = (
{
name = top;
pos = (256,564);
}
);
hints = (
{
horizontal = 1;
origin = (0,40);
target = (0,33);
type = Stem;
},
{
horizontal = 1;
origin = (0,36);
target = down;
type = TopGhost;
},
{
horizontal = 1;
origin = (0,14);
target = (0,21);
type = Stem;
},
{
origin = (0,24);
target = (0,11);
type = Stem;
},
{
origin = (0,30);
target = (0,2);
type = Stem;
}
);
layerId = "EED8C670-EB0D-45AD-8912-54AB4C6FD6BA";
shapes = (
{
closed = 1;
nodes = (
(391,-19,o),
(481,56,o),
(481,164,cs),
(481,215,o),
(459,256,o),
(417,288,cs),
(385,312,o),
(345,327,o),
(303,341,cs),
(230,366,o),
(196,379,o),
(196,406,cs),
(196,433,o),
(234,454,o),
(294,454,cs),
(335,454,o),
(372,446,o),
(471,406,c),
(471,538,l),
(405,564,o),
(358,581,o),
(276,581,cs),
(129,581,o),
(41,510,o),
(41,400,cs),
(41,281,o),
(150,245,o),
(223,220,cs),
(292,197,o),
(325,184,o),
(325,158,cs),
(325,149,o),
(321,108,o),
(235,108,cs),
(174,108,o),
(120,123,o),
(30,156,c),
(30,26,l),
(110,-5,o),
(164,-19,o),
(250,-19,cs)
);
}
);
width = 511;
},
{
anchors = (
{
name = top;
pos = (254,531);
}
);
layerId = "B06945F2-A2F9-4CD6-84EB-56F06A9D6A7E";
shapes = (
{
closed = 1;
nodes = (
(373,-16,o),
(458,50,o),
(458,151,cs),
(458,196,o),
(439,232,o),
(401,261,cs),
(370,283,o),
(331,298,o),
(291,312,cs),
(217,337,o),
(173,353,o),
(173,393,cs),
(173,429,o),
(215,457,o),
(288,457,cs),
(324,457,o),
(363,451,o),
(448,417,c),
(448,513,l),
(389,536,o),
(342,550,o),
(269,550,cs),
(132,550,o),
(51,486,o),
(51,387,cs),
(51,279,o),
(150,247,o),
(222,223,cs),
(292,199,o),
(335,184,o),
(335,144,cs),
(335,133,o),
(330,78,o),
(229,78,cs),
(175,78,o),
(116,90,o),
(40,119,c),
(40,23,l),
(112,-4,o),
(168,-16,o),
(243,-16,cs)
);
}
);
width = 498;
}
);
note = s;
unicode = 115;
},
{
glyphname = t;
lastChange = "2023-01-08 13:00:27 +0000";
layers = (
{
anchors = (
{
name = top;
pos = (122,635);
}
);
hints = (
{
horizontal = 1;
origin = (0,2);
target = up;
type = BottomGhost;
},
{
horizontal = 1;
origin = (0,18);
target = (0,17);
type = Stem;
},
{
horizontal = 1;
origin = (0,23);
target = (0,6);
type = Stem;
},
{
origin = (0,20);
target = (0,9);
type = Stem;
}
);
layerId = m01;
shapes = (
{
closed = 1;
nodes = (
(207,-12,o),
(233,-10,o),
(267,-5,c),
(267,55,l),
(252,51,o),
(236,49,o),
(219,49,cs),
(182,49,o),
(159,69,o),
(159,113,cs),
(159,429,l),
(258,429,l),
(271,490,l),
(159,490,l),
(159,621,l),
(80,635,l),
(80,490,l),
(10,490,l),
(24,429,l),
(80,429,l),
(80,106,ls),
(80,30,o),
(110,-12,o),
(190,-12,cs)
);
}
);
width = 287;
},
{
anchors = (
{
name = top;
pos = (155,708);
}
);
layerId = "EED8C670-EB0D-45AD-8912-54AB4C6FD6BA";
shapes = (
{
closed = 1;
nodes = (
(264,-10,o),
(297,-5,o),
(336,3,c),
(336,142,l),
(290,120,ls),
(285,118,o),
(268,116,o),
(255,116,cs),
(236,116,o),
(227,121,o),
(227,148,cs),
(227,431,l),
(319,431,l),
(348,557,l),
(227,557,l),
(227,683,l),
(83,708,l),
(83,557,l),
(5,557,l),
(33,431,l),
(83,431,l),
(83,141,ls),
(83,40,o),
(133,-10,o),
(225,-10,cs)
);
}
);
width = 403;
},
{
anchors = (
{
name = top;
pos = (140,677);
}
);
layerId = "B06945F2-A2F9-4CD6-84EB-56F06A9D6A7E";
shapes = (
{
closed = 1;
nodes = (
(238,-13,o),
(273,-9,o),
(302,-3,c),
(302,96,l),
(279,84,l),
(275,83,o),
(254,80,o),
(238,80,cs),
(207,80,o),
(194,95,o),
(194,128,cs),
(194,428,l),
(289,428,l),
(310,521,l),
(194,521,l),
(194,650,l),
(83,669,l),
(83,521,l),
(9,521,l),
(30,428,l),
(83,428,l),
(83,121,ls),
(83,31,o),
(124,-13,o),
(208,-13,cs)
);
}
);
width = 323;
}
);
note = t;
unicode = 116;
},
{
glyphname = u;
kernLeft = u;
lastChange = "2023-01-06 21:19:04 +0000";
layers = (
{
anchors = (
{
name = top;
pos = (264,499);
}
);
hints = (
{
horizontal = 1;
origin = (0,19);
target = (0,10);
type = Stem;
},
{
horizontal = 1;
origin = (0,3);
target = up;
type = BottomGhost;
},
{
horizontal = 1;
origin = (0,3);
target = (0,10);
type = Stem;
},
{
origin = (0,16);
target = (0,13);
type = Stem;
},
{
origin = (0,3);
target = (0,4);
type = Stem;
}
);
layerId = m01;
shapes = (
{
closed = 1;
nodes = (
(274,-12,o),
(333,11,o),
(388,57,c),
(388,0,l),
(467,0,l),
(467,482,l),
(388,496,l),
(388,128,l),
(359,101,o),
(302,65,o),
(241,65,cs),
(173,66,o),
(139,102,o),
(139,173,cs),
(139,482,l),
(60,496,l),
(60,149,ls),
(60,42,o),
(110,-12,o),
(210,-12,cs)
);
}
);
width = 527;
},
{
anchors = (
{
name = top;
pos = (289,564);
}
);
hints = (
{
horizontal = 1;
origin = (0,19);
target = (0,10);
type = Stem;
},
{
horizontal = 1;
origin = (0,15);
target = down;
type = TopGhost;
},
{
horizontal = 1;
origin = (0,3);
target = up;
type = BottomGhost;
},
{
origin = (0,16);
target = (0,13);
type = Stem;
},
{
origin = (0,3);
target = (0,4);
type = Stem;
}
);
layerId = "EED8C670-EB0D-45AD-8912-54AB4C6FD6BA";
shapes = (
{
closed = 1;
nodes = (
(280,-10,o),
(327,3,o),
(373,30,c),
(373,0,l),
(517,0,l),
(517,545,l),
(373,570,l),
(373,178,l),
(348,159,o),
(304,132,o),
(259,132,cs),
(209,132,o),
(189,153,o),
(189,208,cs),
(189,545,l),
(45,570,l),
(45,183,ls),
(45,62,o),
(108,-10,o),
(227,-10,cs)
);
}
);
width = 562;
},
{
anchors = (
{
name = top;
pos = (275,531);
}
);
hints = (
{
horizontal = 1;
origin = (0,19);
target = (0,10);
type = Stem;
},
{
horizontal = 1;
origin = (0,15);
target = down;
type = TopGhost;
},
{
horizontal = 1;
origin = (0,3);
target = up;
type = BottomGhost;
},
{
horizontal = 1;
origin = (0,3);
target = (0,10);
type = Stem;
},
{
origin = (0,16);
target = (0,13);
type = Stem;
},
{
origin = (0,3);
target = (0,4);
type = Stem;
}
);
layerId = "B06945F2-A2F9-4CD6-84EB-56F06A9D6A7E";
shapes = (
{
closed = 1;
nodes = (
(279,-13,o),
(330,4,o),
(383,40,c),
(383,-3,l),
(494,-3,l),
(494,512,l),
(383,531,l),
(383,151,l),
(356,129,o),
(306,96,o),
(252,96,cs),
(193,96,o),
(166,124,o),
(166,188,cs),
(166,512,l),
(55,531,l),
(55,164,ls),
(55,46,o),
(116,-13,o),
(221,-13,cs)
);
}
);
width = 549;
}
);
note = u;
unicode = 117;
},
{
glyphname = v;
kernLeft = v;
kernRight = v;
lastChange = "2023-01-08 13:00:20 +0000";
layers = (
{
anchors = (
{
name = top;
pos = (254,499);
}
);
hints = (
{
horizontal = 1;
origin = (0,14);
target = up;
type = BottomGhost;
},
{
horizontal = 1;
origin = (0,13);
target = down;
type = TopGhost;
},
{
horizontal = 1;
origin = (0,14);
target = (0,8);
type = Stem;
},
{
origin = (0,13);
target = (0,1);
type = Stem;
}
);
layerId = m01;
shapes = (
{
closed = 1;
nodes = (
(300,0,l),
(489,504,l),
(405,504,l),
(371,415,o),
(349,358,o),
(338,331,cs),
(300,225,o),
(283,169,o),
(256,82,c),
(204,249,l),
(165,353,o),
(143,412,o),
(108,504,c),
(19,504,l),
(207,0,l)
);
}
);
width = 508;
},
{
anchors = (
{
name = top;
pos = (297,564);
}
);
hints = (
{
horizontal = 1;
origin = (0,8);
target = up;
type = BottomGhost;
},
{
horizontal = 1;
origin = (0,7);
target = down;
type = TopGhost;
},
{
origin = (0,7);
target = (0,1);
type = Stem;
}
);
layerId = "EED8C670-EB0D-45AD-8912-54AB4C6FD6BA";
shapes = (
{
closed = 1;
nodes = (
(366,0,l),
(579,569,l),
(425,569,l),
(314,274,l),
(299,224,l),
(283,274,l),
(173,569,l),
(15,569,l),
(228,0,l)
);
}
);
width = 594;
},
{
anchors = (
{
name = top;
pos = (277,531);
}
);
layerId = "B06945F2-A2F9-4CD6-84EB-56F06A9D6A7E";
shapes = (
{
closed = 1;
nodes = (
(218,0,l),
(333,0,l),
(535,536,l),
(416,536,l),
(309,252,l),
(278,152,l),
(257,218,o),
(267,185,o),
(247,252,c),
(141,536,l),
(18,536,l)
);
}
);
width = 552;
}
);
note = v;
unicode = 118;
},
{
glyphname = w;
kernLeft = v;
lastChange = "2023-01-06 21:19:04 +0000";
layers = (
{
anchors = (
{
name = top;
pos = (393,499);
}
);
hints = (
{
horizontal = 1;
origin = (0,9);
target = (0,6);
type = Stem;
},
{
horizontal = 1;
origin = (0,8);
target = down;
type = TopGhost;
},
{
horizontal = 1;
origin = (0,8);
target = (0,11);
type = Stem;
},
{
origin = (0,8);
target = (0,1);
type = Stem;
}
);
layerId = m01;
shapes = (
{
closed = 1;
nodes = (
(604,0,l),
(767,504,l),
(680,504,l),
(554,77,l),
(434,504,l),
(351,504,l),
(232,77,l),
(105,504,l),
(19,504,l),
(182,0,l),
(274,0,l),
(391,388,l),
(508,0,l)
);
}
);
width = 785;
},
{
anchors = (
{
name = top;
pos = (434,564);
}
);
hints = (
{
horizontal = 1;
origin = (0,9);
target = up;
type = BottomGhost;
},
{
horizontal = 1;
origin = (0,8);
target = down;
type = TopGhost;
},
{
origin = (0,8);
target = (0,1);
type = Stem;
}
);
layerId = "EED8C670-EB0D-45AD-8912-54AB4C6FD6BA";
shapes = (
{
closed = 1;
nodes = (
(668,0,l),
(852,569,l),
(696,569,l),
(595,227,l),
(500,569,l),
(367,569,l),
(272,227,l),
(170,569,l),
(15,569,l),
(199,0,l),
(339,0,l),
(432,307,l),
(525,0,l)
);
}
);
width = 867;
},
{
anchors = (
{
name = top;
pos = (414,531);
}
);
hints = (
{
horizontal = 1;
origin = (0,10);
target = up;
type = BottomGhost;
},
{
horizontal = 1;
origin = (0,9);
target = down;
type = TopGhost;
},
{
origin = (0,9);
target = (0,2);
type = Stem;
}
);
layerId = "B06945F2-A2F9-4CD6-84EB-56F06A9D6A7E";
shapes = (
{
closed = 1;
nodes = (
(517,0,l),
(636,0,l),
(809,536,l),
(689,536,l),
(575,151,l),
(467,536,l),
(360,536,l),
(252,150,l),
(138,536,l),
(18,536,l),
(191,0,l),
(307,0,l),
(412,348,l)
);
}
);
width = 827;
}
);
note = w;
unicode = 119;
},
{
glyphname = x;
lastChange = "2023-01-08 13:00:14 +0000";
layers = (
{
anchors = (
{
name = top;
pos = (260,499);
}
);
hints = (
{
horizontal = 1;
origin = (0,12);
target = up;
type = BottomGhost;
},
{
origin = (0,12);
target = (0,0);
type = Stem;
}
);
layerId = m01;
shapes = (
{
closed = 1;
nodes = (
(497,0,l),
(313,253,l),
(493,499,l),
(409,499,l),
(356,431,o),
(308,364,o),
(265,298,c),
(222,365,o),
(174,432,o),
(121,499,c),
(25,499,l),
(205,253,l),
(23,0,l),
(113,0,l),
(166,68,o),
(214,135,o),
(256,202,c),
(292,147,o),
(316,109,o),
(338,83,cs),
(348,70,o),
(369,43,o),
(401,0,c)
);
}
);
width = 520;
},
{
anchors = (
{
name = top;
pos = (318,564);
}
);
hints = (
{
horizontal = 1;
origin = (0,11);
target = up;
type = BottomGhost;
},
{
horizontal = 1;
origin = (0,9);
target = down;
type = TopGhost;
},
{
origin = (0,11);
target = (0,0);
type = Stem;
}
);
layerId = "EED8C670-EB0D-45AD-8912-54AB4C6FD6BA";
shapes = (
{
closed = 1;
nodes = (
(619,0,l),
(411,286,l),
(615,564,l),
(450,564,l),
(364,448,o),
(402,506,o),
(322,389,c),
(297,427,l),
(195,564,l),
(18,564,l),
(223,286,l),
(17,0,l),
(187,0,l),
(278,123,o),
(235,58,o),
(313,176,c),
(339,137,l),
(442,0,l)
);
}
);
width = 636;
},
{
anchors = (
{
name = top;
pos = (294,531);
}
);
hints = (
{
horizontal = 1;
origin = (0,12);
target = up;
type = BottomGhost;
},
{
origin = (0,12);
target = (0,0);
type = Stem;
}
);
layerId = "B06945F2-A2F9-4CD6-84EB-56F06A9D6A7E";
shapes = (
{
closed = 1;
nodes = (
(558,0,l),
(362,269,l),
(554,531,l),
(430,531,l),
(341,411,o),
(378,467,o),
(294,342,c),
(210,467,o),
(256,400,o),
(158,531,c),
(23,531,l),
(215,269,l),
(21,0,l),
(150,0,l),
(238,120,o),
(202,63,o),
(285,189,c),
(369,63,o),
(322,133,o),
(422,0,c)
);
}
);
width = 579;
}
);
note = x;
unicode = 120;
},
{
glyphname = y;
kernLeft = v;
kernRight = v;
lastChange = "2023-01-06 21:19:04 +0000";
layers = (
{
anchors = (
{
name = top;
pos = (255,499);
}
);
hints = (
{
horizontal = 1;
origin = (0,7);
target = up;
type = BottomGhost;
},
{
origin = (0,5);
target = (0,1);
type = Stem;
}
);
layerId = m01;
shapes = (
{
closed = 1;
nodes = (
(237,-183,l),
(490,494,l),
(406,494,l),
(257,69,l),
(109,494,l),
(20,494,l),
(219,-25,l),
(161,-183,l)
);
}
);
width = 510;
},
{
anchors = (
{
name = top;
pos = (299,564);
}
);
hints = (
{
horizontal = 1;
origin = (0,7);
target = up;
type = BottomGhost;
},
{
origin = (0,5);
target = (0,1);
type = Stem;
}
);
layerId = "EED8C670-EB0D-45AD-8912-54AB4C6FD6BA";
shapes = (
{
closed = 1;
nodes = (
(302,-181,l),
(580,561,l),
(425,561,l),
(299,203,l),
(174,561,l),
(15,561,l),
(227,9,l),
(157,-181,l)
);
}
);
width = 595;
},
{
anchors = (
{
name = top;
pos = (279,531);
}
);
layerId = "B06945F2-A2F9-4CD6-84EB-56F06A9D6A7E";
shapes = (
{
closed = 1;
nodes = (
(159,-183,l),
(269,-183,l),
(535,526,l),
(416,526,l),
(278,134,l),
(141,526,l),
(18,526,l),
(223,-9,l)
);
}
);
width = 552;
}
);
note = y;
unicode = 121;
},
{
glyphname = z;
lastChange = "2023-01-08 13:00:07 +0000";
layers = (
{
anchors = (
{
name = top;
pos = (242,499);
}
);
hints = (
{
horizontal = 1;
origin = (0,9);
target = (0,2);
type = Stem;
},
{
horizontal = 1;
origin = (0,6);
target = (0,5);
type = Stem;
},
{
origin = (0,9);
target = (0,0);
type = Stem;
}
);
layerId = m01;
shapes = (
{
closed = 1;
nodes = (
(434,-3,l),
(421,59,l),
(133,59,l),
(426,439,l),
(426,496,l),
(58,496,l),
(45,434,l),
(328,434,l),
(30,54,l),
(30,-3,l)
);
}
);
width = 464;
},
{
anchors = (
{
name = top;
pos = (268,564);
}
);
hints = (
{
horizontal = 1;
origin = (0,9);
target = (0,2);
type = Stem;
},
{
horizontal = 1;
origin = (0,5);
target = (0,6);
type = Stem;
},
{
origin = (0,9);
target = (0,0);
type = Stem;
}
);
layerId = "EED8C670-EB0D-45AD-8912-54AB4C6FD6BA";
shapes = (
{
closed = 1;
nodes = (
(497,0,l),
(469,127,l),
(221,127,l),
(481,463,l),
(481,564,l),
(55,564,l),
(27,437,l),
(283,437,l),
(20,101,l),
(20,0,l)
);
}
);
width = 517;
},
{
anchors = (
{
name = top;
pos = (246,531);
}
);
hints = (
{
horizontal = 1;
origin = (0,0);
target = (0,3);
type = Stem;
},
{
horizontal = 1;
origin = (0,7);
target = (0,6);
type = Stem;
},
{
origin = (0,0);
target = (0,1);
type = Stem;
}
);
layerId = "B06945F2-A2F9-4CD6-84EB-56F06A9D6A7E";
shapes = (
{
closed = 1;
nodes = (
(27,-3,l),
(467,-3,l),
(446,91,l),
(178,91,l),
(454,449,l),
(454,528,l),
(59,528,l),
(38,434,l),
(308,434,l),
(27,76,l)
);
}
);
width = 494;
}
);
note = z;
unicode = 122;
},
{
glyphname = braceleft;
lastChange = "2023-01-06 21:19:04 +0000";
layers = (
{
layerId = m01;
shapes = (
{
closed = 1;
nodes = (
(287,-10,l),
(215,-10,o),
(191,21,o),
(191,93,c),
(191,234,ls),
(191,289,o),
(173,327,o),
(113,346,c),
(113,353,l),
(173,372,o),
(191,410,o),
(191,466,cs),
(191,607,ls),
(191,679,o),
(215,710,o),
(287,710,c),
(287,771,l),
(220,771,o),
(165,756,o),
(136,711,cs),
(121,688,o),
(114,655,o),
(114,612,cs),
(114,482,ls),
(114,409,o),
(90,384,o),
(15,384,c),
(15,315,l),
(91,315,o),
(114,290,o),
(114,218,cs),
(114,88,ls),
(114,1,o),
(145,-42,o),
(198,-59,cs),
(224,-67,o),
(254,-71,o),
(287,-71,c)
);
}
);
width = 302;
},
{
hints = (
{
horizontal = 1;
origin = (0,42);
target = (0,2);
type = Stem;
},
{
horizontal = 1;
origin = (0,31);
target = (0,30);
type = Stem;
},
{
horizontal = 1;
origin = (0,16);
target = (0,19);
type = Stem;
},
{
origin = (0,36);
target = (0,5);
type = Stem;
}
);
layerId = "EED8C670-EB0D-45AD-8912-54AB4C6FD6BA";
shapes = (
{
closed = 1;
nodes = (
(340,-40,l),
(340,77,l),
(310,77,ls),
(264,77,o),
(252,86,o),
(252,144,cs),
(252,271,ls),
(252,303,o),
(246,346,o),
(209,376,c),
(246,406,o),
(252,448,o),
(252,483,cs),
(252,609,ls),
(252,664,o),
(262,677,o),
(310,677,cs),
(340,677,l),
(340,793,l),
(310,793,ls),
(177,793,o),
(121,734,o),
(121,617,cs),
(121,498,ls),
(121,471,o),
(118,457,o),
(110,449,cs),
(100,439,o),
(82,438,o),
(48,438,cs),
(30,438,l),
(30,314,l),
(60,314,ls),
(112,314,o),
(121,306,o),
(121,256,cs),
(121,136,ls),
(121,67,o),
(142,18,o),
(184,-10,cs),
(224,-37,o),
(275,-40,o),
(310,-40,cs)
);
}
);
width = 370;
},
{
hints = (
{
horizontal = 1;
origin = (0,34);
target = (0,0);
type = Stem;
},
{
horizontal = 1;
place = (323, 2000);
place = (323, 2000);
type = Stem;
},
{
horizontal = 1;
origin = (0,14);
target = (0,15);
type = Stem;
},
{
origin = (0,28);
target = (0,3);
type = Stem;
}
);
layerId = "B06945F2-A2F9-4CD6-84EB-56F06A9D6A7E";
shapes = (
{
closed = 1;
nodes = (
(321,34,l),
(250,34,o),
(226,43,o),
(226,124,cs),
(226,259,ls),
(226,316,o),
(207,352,o),
(167,373,c),
(207,395,o),
(226,431,o),
(226,488,cs),
(226,623,ls),
(226,704,o),
(250,712,o),
(321,712,c),
(321,804,l),
(178,804,o),
(119,761,o),
(119,632,cs),
(119,503,ls),
(119,439,o),
(102,424,o),
(36,423,cs),
(20,422,l),
(20,323,l),
(96,323,o),
(119,317,o),
(119,243,cs),
(119,115,ls),
(119,49,o),
(136,4,o),
(172,-24,cs),
(208,-52,o),
(250,-58,o),
(321,-58,c)
);
}
);
width = 341;
}
);
note = braceleft;
unicode = 123;
},
{
glyphname = bar;
lastChange = "2023-01-06 21:19:04 +0000";
layers = (
{
layerId = m01;
shapes = (
{
closed = 1;
nodes = (
(79,-100,l),
(79,648,l),
(12,648,l),
(12,-100,l)
);
}
);
width = 91;
},
{
hints = (
{
horizontal = 1;
origin = (0,2);
target = down;
type = TopGhost;
},
{
origin = (0,3);
target = (0,0);
type = Stem;
}
);
layerId = "EED8C670-EB0D-45AD-8912-54AB4C6FD6BA";
shapes = (
{
closed = 1;
nodes = (
(158,-200,l),
(158,761,l),
(12,761,l),
(12,-200,l)
);
}
);
width = 170;
},
{
hints = (
{
horizontal = 1;
origin = (0,0);
target = (0,3);
type = Stem;
},
{
origin = (0,0);
target = (0,1);
type = Stem;
}
);
layerId = "B06945F2-A2F9-4CD6-84EB-56F06A9D6A7E";
shapes = (
{
closed = 1;
nodes = (
(12,-100,l),
(116,-100,l),
(116,728,l),
(12,728,l)
);
}
);
width = 128;
}
);
note = bar;
unicode = 124;
},
{
glyphname = braceright;
lastChange = "2023-01-06 21:19:04 +0000";
layers = (
{
hints = (
{
horizontal = 1;
origin = (0,37);
target = (0,36);
type = Stem;
},
{
horizontal = 1;
origin = (0,9);
target = (0,10);
type = Stem;
},
{
horizontal = 1;
origin = (0,21);
target = (0,20);
type = Stem;
},
{
origin = (0,33);
target = (0,5);
type = Stem;
},
{
origin = (0,29);
target = (0,9);
type = Stem;
}
);
layerId = m01;
shapes = (
{
closed = 1;
nodes = (
(83,-71,o),
(137,-58,o),
(166,-12,cs),
(181,11,o),
(188,45,o),
(188,88,cs),
(188,218,ls),
(188,290,o),
(211,315,o),
(287,315,c),
(287,384,l),
(212,384,o),
(188,409,o),
(188,482,cs),
(188,612,ls),
(188,699,o),
(157,741,o),
(105,758,cs),
(79,767,o),
(49,771,o),
(15,771,c),
(15,710,l),
(87,710,o),
(111,679,o),
(111,607,cs),
(111,466,ls),
(111,410,o),
(129,372,o),
(189,353,c),
(189,346,l),
(129,327,o),
(111,289,o),
(111,234,cs),
(111,93,ls),
(111,21,o),
(87,-10,o),
(15,-10,c),
(15,-71,l)
);
}
);
width = 302;
},
{
hints = (
{
horizontal = 1;
origin = (0,47);
target = (0,46);
type = Stem;
},
{
horizontal = 1;
origin = (0,10);
target = (0,13);
type = Stem;
},
{
horizontal = 1;
origin = (0,24);
target = (0,23);
type = Stem;
},
{
origin = (0,39);
target = (0,6);
type = Stem;
}
);
layerId = "EED8C670-EB0D-45AD-8912-54AB4C6FD6BA";
shapes = (
{
closed = 1;
nodes = (
(60,-40,ls),
(95,-40,o),
(147,-37,o),
(186,-10,cs),
(228,18,o),
(249,67,o),
(249,136,cs),
(249,256,ls),
(249,306,o),
(259,314,o),
(310,314,cs),
(340,314,l),
(340,438,l),
(310,438,ls),
(258,439,o),
(249,446,o),
(249,498,cs),
(249,617,ls),
(249,683,o),
(231,729,o),
(193,758,cs),
(152,790,o),
(110,793,o),
(30,793,c),
(30,677,l),
(60,677,ls),
(83,677,o),
(98,673,o),
(106,665,cs),
(114,656,o),
(118,638,o),
(118,609,cs),
(118,483,ls),
(119,448,o),
(125,406,o),
(161,376,c),
(124,346,o),
(119,303,o),
(118,271,cs),
(118,144,ls),
(118,115,o),
(114,97,o),
(106,88,cs),
(98,80,o),
(83,77,o),
(60,77,cs),
(30,77,l),
(30,-40,l)
);
}
);
width = 370;
},
{
hints = (
{
horizontal = 1;
origin = (0,37);
target = (0,36);
type = Stem;
},
{
horizontal = 1;
origin = (0,7);
target = (0,8);
type = Stem;
},
{
horizontal = 1;
origin = (0,19);
target = (0,18);
type = Stem;
},
{
origin = (0,33);
target = (0,3);
type = Stem;
}
);
layerId = "B06945F2-A2F9-4CD6-84EB-56F06A9D6A7E";
shapes = (
{
closed = 1;
nodes = (
(36,-58,ls),
(169,-58,o),
(223,-3,o),
(223,115,cs),
(223,243,ls),
(223,317,o),
(245,323,o),
(321,323,c),
(321,422,l),
(244,423,o),
(223,429,o),
(223,503,cs),
(223,632,ls),
(223,697,o),
(205,742,o),
(169,770,cs),
(133,798,o),
(91,804,o),
(20,804,c),
(20,712,l),
(54,712,o),
(77,710,o),
(92,700,cs),
(109,688,o),
(116,666,o),
(116,623,cs),
(116,488,ls),
(116,431,o),
(134,395,o),
(175,373,c),
(134,352,o),
(116,316,o),
(116,259,cs),
(116,124,ls),
(116,43,o),
(92,34,o),
(20,34,c),
(20,-58,l)
);
}
);
width = 341;
}
);
note = braceright;
unicode = 125;
},
{
glyphname = asciitilde;
lastChange = "2023-01-06 21:19:04 +0000";
layers = (
{
hints = (
{
horizontal = 1;
origin = (0,3);
target = (0,10);
type = Stem;
},
{
origin = (0,15);
target = (0,7);
type = Stem;
}
);
layerId = m01;
shapes = (
{
closed = 1;
nodes = (
(219,335,l),
(257,303,o),
(300,287,o),
(347,287,cs),
(381,287,o),
(419,297,o),
(461,317,c),
(484,407,l),
(448,380,o),
(402,357,o),
(347,357,cs),
(304,357,o),
(254,377,o),
(234,413,cs),
(229,424,l),
(88,306,l),
(110,297,o),
(131,288,o),
(151,279,c)
);
}
);
width = 614;
},
{
hints = (
{
horizontal = 1;
origin = (0,4);
target = (0,11);
type = Stem;
},
{
origin = (0,15);
target = (0,7);
type = Stem;
}
);
layerId = "EED8C670-EB0D-45AD-8912-54AB4C6FD6BA";
shapes = (
{
closed = 1;
nodes = (
(128,310,l),
(207,379,l),
(257,332,o),
(308,311,o),
(377,311,cs),
(429,311,o),
(501,328,o),
(539,361,c),
(536,457,l),
(512,436,o),
(438,411,o),
(377,411,cs),
(321,411,o),
(255,424,o),
(221,495,c),
(88,376,l)
);
}
);
width = 639;
},
{
hints = (
{
horizontal = 1;
origin = (0,19);
target = (0,6);
type = Stem;
},
{
horizontal = 1;
origin = (0,16);
target = (0,9);
type = Stem;
},
{
origin = (0,12);
target = (0,2);
type = Stem;
}
);
layerId = "B06945F2-A2F9-4CD6-84EB-56F06A9D6A7E";
shapes = (
{
closed = 1;
nodes = (
(361,289,o),
(400,308,o),
(416,324,c),
(411,388,l),
(384,373,o),
(359,365,o),
(336,365,cs),
(311,365,o),
(207,400,o),
(176,400,cs),
(146,400,o),
(116,388,o),
(87,364,c),
(94,299,l),
(126,316,o),
(152,324,o),
(171,324,cs),
(194,324,o),
(305,289,o),
(335,289,cs)
);
}
);
width = 536;
}
);
note = asciitilde;
unicode = 126;
},
{
glyphname = exclamdown;
lastChange = "2023-01-06 21:19:04 +0000";
layers = (
{
layerId = m01;
shapes = (
{
closed = 1;
nodes = (
(173,460,l),
(107,460,l),
(101,-6,l),
(179,-6,l)
);
},
{
closed = 1;
nodes = (
(93,595,o),
(113,574,o),
(140,574,cs),
(167,574,o),
(188,595,o),
(188,622,cs),
(188,649,o),
(167,669,o),
(140,669,cs),
(113,669,o),
(93,649,o),
(93,622,cs)
);
}
);
width = 281;
},
{
hints = (
{
horizontal = 1;
origin = (0,5);
target = (0,11);
type = Stem;
},
{
origin = (0,2);
target = (0,8);
type = Stem;
},
{
place = (96.5, 137.5);
place = (96.5, 137.5);
type = Stem;
}
);
layerId = "EED8C670-EB0D-45AD-8912-54AB4C6FD6BA";
shapes = (
{
closed = 1;
nodes = (
(121,763,o),
(86,728,o),
(86,683,cs),
(86,638,o),
(121,603,o),
(166,603,cs),
(210,603,o),
(246,639,o),
(246,683,cs),
(246,727,o),
(210,763,o),
(166,763,cs)
);
},
{
closed = 1;
nodes = (
(231,554,l),
(100,554,l),
(93,-12,l),
(237,-12,l)
);
}
);
width = 333;
},
{
hints = (
{
horizontal = 1;
origin = (0,0);
target = up;
type = BottomGhost;
},
{
horizontal = 1;
origin = (1,2);
target = (1,8);
type = Stem;
},
{
place = (101, 128);
place = (101, 128);
type = Stem;
},
{
origin = (1,11);
target = (1,5);
type = Stem;
}
);
layerId = "B06945F2-A2F9-4CD6-84EB-56F06A9D6A7E";
shapes = (
{
closed = 1;
nodes = (
(94,0,l),
(234,0,l),
(222,463,l),
(106,463,l)
);
},
{
closed = 1;
nodes = (
(90,564,o),
(123,533,o),
(164,533,cs),
(203,533,o),
(237,564,o),
(237,604,cs),
(237,646,o),
(203,678,o),
(164,678,cs),
(123,678,o),
(90,646,o),
(90,604,cs)
);
}
);
width = 327;
}
);
note = exclamdown;
unicode = 161;
},
{
glyphname = cent;
lastChange = "2023-01-06 21:19:04 +0000";
layers = (
{
hints = (
{
horizontal = 1;
origin = (0,1);
target = (0,6);
type = Stem;
},
{
horizontal = 1;
origin = (0,20);
target = down;
type = TopGhost;
},
{
horizontal = 1;
origin = (0,12);
target = (0,17);
type = Stem;
},
{
horizontal = 1;
origin = (0,17);
target = down;
type = TopGhost;
},
{
horizontal = 1;
origin = (0,12);
target = (0,19);
type = Stem;
},
{
origin = (0,23);
target = (0,9);
type = Stem;
},
{
origin = (0,27);
target = (0,0);
type = Stem;
}
);
layerId = m01;
shapes = (
{
closed = 1;
nodes = (
(338,-96,l),
(338,33,l),
(389,36,o),
(420,39,o),
(431,42,c),
(430,108,l),
(319,105,ls),
(203,105,o),
(151,155,o),
(151,264,cs),
(151,371,o),
(204,422,o),
(304,422,cs),
(344,422,o),
(386,421,o),
(430,419,c),
(431,482,l),
(338,498,l),
(338,620,l),
(266,620,l),
(266,501,l),
(120,489,o),
(47,410,o),
(47,263,cs),
(47,117,o),
(120,38,o),
(266,27,c),
(266,-96,l)
);
}
);
width = 467;
},
{
hints = (
{
horizontal = 1;
origin = (0,27);
target = (0,6);
type = Stem;
},
{
horizontal = 1;
origin = (0,20);
target = down;
type = TopGhost;
},
{
horizontal = 1;
origin = (0,19);
target = down;
type = TopGhost;
},
{
horizontal = 1;
origin = (0,1);
target = (0,6);
type = Stem;
},
{
horizontal = 1;
origin = (0,12);
target = (0,19);
type = Stem;
},
{
horizontal = 1;
origin = (0,17);
target = down;
type = TopGhost;
},
{
origin = (0,23);
target = (0,9);
type = Stem;
},
{
origin = (0,27);
target = (0,0);
type = Stem;
}
);
layerId = "EED8C670-EB0D-45AD-8912-54AB4C6FD6BA";
shapes = (
{
closed = 1;
nodes = (
(390,-97,l),
(390,37,l),
(425,39,o),
(458,44,o),
(487,52,c),
(483,176,l),
(340,171,ls),
(241,171,o),
(198,205,o),
(198,303,cs),
(198,393,o),
(236,434,o),
(324,434,cs),
(365,434,o),
(418,433,o),
(483,430,c),
(487,553,l),
(390,570,l),
(390,699,l),
(255,699,l),
(255,574,l),
(105,562,o),
(30,471,o),
(30,302,cs),
(30,132,o),
(105,42,o),
(255,31,c),
(255,-97,l)
);
}
);
width = 515;
},
{
hints = (
{
horizontal = 1;
origin = (0,2);
target = (0,7);
type = Stem;
},
{
horizontal = 1;
origin = (0,13);
target = (0,18);
type = Stem;
},
{
horizontal = 1;
origin = (0,0);
target = (0,7);
type = Stem;
},
{
origin = (0,22);
target = (0,10);
type = Stem;
},
{
origin = (0,0);
target = (0,1);
type = Stem;
}
);
layerId = "B06945F2-A2F9-4CD6-84EB-56F06A9D6A7E";
shapes = (
{
closed = 1;
nodes = (
(261,-97,l),
(363,-97,l),
(363,32,l),
(405,35,o),
(437,40,o),
(458,46,c),
(453,139,l),
(321,134,ls),
(222,134,o),
(176,179,o),
(176,278,cs),
(176,378,o),
(222,421,o),
(321,421,cs),
(453,416,l),
(458,509,l),
(363,526,l),
(363,649,l),
(261,649,l),
(261,529,l),
(115,517,o),
(42,433,o),
(42,277,cs),
(42,121,o),
(115,37,o),
(261,26,c)
);
}
);
width = 491;
}
);
note = cent;
unicode = 162;
},
{
glyphname = sterling;
lastChange = "2023-01-06 21:19:04 +0000";
layers = (
{
hints = (
{
horizontal = 1;
origin = (0,32);
target = (0,31);
type = Stem;
},
{
horizontal = 1;
origin = (0,28);
target = (0,27);
type = Stem;
},
{
horizontal = 1;
origin = (0,12);
target = (0,19);
type = Stem;
},
{
origin = (0,30);
target = (0,4);
type = Stem;
}
);
layerId = m01;
shapes = (
{
closed = 1;
nodes = (
(373,0,l),
(434,13,l),
(420,84,l),
(368,71,l),
(199,71,l),
(199,357,l),
(370,357,l),
(370,428,l),
(199,428,l),
(199,517,ls),
(199,584,o),
(227,617,o),
(284,617,cs),
(330,617,o),
(370,615,o),
(405,612,c),
(406,675,l),
(357,689,o),
(310,696,o),
(265,696,cs),
(182,696,o),
(144,678,o),
(123,631,cs),
(112,607,o),
(107,571,o),
(107,522,cs),
(107,428,l),
(35,428,l),
(35,357,l),
(107,357,l),
(107,71,l),
(24,71,l),
(24,0,l)
);
}
);
width = 459;
},
{
hints = (
{
horizontal = 1;
origin = (0,29);
target = (0,28);
type = Stem;
},
{
horizontal = 1;
origin = (0,25);
target = (0,24);
type = Stem;
},
{
horizontal = 1;
origin = (0,2);
target = down;
type = TopGhost;
},
{
horizontal = 1;
origin = (0,12);
target = (0,19);
type = Stem;
},
{
origin = (0,27);
target = (0,4);
type = Stem;
}
);
layerId = "EED8C670-EB0D-45AD-8912-54AB4C6FD6BA";
shapes = (
{
closed = 1;
nodes = (
(379,0,l),
(470,20,l),
(447,146,l),
(370,127,l),
(231,127,l),
(231,361,l),
(402,361,l),
(402,488,l),
(231,488,l),
(231,549,ls),
(231,597,o),
(250,621,o),
(288,621,cs),
(333,621,o),
(382,618,o),
(435,612,c),
(440,728,l),
(374,746,o),
(317,756,o),
(269,756,cs),
(130,756,o),
(83,700,o),
(83,554,cs),
(83,488,l),
(11,488,l),
(11,361,l),
(83,361,l),
(83,127,l),
(0,127,l),
(0,0,l)
);
}
);
width = 530;
},
{
hints = (
{
horizontal = 1;
origin = (0,0);
target = (0,29);
type = Stem;
},
{
horizontal = 1;
origin = (0,26);
target = (0,25);
type = Stem;
},
{
horizontal = 1;
origin = (0,17);
target = down;
type = TopGhost;
},
{
horizontal = 1;
origin = (0,13);
target = (0,20);
type = Stem;
},
{
origin = (0,28);
target = (0,5);
type = Stem;
}
);
layerId = "B06945F2-A2F9-4CD6-84EB-56F06A9D6A7E";
shapes = (
{
closed = 1;
nodes = (
(42,0,l),
(393,0,l),
(466,16,l),
(448,111,l),
(386,96,l),
(238,96,l),
(238,344,l),
(402,344,l),
(402,440,l),
(238,440,l),
(238,512,ls),
(238,567,o),
(261,595,o),
(307,595,cs),
(351,595,o),
(393,593,o),
(435,587,c),
(439,675,l),
(384,690,o),
(334,698,o),
(288,698,cs),
(162,698,o),
(122,649,o),
(122,517,cs),
(122,440,l),
(53,440,l),
(53,344,l),
(122,344,l),
(122,96,l),
(42,96,l)
);
}
);
width = 499;
}
);
note = sterling;
unicode = 163;
},
{
glyphname = currency;
lastChange = "2023-01-06 21:19:04 +0000";
layers = (
{
layerId = m01;
shapes = (
{
closed = 1;
nodes = (
(222,132,o),
(162,190,o),
(162,255,cs),
(162,322,o),
(218,379,o),
(287,379,cs),
(354,379,o),
(411,322,o),
(411,255,cs),
(411,187,o),
(354,132,o),
(287,132,cs)
);
},
{
closed = 1;
nodes = (
(46,78,l),
(110,14,l),
(185,91,l),
(225,72,o),
(259,63,o),
(287,63,cs),
(314,63,o),
(347,72,o),
(388,91,c),
(463,14,l),
(526,78,l),
(452,154,l),
(471,193,o),
(480,227,o),
(480,255,cs),
(480,283,o),
(471,317,o),
(452,356,c),
(526,433,l),
(463,496,l),
(388,420,l),
(347,439,o),
(314,448,o),
(287,448,cs),
(258,448,o),
(223,439,o),
(183,420,c),
(110,496,l),
(46,433,l),
(122,356,l),
(103,319,o),
(94,285,o),
(94,255,cs),
(94,225,o),
(103,191,o),
(122,154,c)
);
}
);
width = 581;
},
{
hints = (
{
horizontal = 1;
origin = (0,3);
target = (0,33);
type = Stem;
},
{
horizontal = 1;
origin = (1,5);
target = (0,21);
type = Stem;
},
{
horizontal = 1;
origin = (0,25);
target = down;
type = TopGhost;
},
{
origin = (0,30);
target = (1,2);
type = Stem;
},
{
origin = (1,8);
target = (0,12);
type = Stem;
}
);
layerId = "EED8C670-EB0D-45AD-8912-54AB4C6FD6BA";
shapes = (
{
closed = 1;
nodes = (
(218,89,l),
(250,74,o),
(281,66,o),
(313,66,cs),
(345,66,o),
(376,74,o),
(408,89,c),
(489,6,l),
(593,110,l),
(512,191,l),
(527,222,o),
(534,253,o),
(534,286,cs),
(534,319,o),
(527,350,o),
(512,381,c),
(593,464,l),
(489,566,l),
(408,485,l),
(376,500,o),
(345,507,o),
(313,507,cs),
(280,507,o),
(248,500,o),
(216,485,c),
(137,566,l),
(33,464,l),
(114,381,l),
(99,352,o),
(92,321,o),
(92,286,cs),
(92,251,o),
(99,220,o),
(114,191,c),
(33,110,l),
(137,6,l)
);
},
{
closed = 1;
nodes = (
(263,191,o),
(216,235,o),
(216,286,cs),
(216,339,o),
(261,383,o),
(313,383,cs),
(365,383,o),
(410,339,o),
(410,286,cs),
(410,233,o),
(365,191,o),
(313,191,cs)
);
}
);
width = 632;
},
{
hints = (
{
horizontal = 1;
origin = (0,3);
target = (1,11);
type = Stem;
},
{
horizontal = 1;
origin = (1,5);
target = (0,21);
type = Stem;
},
{
origin = (0,30);
target = (1,2);
type = Stem;
},
{
origin = (1,8);
target = (0,12);
type = Stem;
}
);
layerId = "B06945F2-A2F9-4CD6-84EB-56F06A9D6A7E";
shapes = (
{
closed = 1;
nodes = (
(216,98,l),
(254,80,o),
(289,71,o),
(321,71,cs),
(353,71,o),
(388,80,o),
(426,98,c),
(510,12,l),
(600,102,l),
(516,186,l),
(534,223,o),
(543,258,o),
(543,291,cs),
(543,324,o),
(534,359,o),
(516,396,c),
(600,482,l),
(510,570,l),
(426,486,l),
(388,504,o),
(353,513,o),
(321,513,cs),
(288,513,o),
(253,504,o),
(215,486,c),
(132,570,l),
(42,482,l),
(126,396,l),
(108,361,o),
(99,326,o),
(99,291,cs),
(99,256,o),
(108,221,o),
(126,186,c),
(42,102,l),
(132,12,l)
);
},
{
closed = 1;
nodes = (
(259,174,o),
(203,228,o),
(203,291,cs),
(203,355,o),
(256,410,o),
(321,410,cs),
(385,410,o),
(440,356,o),
(440,291,cs),
(440,226,o),
(385,174,o),
(321,174,cs)
);
}
);
width = 653;
}
);
note = currency;
unicode = 164;
},
